G04 #@! TF.GenerationSoftware,KiCad,Pcbnew,5.0.0+dfsg1-1*
G04 #@! TF.CreationDate,2018-08-21T17:11:21+08:00*
G04 #@! TF.ProjectId,IOT,494F542E6B696361645F706362000000,rev?*
G04 #@! TF.SameCoordinates,Original*
G04 #@! TF.FileFunction,Legend,Top*
G04 #@! TF.FilePolarity,Positive*
%FSLAX46Y46*%
G04 Gerber Fmt 4.6, Leading zero omitted, Abs format (unit mm)*
G04 Created by KiCad (PCBNEW 5.0.0+dfsg1-1) date Tue Aug 21 17:11:21 2018*
%MOMM*%
%LPD*%
G01*
G04 APERTURE LIST*
%ADD10C,0.137500*%
%ADD11C,0.125000*%
%ADD12C,0.120000*%
%ADD13C,0.150000*%
G04 APERTURE END LIST*
D10*
X41808714Y-85937059D02*
X41808714Y-85387059D01*
X41939666Y-85387059D01*
X42018238Y-85413250D01*
X42070619Y-85465630D01*
X42096809Y-85518011D01*
X42123000Y-85622773D01*
X42123000Y-85701345D01*
X42096809Y-85806107D01*
X42070619Y-85858488D01*
X42018238Y-85910869D01*
X41939666Y-85937059D01*
X41808714Y-85937059D01*
X42568238Y-85910869D02*
X42515857Y-85937059D01*
X42411095Y-85937059D01*
X42358714Y-85910869D01*
X42332523Y-85858488D01*
X42332523Y-85648964D01*
X42358714Y-85596583D01*
X42411095Y-85570392D01*
X42515857Y-85570392D01*
X42568238Y-85596583D01*
X42594428Y-85648964D01*
X42594428Y-85701345D01*
X42332523Y-85753726D01*
X42803952Y-85910869D02*
X42856333Y-85937059D01*
X42961095Y-85937059D01*
X43013476Y-85910869D01*
X43039666Y-85858488D01*
X43039666Y-85832297D01*
X43013476Y-85779916D01*
X42961095Y-85753726D01*
X42882523Y-85753726D01*
X42830142Y-85727535D01*
X42803952Y-85675154D01*
X42803952Y-85648964D01*
X42830142Y-85596583D01*
X42882523Y-85570392D01*
X42961095Y-85570392D01*
X43013476Y-85596583D01*
X43275380Y-85937059D02*
X43275380Y-85570392D01*
X43275380Y-85387059D02*
X43249190Y-85413250D01*
X43275380Y-85439440D01*
X43301571Y-85413250D01*
X43275380Y-85387059D01*
X43275380Y-85439440D01*
X43773000Y-85570392D02*
X43773000Y-86015630D01*
X43746809Y-86068011D01*
X43720619Y-86094202D01*
X43668238Y-86120392D01*
X43589666Y-86120392D01*
X43537285Y-86094202D01*
X43773000Y-85910869D02*
X43720619Y-85937059D01*
X43615857Y-85937059D01*
X43563476Y-85910869D01*
X43537285Y-85884678D01*
X43511095Y-85832297D01*
X43511095Y-85675154D01*
X43537285Y-85622773D01*
X43563476Y-85596583D01*
X43615857Y-85570392D01*
X43720619Y-85570392D01*
X43773000Y-85596583D01*
X44034904Y-85570392D02*
X44034904Y-85937059D01*
X44034904Y-85622773D02*
X44061095Y-85596583D01*
X44113476Y-85570392D01*
X44192047Y-85570392D01*
X44244428Y-85596583D01*
X44270619Y-85648964D01*
X44270619Y-85937059D01*
X44742047Y-85910869D02*
X44689666Y-85937059D01*
X44584904Y-85937059D01*
X44532523Y-85910869D01*
X44506333Y-85858488D01*
X44506333Y-85648964D01*
X44532523Y-85596583D01*
X44584904Y-85570392D01*
X44689666Y-85570392D01*
X44742047Y-85596583D01*
X44768238Y-85648964D01*
X44768238Y-85701345D01*
X44506333Y-85753726D01*
X45239666Y-85937059D02*
X45239666Y-85387059D01*
X45239666Y-85910869D02*
X45187285Y-85937059D01*
X45082523Y-85937059D01*
X45030142Y-85910869D01*
X45003952Y-85884678D01*
X44977761Y-85832297D01*
X44977761Y-85675154D01*
X45003952Y-85622773D01*
X45030142Y-85596583D01*
X45082523Y-85570392D01*
X45187285Y-85570392D01*
X45239666Y-85596583D01*
X45920619Y-85937059D02*
X45920619Y-85387059D01*
X45920619Y-85596583D02*
X45973000Y-85570392D01*
X46077761Y-85570392D01*
X46130142Y-85596583D01*
X46156333Y-85622773D01*
X46182523Y-85675154D01*
X46182523Y-85832297D01*
X46156333Y-85884678D01*
X46130142Y-85910869D01*
X46077761Y-85937059D01*
X45973000Y-85937059D01*
X45920619Y-85910869D01*
X46365857Y-85570392D02*
X46496809Y-85937059D01*
X46627761Y-85570392D02*
X46496809Y-85937059D01*
X46444428Y-86068011D01*
X46418238Y-86094202D01*
X46365857Y-86120392D01*
X46837285Y-85884678D02*
X46863476Y-85910869D01*
X46837285Y-85937059D01*
X46811095Y-85910869D01*
X46837285Y-85884678D01*
X46837285Y-85937059D01*
X46837285Y-85596583D02*
X46863476Y-85622773D01*
X46837285Y-85648964D01*
X46811095Y-85622773D01*
X46837285Y-85596583D01*
X46837285Y-85648964D01*
X41612285Y-86899559D02*
X41612285Y-86349559D01*
X41612285Y-86611464D02*
X41926571Y-86611464D01*
X41926571Y-86899559D02*
X41926571Y-86349559D01*
X42267047Y-86899559D02*
X42214666Y-86873369D01*
X42188476Y-86847178D01*
X42162285Y-86794797D01*
X42162285Y-86637654D01*
X42188476Y-86585273D01*
X42214666Y-86559083D01*
X42267047Y-86532892D01*
X42345619Y-86532892D01*
X42398000Y-86559083D01*
X42424190Y-86585273D01*
X42450380Y-86637654D01*
X42450380Y-86794797D01*
X42424190Y-86847178D01*
X42398000Y-86873369D01*
X42345619Y-86899559D01*
X42267047Y-86899559D01*
X42686095Y-86532892D02*
X42686095Y-87082892D01*
X42686095Y-86559083D02*
X42738476Y-86532892D01*
X42843238Y-86532892D01*
X42895619Y-86559083D01*
X42921809Y-86585273D01*
X42948000Y-86637654D01*
X42948000Y-86794797D01*
X42921809Y-86847178D01*
X42895619Y-86873369D01*
X42843238Y-86899559D01*
X42738476Y-86899559D01*
X42686095Y-86873369D01*
X43183714Y-86899559D02*
X43183714Y-86349559D01*
X43236095Y-86690035D02*
X43393238Y-86899559D01*
X43393238Y-86532892D02*
X43183714Y-86742416D01*
X43628952Y-86899559D02*
X43628952Y-86532892D01*
X43628952Y-86349559D02*
X43602761Y-86375750D01*
X43628952Y-86401940D01*
X43655142Y-86375750D01*
X43628952Y-86349559D01*
X43628952Y-86401940D01*
X43890857Y-86532892D02*
X43890857Y-86899559D01*
X43890857Y-86585273D02*
X43917047Y-86559083D01*
X43969428Y-86532892D01*
X44048000Y-86532892D01*
X44100380Y-86559083D01*
X44126571Y-86611464D01*
X44126571Y-86899559D01*
X44362285Y-86873369D02*
X44414666Y-86899559D01*
X44519428Y-86899559D01*
X44571809Y-86873369D01*
X44598000Y-86820988D01*
X44598000Y-86794797D01*
X44571809Y-86742416D01*
X44519428Y-86716226D01*
X44440857Y-86716226D01*
X44388476Y-86690035D01*
X44362285Y-86637654D01*
X44362285Y-86611464D01*
X44388476Y-86559083D01*
X44440857Y-86532892D01*
X44519428Y-86532892D01*
X44571809Y-86559083D01*
X45252761Y-86899559D02*
X45252761Y-86349559D01*
X45567047Y-86899559D02*
X45331333Y-86585273D01*
X45567047Y-86349559D02*
X45252761Y-86663845D01*
X45881333Y-86899559D02*
X45828952Y-86873369D01*
X45802761Y-86847178D01*
X45776571Y-86794797D01*
X45776571Y-86637654D01*
X45802761Y-86585273D01*
X45828952Y-86559083D01*
X45881333Y-86532892D01*
X45959904Y-86532892D01*
X46012285Y-86559083D01*
X46038476Y-86585273D01*
X46064666Y-86637654D01*
X46064666Y-86794797D01*
X46038476Y-86847178D01*
X46012285Y-86873369D01*
X45959904Y-86899559D01*
X45881333Y-86899559D01*
X46300380Y-86532892D02*
X46300380Y-86899559D01*
X46300380Y-86585273D02*
X46326571Y-86559083D01*
X46378952Y-86532892D01*
X46457523Y-86532892D01*
X46509904Y-86559083D01*
X46536095Y-86611464D01*
X46536095Y-86899559D01*
X47033714Y-86532892D02*
X47033714Y-86978130D01*
X47007523Y-87030511D01*
X46981333Y-87056702D01*
X46928952Y-87082892D01*
X46850380Y-87082892D01*
X46798000Y-87056702D01*
X47033714Y-86873369D02*
X46981333Y-86899559D01*
X46876571Y-86899559D01*
X46824190Y-86873369D01*
X46798000Y-86847178D01*
X46771809Y-86794797D01*
X46771809Y-86637654D01*
X46798000Y-86585273D01*
X46824190Y-86559083D01*
X46876571Y-86532892D01*
X46981333Y-86532892D01*
X47033714Y-86559083D01*
D11*
X36540476Y-82314809D02*
X36854761Y-82314809D01*
X36697619Y-82864809D02*
X36697619Y-82314809D01*
X37038095Y-82864809D02*
X37038095Y-82314809D01*
X37273809Y-82864809D02*
X37273809Y-82576714D01*
X37247619Y-82524333D01*
X37195238Y-82498142D01*
X37116666Y-82498142D01*
X37064285Y-82524333D01*
X37038095Y-82550523D01*
X37745238Y-82838619D02*
X37692857Y-82864809D01*
X37588095Y-82864809D01*
X37535714Y-82838619D01*
X37509523Y-82786238D01*
X37509523Y-82576714D01*
X37535714Y-82524333D01*
X37588095Y-82498142D01*
X37692857Y-82498142D01*
X37745238Y-82524333D01*
X37771428Y-82576714D01*
X37771428Y-82629095D01*
X37509523Y-82681476D01*
X38426190Y-82864809D02*
X38426190Y-82314809D01*
X38426190Y-82576714D02*
X38740476Y-82576714D01*
X38740476Y-82864809D02*
X38740476Y-82314809D01*
X39080952Y-82864809D02*
X39028571Y-82838619D01*
X39002380Y-82812428D01*
X38976190Y-82760047D01*
X38976190Y-82602904D01*
X39002380Y-82550523D01*
X39028571Y-82524333D01*
X39080952Y-82498142D01*
X39159523Y-82498142D01*
X39211904Y-82524333D01*
X39238095Y-82550523D01*
X39264285Y-82602904D01*
X39264285Y-82760047D01*
X39238095Y-82812428D01*
X39211904Y-82838619D01*
X39159523Y-82864809D01*
X39080952Y-82864809D01*
X39500000Y-82498142D02*
X39500000Y-82864809D01*
X39500000Y-82550523D02*
X39526190Y-82524333D01*
X39578571Y-82498142D01*
X39657142Y-82498142D01*
X39709523Y-82524333D01*
X39735714Y-82576714D01*
X39735714Y-82864809D01*
X40233333Y-82498142D02*
X40233333Y-82943380D01*
X40207142Y-82995761D01*
X40180952Y-83021952D01*
X40128571Y-83048142D01*
X40050000Y-83048142D01*
X39997619Y-83021952D01*
X40233333Y-82838619D02*
X40180952Y-82864809D01*
X40076190Y-82864809D01*
X40023809Y-82838619D01*
X39997619Y-82812428D01*
X39971428Y-82760047D01*
X39971428Y-82602904D01*
X39997619Y-82550523D01*
X40023809Y-82524333D01*
X40076190Y-82498142D01*
X40180952Y-82498142D01*
X40233333Y-82524333D01*
X40914285Y-82864809D02*
X40914285Y-82314809D01*
X41228571Y-82864809D02*
X40992857Y-82550523D01*
X41228571Y-82314809D02*
X40914285Y-82629095D01*
X41542857Y-82864809D02*
X41490476Y-82838619D01*
X41464285Y-82812428D01*
X41438095Y-82760047D01*
X41438095Y-82602904D01*
X41464285Y-82550523D01*
X41490476Y-82524333D01*
X41542857Y-82498142D01*
X41621428Y-82498142D01*
X41673809Y-82524333D01*
X41700000Y-82550523D01*
X41726190Y-82602904D01*
X41726190Y-82760047D01*
X41700000Y-82812428D01*
X41673809Y-82838619D01*
X41621428Y-82864809D01*
X41542857Y-82864809D01*
X41961904Y-82498142D02*
X41961904Y-82864809D01*
X41961904Y-82550523D02*
X41988095Y-82524333D01*
X42040476Y-82498142D01*
X42119047Y-82498142D01*
X42171428Y-82524333D01*
X42197619Y-82576714D01*
X42197619Y-82864809D01*
X42695238Y-82498142D02*
X42695238Y-82943380D01*
X42669047Y-82995761D01*
X42642857Y-83021952D01*
X42590476Y-83048142D01*
X42511904Y-83048142D01*
X42459523Y-83021952D01*
X42695238Y-82838619D02*
X42642857Y-82864809D01*
X42538095Y-82864809D01*
X42485714Y-82838619D01*
X42459523Y-82812428D01*
X42433333Y-82760047D01*
X42433333Y-82602904D01*
X42459523Y-82550523D01*
X42485714Y-82524333D01*
X42538095Y-82498142D01*
X42642857Y-82498142D01*
X42695238Y-82524333D01*
X43376190Y-82864809D02*
X43376190Y-82314809D01*
X43585714Y-82314809D01*
X43638095Y-82341000D01*
X43664285Y-82367190D01*
X43690476Y-82419571D01*
X43690476Y-82498142D01*
X43664285Y-82550523D01*
X43638095Y-82576714D01*
X43585714Y-82602904D01*
X43376190Y-82602904D01*
X44004761Y-82864809D02*
X43952380Y-82838619D01*
X43926190Y-82812428D01*
X43900000Y-82760047D01*
X43900000Y-82602904D01*
X43926190Y-82550523D01*
X43952380Y-82524333D01*
X44004761Y-82498142D01*
X44083333Y-82498142D01*
X44135714Y-82524333D01*
X44161904Y-82550523D01*
X44188095Y-82602904D01*
X44188095Y-82760047D01*
X44161904Y-82812428D01*
X44135714Y-82838619D01*
X44083333Y-82864809D01*
X44004761Y-82864809D01*
X44502380Y-82864809D02*
X44450000Y-82838619D01*
X44423809Y-82786238D01*
X44423809Y-82314809D01*
X44659523Y-82498142D02*
X44790476Y-82864809D01*
X44921428Y-82498142D02*
X44790476Y-82864809D01*
X44738095Y-82995761D01*
X44711904Y-83021952D01*
X44659523Y-83048142D01*
X45052380Y-82498142D02*
X45261904Y-82498142D01*
X45130952Y-82314809D02*
X45130952Y-82786238D01*
X45157142Y-82838619D01*
X45209523Y-82864809D01*
X45261904Y-82864809D01*
X45654761Y-82838619D02*
X45602380Y-82864809D01*
X45497619Y-82864809D01*
X45445238Y-82838619D01*
X45419047Y-82786238D01*
X45419047Y-82576714D01*
X45445238Y-82524333D01*
X45497619Y-82498142D01*
X45602380Y-82498142D01*
X45654761Y-82524333D01*
X45680952Y-82576714D01*
X45680952Y-82629095D01*
X45419047Y-82681476D01*
X46152380Y-82838619D02*
X46100000Y-82864809D01*
X45995238Y-82864809D01*
X45942857Y-82838619D01*
X45916666Y-82812428D01*
X45890476Y-82760047D01*
X45890476Y-82602904D01*
X45916666Y-82550523D01*
X45942857Y-82524333D01*
X45995238Y-82498142D01*
X46100000Y-82498142D01*
X46152380Y-82524333D01*
X46388095Y-82864809D02*
X46388095Y-82314809D01*
X46623809Y-82864809D02*
X46623809Y-82576714D01*
X46597619Y-82524333D01*
X46545238Y-82498142D01*
X46466666Y-82498142D01*
X46414285Y-82524333D01*
X46388095Y-82550523D01*
X46885714Y-82498142D02*
X46885714Y-82864809D01*
X46885714Y-82550523D02*
X46911904Y-82524333D01*
X46964285Y-82498142D01*
X47042857Y-82498142D01*
X47095238Y-82524333D01*
X47121428Y-82576714D01*
X47121428Y-82864809D01*
X47383333Y-82864809D02*
X47383333Y-82498142D01*
X47383333Y-82314809D02*
X47357142Y-82341000D01*
X47383333Y-82367190D01*
X47409523Y-82341000D01*
X47383333Y-82314809D01*
X47383333Y-82367190D01*
X47880952Y-82838619D02*
X47828571Y-82864809D01*
X47723809Y-82864809D01*
X47671428Y-82838619D01*
X47645238Y-82812428D01*
X47619047Y-82760047D01*
X47619047Y-82602904D01*
X47645238Y-82550523D01*
X47671428Y-82524333D01*
X47723809Y-82498142D01*
X47828571Y-82498142D01*
X47880952Y-82524333D01*
X48535714Y-82314809D02*
X48535714Y-82760047D01*
X48561904Y-82812428D01*
X48588095Y-82838619D01*
X48640476Y-82864809D01*
X48745238Y-82864809D01*
X48797619Y-82838619D01*
X48823809Y-82812428D01*
X48850000Y-82760047D01*
X48850000Y-82314809D01*
X49111904Y-82498142D02*
X49111904Y-82864809D01*
X49111904Y-82550523D02*
X49138095Y-82524333D01*
X49190476Y-82498142D01*
X49269047Y-82498142D01*
X49321428Y-82524333D01*
X49347619Y-82576714D01*
X49347619Y-82864809D01*
X49609523Y-82864809D02*
X49609523Y-82498142D01*
X49609523Y-82314809D02*
X49583333Y-82341000D01*
X49609523Y-82367190D01*
X49635714Y-82341000D01*
X49609523Y-82314809D01*
X49609523Y-82367190D01*
X49819047Y-82498142D02*
X49950000Y-82864809D01*
X50080952Y-82498142D01*
X50500000Y-82838619D02*
X50447619Y-82864809D01*
X50342857Y-82864809D01*
X50290476Y-82838619D01*
X50264285Y-82786238D01*
X50264285Y-82576714D01*
X50290476Y-82524333D01*
X50342857Y-82498142D01*
X50447619Y-82498142D01*
X50500000Y-82524333D01*
X50526190Y-82576714D01*
X50526190Y-82629095D01*
X50264285Y-82681476D01*
X50761904Y-82864809D02*
X50761904Y-82498142D01*
X50761904Y-82602904D02*
X50788095Y-82550523D01*
X50814285Y-82524333D01*
X50866666Y-82498142D01*
X50919047Y-82498142D01*
X51076190Y-82838619D02*
X51128571Y-82864809D01*
X51233333Y-82864809D01*
X51285714Y-82838619D01*
X51311904Y-82786238D01*
X51311904Y-82760047D01*
X51285714Y-82707666D01*
X51233333Y-82681476D01*
X51154761Y-82681476D01*
X51102380Y-82655285D01*
X51076190Y-82602904D01*
X51076190Y-82576714D01*
X51102380Y-82524333D01*
X51154761Y-82498142D01*
X51233333Y-82498142D01*
X51285714Y-82524333D01*
X51547619Y-82864809D02*
X51547619Y-82498142D01*
X51547619Y-82314809D02*
X51521428Y-82341000D01*
X51547619Y-82367190D01*
X51573809Y-82341000D01*
X51547619Y-82314809D01*
X51547619Y-82367190D01*
X51730952Y-82498142D02*
X51940476Y-82498142D01*
X51809523Y-82314809D02*
X51809523Y-82786238D01*
X51835714Y-82838619D01*
X51888095Y-82864809D01*
X51940476Y-82864809D01*
X52071428Y-82498142D02*
X52202380Y-82864809D01*
X52333333Y-82498142D02*
X52202380Y-82864809D01*
X52149999Y-82995761D01*
X52123809Y-83021952D01*
X52071428Y-83048142D01*
X34523809Y-83814809D02*
X34523809Y-83264809D01*
X34654761Y-83264809D01*
X34733333Y-83291000D01*
X34785714Y-83343380D01*
X34811904Y-83395761D01*
X34838095Y-83500523D01*
X34838095Y-83579095D01*
X34811904Y-83683857D01*
X34785714Y-83736238D01*
X34733333Y-83788619D01*
X34654761Y-83814809D01*
X34523809Y-83814809D01*
X35283333Y-83788619D02*
X35230952Y-83814809D01*
X35126190Y-83814809D01*
X35073809Y-83788619D01*
X35047619Y-83736238D01*
X35047619Y-83526714D01*
X35073809Y-83474333D01*
X35126190Y-83448142D01*
X35230952Y-83448142D01*
X35283333Y-83474333D01*
X35309523Y-83526714D01*
X35309523Y-83579095D01*
X35047619Y-83631476D01*
X35545238Y-83448142D02*
X35545238Y-83998142D01*
X35545238Y-83474333D02*
X35597619Y-83448142D01*
X35702380Y-83448142D01*
X35754761Y-83474333D01*
X35780952Y-83500523D01*
X35807142Y-83552904D01*
X35807142Y-83710047D01*
X35780952Y-83762428D01*
X35754761Y-83788619D01*
X35702380Y-83814809D01*
X35597619Y-83814809D01*
X35545238Y-83788619D01*
X35964285Y-83448142D02*
X36173809Y-83448142D01*
X36042857Y-83264809D02*
X36042857Y-83736238D01*
X36069047Y-83788619D01*
X36121428Y-83814809D01*
X36173809Y-83814809D01*
X36357142Y-83762428D02*
X36383333Y-83788619D01*
X36357142Y-83814809D01*
X36330952Y-83788619D01*
X36357142Y-83762428D01*
X36357142Y-83814809D01*
X37116666Y-83814809D02*
X37064285Y-83788619D01*
X37038095Y-83762428D01*
X37011904Y-83710047D01*
X37011904Y-83552904D01*
X37038095Y-83500523D01*
X37064285Y-83474333D01*
X37116666Y-83448142D01*
X37195238Y-83448142D01*
X37247619Y-83474333D01*
X37273809Y-83500523D01*
X37300000Y-83552904D01*
X37300000Y-83710047D01*
X37273809Y-83762428D01*
X37247619Y-83788619D01*
X37195238Y-83814809D01*
X37116666Y-83814809D01*
X37457142Y-83448142D02*
X37666666Y-83448142D01*
X37535714Y-83814809D02*
X37535714Y-83343380D01*
X37561904Y-83291000D01*
X37614285Y-83264809D01*
X37666666Y-83264809D01*
X38269047Y-83526714D02*
X38452380Y-83526714D01*
X38530952Y-83814809D02*
X38269047Y-83814809D01*
X38269047Y-83264809D01*
X38530952Y-83264809D01*
X38845238Y-83814809D02*
X38792857Y-83788619D01*
X38766666Y-83736238D01*
X38766666Y-83264809D01*
X39264285Y-83788619D02*
X39211904Y-83814809D01*
X39107142Y-83814809D01*
X39054761Y-83788619D01*
X39028571Y-83736238D01*
X39028571Y-83526714D01*
X39054761Y-83474333D01*
X39107142Y-83448142D01*
X39211904Y-83448142D01*
X39264285Y-83474333D01*
X39290476Y-83526714D01*
X39290476Y-83579095D01*
X39028571Y-83631476D01*
X39761904Y-83788619D02*
X39709523Y-83814809D01*
X39604761Y-83814809D01*
X39552380Y-83788619D01*
X39526190Y-83762428D01*
X39500000Y-83710047D01*
X39500000Y-83552904D01*
X39526190Y-83500523D01*
X39552380Y-83474333D01*
X39604761Y-83448142D01*
X39709523Y-83448142D01*
X39761904Y-83474333D01*
X39919047Y-83448142D02*
X40128571Y-83448142D01*
X39997619Y-83264809D02*
X39997619Y-83736238D01*
X40023809Y-83788619D01*
X40076190Y-83814809D01*
X40128571Y-83814809D01*
X40311904Y-83814809D02*
X40311904Y-83448142D01*
X40311904Y-83552904D02*
X40338095Y-83500523D01*
X40364285Y-83474333D01*
X40416666Y-83448142D01*
X40469047Y-83448142D01*
X40730952Y-83814809D02*
X40678571Y-83788619D01*
X40652380Y-83762428D01*
X40626190Y-83710047D01*
X40626190Y-83552904D01*
X40652380Y-83500523D01*
X40678571Y-83474333D01*
X40730952Y-83448142D01*
X40809523Y-83448142D01*
X40861904Y-83474333D01*
X40888095Y-83500523D01*
X40914285Y-83552904D01*
X40914285Y-83710047D01*
X40888095Y-83762428D01*
X40861904Y-83788619D01*
X40809523Y-83814809D01*
X40730952Y-83814809D01*
X41150000Y-83448142D02*
X41150000Y-83814809D01*
X41150000Y-83500523D02*
X41176190Y-83474333D01*
X41228571Y-83448142D01*
X41307142Y-83448142D01*
X41359523Y-83474333D01*
X41385714Y-83526714D01*
X41385714Y-83814809D01*
X41647619Y-83814809D02*
X41647619Y-83448142D01*
X41647619Y-83264809D02*
X41621428Y-83291000D01*
X41647619Y-83317190D01*
X41673809Y-83291000D01*
X41647619Y-83264809D01*
X41647619Y-83317190D01*
X42145238Y-83788619D02*
X42092857Y-83814809D01*
X41988095Y-83814809D01*
X41935714Y-83788619D01*
X41909523Y-83762428D01*
X41883333Y-83710047D01*
X41883333Y-83552904D01*
X41909523Y-83500523D01*
X41935714Y-83474333D01*
X41988095Y-83448142D01*
X42092857Y-83448142D01*
X42145238Y-83474333D01*
X43035714Y-83814809D02*
X43035714Y-83526714D01*
X43009523Y-83474333D01*
X42957142Y-83448142D01*
X42852380Y-83448142D01*
X42800000Y-83474333D01*
X43035714Y-83788619D02*
X42983333Y-83814809D01*
X42852380Y-83814809D01*
X42800000Y-83788619D01*
X42773809Y-83736238D01*
X42773809Y-83683857D01*
X42800000Y-83631476D01*
X42852380Y-83605285D01*
X42983333Y-83605285D01*
X43035714Y-83579095D01*
X43297619Y-83448142D02*
X43297619Y-83814809D01*
X43297619Y-83500523D02*
X43323809Y-83474333D01*
X43376190Y-83448142D01*
X43454761Y-83448142D01*
X43507142Y-83474333D01*
X43533333Y-83526714D01*
X43533333Y-83814809D01*
X44030952Y-83814809D02*
X44030952Y-83264809D01*
X44030952Y-83788619D02*
X43978571Y-83814809D01*
X43873809Y-83814809D01*
X43821428Y-83788619D01*
X43795238Y-83762428D01*
X43769047Y-83710047D01*
X43769047Y-83552904D01*
X43795238Y-83500523D01*
X43821428Y-83474333D01*
X43873809Y-83448142D01*
X43978571Y-83448142D01*
X44030952Y-83474333D01*
X44711904Y-83814809D02*
X44711904Y-83264809D01*
X44973809Y-83448142D02*
X44973809Y-83814809D01*
X44973809Y-83500523D02*
X45000000Y-83474333D01*
X45052380Y-83448142D01*
X45130952Y-83448142D01*
X45183333Y-83474333D01*
X45209523Y-83526714D01*
X45209523Y-83814809D01*
X45392857Y-83448142D02*
X45602380Y-83448142D01*
X45471428Y-83814809D02*
X45471428Y-83343380D01*
X45497619Y-83291000D01*
X45550000Y-83264809D01*
X45602380Y-83264809D01*
X45864285Y-83814809D02*
X45811904Y-83788619D01*
X45785714Y-83762428D01*
X45759523Y-83710047D01*
X45759523Y-83552904D01*
X45785714Y-83500523D01*
X45811904Y-83474333D01*
X45864285Y-83448142D01*
X45942857Y-83448142D01*
X45995238Y-83474333D01*
X46021428Y-83500523D01*
X46047619Y-83552904D01*
X46047619Y-83710047D01*
X46021428Y-83762428D01*
X45995238Y-83788619D01*
X45942857Y-83814809D01*
X45864285Y-83814809D01*
X46283333Y-83814809D02*
X46283333Y-83448142D01*
X46283333Y-83552904D02*
X46309523Y-83500523D01*
X46335714Y-83474333D01*
X46388095Y-83448142D01*
X46440476Y-83448142D01*
X46623809Y-83814809D02*
X46623809Y-83448142D01*
X46623809Y-83500523D02*
X46650000Y-83474333D01*
X46702380Y-83448142D01*
X46780952Y-83448142D01*
X46833333Y-83474333D01*
X46859523Y-83526714D01*
X46859523Y-83814809D01*
X46859523Y-83526714D02*
X46885714Y-83474333D01*
X46938095Y-83448142D01*
X47016666Y-83448142D01*
X47069047Y-83474333D01*
X47095238Y-83526714D01*
X47095238Y-83814809D01*
X47592857Y-83814809D02*
X47592857Y-83526714D01*
X47566666Y-83474333D01*
X47514285Y-83448142D01*
X47409523Y-83448142D01*
X47357142Y-83474333D01*
X47592857Y-83788619D02*
X47540476Y-83814809D01*
X47409523Y-83814809D01*
X47357142Y-83788619D01*
X47330952Y-83736238D01*
X47330952Y-83683857D01*
X47357142Y-83631476D01*
X47409523Y-83605285D01*
X47540476Y-83605285D01*
X47592857Y-83579095D01*
X47776190Y-83448142D02*
X47985714Y-83448142D01*
X47854761Y-83264809D02*
X47854761Y-83736238D01*
X47880952Y-83788619D01*
X47933333Y-83814809D01*
X47985714Y-83814809D01*
X48169047Y-83814809D02*
X48169047Y-83448142D01*
X48169047Y-83264809D02*
X48142857Y-83291000D01*
X48169047Y-83317190D01*
X48195238Y-83291000D01*
X48169047Y-83264809D01*
X48169047Y-83317190D01*
X48509523Y-83814809D02*
X48457142Y-83788619D01*
X48430952Y-83762428D01*
X48404761Y-83710047D01*
X48404761Y-83552904D01*
X48430952Y-83500523D01*
X48457142Y-83474333D01*
X48509523Y-83448142D01*
X48588095Y-83448142D01*
X48640476Y-83474333D01*
X48666666Y-83500523D01*
X48692857Y-83552904D01*
X48692857Y-83710047D01*
X48666666Y-83762428D01*
X48640476Y-83788619D01*
X48588095Y-83814809D01*
X48509523Y-83814809D01*
X48928571Y-83448142D02*
X48928571Y-83814809D01*
X48928571Y-83500523D02*
X48954761Y-83474333D01*
X49007142Y-83448142D01*
X49085714Y-83448142D01*
X49138095Y-83474333D01*
X49164285Y-83526714D01*
X49164285Y-83814809D01*
X49845238Y-83526714D02*
X50028571Y-83526714D01*
X50107142Y-83814809D02*
X49845238Y-83814809D01*
X49845238Y-83264809D01*
X50107142Y-83264809D01*
X50342857Y-83448142D02*
X50342857Y-83814809D01*
X50342857Y-83500523D02*
X50369047Y-83474333D01*
X50421428Y-83448142D01*
X50500000Y-83448142D01*
X50552380Y-83474333D01*
X50578571Y-83526714D01*
X50578571Y-83814809D01*
X51076190Y-83448142D02*
X51076190Y-83893380D01*
X51050000Y-83945761D01*
X51023809Y-83971952D01*
X50971428Y-83998142D01*
X50892857Y-83998142D01*
X50840476Y-83971952D01*
X51076190Y-83788619D02*
X51023809Y-83814809D01*
X50919047Y-83814809D01*
X50866666Y-83788619D01*
X50840476Y-83762428D01*
X50814285Y-83710047D01*
X50814285Y-83552904D01*
X50840476Y-83500523D01*
X50866666Y-83474333D01*
X50919047Y-83448142D01*
X51023809Y-83448142D01*
X51076190Y-83474333D01*
X51338095Y-83814809D02*
X51338095Y-83448142D01*
X51338095Y-83264809D02*
X51311904Y-83291000D01*
X51338095Y-83317190D01*
X51364285Y-83291000D01*
X51338095Y-83264809D01*
X51338095Y-83317190D01*
X51600000Y-83448142D02*
X51600000Y-83814809D01*
X51600000Y-83500523D02*
X51626190Y-83474333D01*
X51678571Y-83448142D01*
X51757142Y-83448142D01*
X51809523Y-83474333D01*
X51835714Y-83526714D01*
X51835714Y-83814809D01*
X52307142Y-83788619D02*
X52254761Y-83814809D01*
X52150000Y-83814809D01*
X52097619Y-83788619D01*
X52071428Y-83736238D01*
X52071428Y-83526714D01*
X52097619Y-83474333D01*
X52150000Y-83448142D01*
X52254761Y-83448142D01*
X52307142Y-83474333D01*
X52333333Y-83526714D01*
X52333333Y-83579095D01*
X52071428Y-83631476D01*
X52778571Y-83788619D02*
X52726190Y-83814809D01*
X52621428Y-83814809D01*
X52569047Y-83788619D01*
X52542857Y-83736238D01*
X52542857Y-83526714D01*
X52569047Y-83474333D01*
X52621428Y-83448142D01*
X52726190Y-83448142D01*
X52778571Y-83474333D01*
X52804761Y-83526714D01*
X52804761Y-83579095D01*
X52542857Y-83631476D01*
X53040476Y-83814809D02*
X53040476Y-83448142D01*
X53040476Y-83552904D02*
X53066666Y-83500523D01*
X53092857Y-83474333D01*
X53145238Y-83448142D01*
X53197619Y-83448142D01*
X53380952Y-83814809D02*
X53380952Y-83448142D01*
X53380952Y-83264809D02*
X53354761Y-83291000D01*
X53380952Y-83317190D01*
X53407142Y-83291000D01*
X53380952Y-83264809D01*
X53380952Y-83317190D01*
X53642857Y-83448142D02*
X53642857Y-83814809D01*
X53642857Y-83500523D02*
X53669047Y-83474333D01*
X53721428Y-83448142D01*
X53800000Y-83448142D01*
X53852380Y-83474333D01*
X53878571Y-83526714D01*
X53878571Y-83814809D01*
X54376190Y-83448142D02*
X54376190Y-83893380D01*
X54350000Y-83945761D01*
X54323809Y-83971952D01*
X54271428Y-83998142D01*
X54192857Y-83998142D01*
X54140476Y-83971952D01*
X54376190Y-83788619D02*
X54323809Y-83814809D01*
X54219047Y-83814809D01*
X54166666Y-83788619D01*
X54140476Y-83762428D01*
X54114285Y-83710047D01*
X54114285Y-83552904D01*
X54140476Y-83500523D01*
X54166666Y-83474333D01*
X54219047Y-83448142D01*
X54323809Y-83448142D01*
X54376190Y-83474333D01*
X40927380Y-84476714D02*
X41110714Y-84476714D01*
X41189285Y-84764809D02*
X40927380Y-84764809D01*
X40927380Y-84214809D01*
X41189285Y-84214809D01*
X41425000Y-84764809D02*
X41425000Y-84214809D01*
X41686904Y-84476714D02*
X41870238Y-84476714D01*
X41948809Y-84764809D02*
X41686904Y-84764809D01*
X41686904Y-84214809D01*
X41948809Y-84214809D01*
X42446428Y-84214809D02*
X42184523Y-84214809D01*
X42158333Y-84476714D01*
X42184523Y-84450523D01*
X42236904Y-84424333D01*
X42367857Y-84424333D01*
X42420238Y-84450523D01*
X42446428Y-84476714D01*
X42472619Y-84529095D01*
X42472619Y-84660047D01*
X42446428Y-84712428D01*
X42420238Y-84738619D01*
X42367857Y-84764809D01*
X42236904Y-84764809D01*
X42184523Y-84738619D01*
X42158333Y-84712428D01*
X42970238Y-84214809D02*
X42708333Y-84214809D01*
X42682142Y-84476714D01*
X42708333Y-84450523D01*
X42760714Y-84424333D01*
X42891666Y-84424333D01*
X42944047Y-84450523D01*
X42970238Y-84476714D01*
X42996428Y-84529095D01*
X42996428Y-84660047D01*
X42970238Y-84712428D01*
X42944047Y-84738619D01*
X42891666Y-84764809D01*
X42760714Y-84764809D01*
X42708333Y-84738619D01*
X42682142Y-84712428D01*
X43179761Y-84214809D02*
X43520238Y-84214809D01*
X43336904Y-84424333D01*
X43415476Y-84424333D01*
X43467857Y-84450523D01*
X43494047Y-84476714D01*
X43520238Y-84529095D01*
X43520238Y-84660047D01*
X43494047Y-84712428D01*
X43467857Y-84738619D01*
X43415476Y-84764809D01*
X43258333Y-84764809D01*
X43205952Y-84738619D01*
X43179761Y-84712428D01*
X44175000Y-84764809D02*
X44175000Y-84214809D01*
X44541666Y-84214809D02*
X44646428Y-84214809D01*
X44698809Y-84241000D01*
X44751190Y-84293380D01*
X44777380Y-84398142D01*
X44777380Y-84581476D01*
X44751190Y-84686238D01*
X44698809Y-84738619D01*
X44646428Y-84764809D01*
X44541666Y-84764809D01*
X44489285Y-84738619D01*
X44436904Y-84686238D01*
X44410714Y-84581476D01*
X44410714Y-84398142D01*
X44436904Y-84293380D01*
X44489285Y-84241000D01*
X44541666Y-84214809D01*
X44934523Y-84214809D02*
X45248809Y-84214809D01*
X45091666Y-84764809D02*
X45091666Y-84214809D01*
X46034523Y-84476714D02*
X46113095Y-84502904D01*
X46139285Y-84529095D01*
X46165476Y-84581476D01*
X46165476Y-84660047D01*
X46139285Y-84712428D01*
X46113095Y-84738619D01*
X46060714Y-84764809D01*
X45851190Y-84764809D01*
X45851190Y-84214809D01*
X46034523Y-84214809D01*
X46086904Y-84241000D01*
X46113095Y-84267190D01*
X46139285Y-84319571D01*
X46139285Y-84371952D01*
X46113095Y-84424333D01*
X46086904Y-84450523D01*
X46034523Y-84476714D01*
X45851190Y-84476714D01*
X46479761Y-84764809D02*
X46427380Y-84738619D01*
X46401190Y-84712428D01*
X46375000Y-84660047D01*
X46375000Y-84502904D01*
X46401190Y-84450523D01*
X46427380Y-84424333D01*
X46479761Y-84398142D01*
X46558333Y-84398142D01*
X46610714Y-84424333D01*
X46636904Y-84450523D01*
X46663095Y-84502904D01*
X46663095Y-84660047D01*
X46636904Y-84712428D01*
X46610714Y-84738619D01*
X46558333Y-84764809D01*
X46479761Y-84764809D01*
X47134523Y-84764809D02*
X47134523Y-84476714D01*
X47108333Y-84424333D01*
X47055952Y-84398142D01*
X46951190Y-84398142D01*
X46898809Y-84424333D01*
X47134523Y-84738619D02*
X47082142Y-84764809D01*
X46951190Y-84764809D01*
X46898809Y-84738619D01*
X46872619Y-84686238D01*
X46872619Y-84633857D01*
X46898809Y-84581476D01*
X46951190Y-84555285D01*
X47082142Y-84555285D01*
X47134523Y-84529095D01*
X47396428Y-84764809D02*
X47396428Y-84398142D01*
X47396428Y-84502904D02*
X47422619Y-84450523D01*
X47448809Y-84424333D01*
X47501190Y-84398142D01*
X47553571Y-84398142D01*
X47972619Y-84764809D02*
X47972619Y-84214809D01*
X47972619Y-84738619D02*
X47920238Y-84764809D01*
X47815476Y-84764809D01*
X47763095Y-84738619D01*
X47736904Y-84712428D01*
X47710714Y-84660047D01*
X47710714Y-84502904D01*
X47736904Y-84450523D01*
X47763095Y-84424333D01*
X47815476Y-84398142D01*
X47920238Y-84398142D01*
X47972619Y-84424333D01*
D12*
G04 #@! TO.C,D1*
X29660000Y-41910462D02*
G75*
G03X24110000Y-40365170I-2990000J462D01*
G01*
X29660000Y-41909538D02*
G75*
G02X24110000Y-43454830I-2990000J-462D01*
G01*
X29170000Y-41910000D02*
G75*
G03X29170000Y-41910000I-2500000J0D01*
G01*
X24110000Y-40365000D02*
X24110000Y-43455000D01*
G04 #@! TO.C,D2*
X82570000Y-72665000D02*
X82570000Y-69575000D01*
X82510000Y-71120000D02*
G75*
G03X82510000Y-71120000I-2500000J0D01*
G01*
X77020000Y-71120462D02*
G75*
G02X82570000Y-69575170I2990000J462D01*
G01*
X77020000Y-71119538D02*
G75*
G03X82570000Y-72664830I2990000J-462D01*
G01*
D13*
G04 #@! TO.C,U2*
X61645800Y-56667400D02*
X83388200Y-56667400D01*
X61645800Y-45770800D02*
X83388200Y-45770800D01*
X61645800Y-45770800D02*
X61645800Y-56642000D01*
X83388200Y-56667400D02*
X83388200Y-45821600D01*
X59182000Y-62992000D02*
X85852000Y-62992000D01*
X85852000Y-62992000D02*
X86106000Y-62992000D01*
X86106000Y-62992000D02*
X86106000Y-43688000D01*
X86106000Y-43688000D02*
X59182000Y-43688000D01*
X59182000Y-43688000D02*
X59182000Y-62992000D01*
D12*
X77784000Y-42224000D02*
X77784000Y-39564000D01*
X70104000Y-42224000D02*
X77784000Y-42224000D01*
X70104000Y-39564000D02*
X77784000Y-39564000D01*
X70104000Y-42224000D02*
X70104000Y-39564000D01*
X68834000Y-42224000D02*
X67504000Y-42224000D01*
X67504000Y-42224000D02*
X67504000Y-40894000D01*
D13*
X61645800Y-45770800D02*
X83388200Y-45770800D01*
X61645800Y-45770800D02*
X83388200Y-45770800D01*
X61645800Y-45770800D02*
X83388200Y-45770800D01*
X61645800Y-45770800D02*
X83388200Y-45770800D01*
X61645800Y-45897800D02*
X83388200Y-45897800D01*
X61645800Y-45897800D02*
X83388200Y-45897800D01*
X61645800Y-45897800D02*
X83388200Y-45897800D01*
X61645800Y-45897800D02*
X83388200Y-45897800D01*
X61645800Y-45897800D02*
X83388200Y-45897800D01*
X61645800Y-46024800D02*
X83388200Y-46024800D01*
X61645800Y-46024800D02*
X83388200Y-46024800D01*
X61645800Y-46024800D02*
X83388200Y-46024800D01*
X61645800Y-46024800D02*
X83388200Y-46024800D01*
X61645800Y-46024800D02*
X83388200Y-46024800D01*
X61645800Y-46151800D02*
X83388200Y-46151800D01*
X61645800Y-46151800D02*
X83388200Y-46151800D01*
X61645800Y-46151800D02*
X83388200Y-46151800D01*
X61645800Y-46151800D02*
X83388200Y-46151800D01*
X61645800Y-46151800D02*
X83388200Y-46151800D01*
X61645800Y-46278800D02*
X83388200Y-46278800D01*
X61645800Y-46278800D02*
X83388200Y-46278800D01*
X61645800Y-46278800D02*
X83388200Y-46278800D01*
X61645800Y-46278800D02*
X83388200Y-46278800D01*
X61645800Y-46278800D02*
X83388200Y-46278800D01*
X61645800Y-46405800D02*
X83388200Y-46405800D01*
X61645800Y-46405800D02*
X83388200Y-46405800D01*
X61645800Y-46405800D02*
X83388200Y-46405800D01*
X61645800Y-46405800D02*
X83388200Y-46405800D01*
X61645800Y-46405800D02*
X83388200Y-46405800D01*
X61645800Y-46532800D02*
X83388200Y-46532800D01*
X61645800Y-46532800D02*
X83388200Y-46532800D01*
X61645800Y-46532800D02*
X83388200Y-46532800D01*
X61645800Y-46532800D02*
X83388200Y-46532800D01*
X61645800Y-46532800D02*
X83388200Y-46532800D01*
X61645800Y-46659800D02*
X83388200Y-46659800D01*
X61645800Y-46659800D02*
X83388200Y-46659800D01*
X61645800Y-46659800D02*
X83388200Y-46659800D01*
X61645800Y-46659800D02*
X83388200Y-46659800D01*
X61645800Y-46659800D02*
X83388200Y-46659800D01*
X61645800Y-46786800D02*
X83388200Y-46786800D01*
X61645800Y-46786800D02*
X83388200Y-46786800D01*
X61645800Y-46786800D02*
X83388200Y-46786800D01*
X61645800Y-46786800D02*
X83388200Y-46786800D01*
X61645800Y-46786800D02*
X83388200Y-46786800D01*
X61645800Y-46913800D02*
X83388200Y-46913800D01*
X61645800Y-46913800D02*
X83388200Y-46913800D01*
X61645800Y-46913800D02*
X83388200Y-46913800D01*
X61645800Y-46913800D02*
X83388200Y-46913800D01*
X61645800Y-46913800D02*
X83388200Y-46913800D01*
X61645800Y-47040800D02*
X83388200Y-47040800D01*
X61645800Y-47040800D02*
X83388200Y-47040800D01*
X61645800Y-47040800D02*
X83388200Y-47040800D01*
X61645800Y-47040800D02*
X83388200Y-47040800D01*
X61645800Y-47040800D02*
X83388200Y-47040800D01*
X61645800Y-47167800D02*
X83388200Y-47167800D01*
X61645800Y-47167800D02*
X83388200Y-47167800D01*
X61645800Y-47167800D02*
X83388200Y-47167800D01*
X61645800Y-47167800D02*
X83388200Y-47167800D01*
X61645800Y-47167800D02*
X83388200Y-47167800D01*
X61645800Y-47294800D02*
X83388200Y-47294800D01*
X61645800Y-47294800D02*
X83388200Y-47294800D01*
X61645800Y-47294800D02*
X83388200Y-47294800D01*
X61645800Y-47294800D02*
X83388200Y-47294800D01*
X61645800Y-47294800D02*
X83388200Y-47294800D01*
X61645800Y-47421800D02*
X83388200Y-47421800D01*
X61645800Y-47421800D02*
X83388200Y-47421800D01*
X61645800Y-47421800D02*
X83388200Y-47421800D01*
X61645800Y-47421800D02*
X83388200Y-47421800D01*
X61645800Y-47421800D02*
X83388200Y-47421800D01*
X61645800Y-47548800D02*
X83388200Y-47548800D01*
X61645800Y-47548800D02*
X83388200Y-47548800D01*
X61645800Y-47548800D02*
X83388200Y-47548800D01*
X61645800Y-47548800D02*
X83388200Y-47548800D01*
X61645800Y-47548800D02*
X83388200Y-47548800D01*
X61645800Y-47675800D02*
X83388200Y-47675800D01*
X61645800Y-47675800D02*
X83388200Y-47675800D01*
X61645800Y-47675800D02*
X83388200Y-47675800D01*
X61645800Y-47675800D02*
X83388200Y-47675800D01*
X61645800Y-47675800D02*
X83388200Y-47675800D01*
X61645800Y-47802800D02*
X83388200Y-47802800D01*
X61645800Y-47802800D02*
X83388200Y-47802800D01*
X61645800Y-47802800D02*
X83388200Y-47802800D01*
X61645800Y-47802800D02*
X83388200Y-47802800D01*
X61645800Y-47802800D02*
X83388200Y-47802800D01*
X61645800Y-47929800D02*
X83388200Y-47929800D01*
X61645800Y-47929800D02*
X83388200Y-47929800D01*
X61645800Y-47929800D02*
X83388200Y-47929800D01*
X61645800Y-47929800D02*
X83388200Y-47929800D01*
X61645800Y-47929800D02*
X83388200Y-47929800D01*
X61645800Y-48056800D02*
X83388200Y-48056800D01*
X61645800Y-48056800D02*
X83388200Y-48056800D01*
X61645800Y-48056800D02*
X83388200Y-48056800D01*
X61645800Y-48056800D02*
X83388200Y-48056800D01*
X61645800Y-48056800D02*
X83388200Y-48056800D01*
X61645800Y-48183800D02*
X83388200Y-48183800D01*
X61645800Y-48183800D02*
X83388200Y-48183800D01*
X61645800Y-48183800D02*
X83388200Y-48183800D01*
X61645800Y-48183800D02*
X83388200Y-48183800D01*
X61645800Y-48183800D02*
X83388200Y-48183800D01*
X61645800Y-48310800D02*
X83388200Y-48310800D01*
X61645800Y-48310800D02*
X83388200Y-48310800D01*
X61645800Y-48310800D02*
X83388200Y-48310800D01*
X61645800Y-48310800D02*
X83388200Y-48310800D01*
X61645800Y-48310800D02*
X83388200Y-48310800D01*
X61645800Y-48437800D02*
X83388200Y-48437800D01*
X61645800Y-48437800D02*
X83388200Y-48437800D01*
X61645800Y-48437800D02*
X83388200Y-48437800D01*
X61645800Y-48437800D02*
X83388200Y-48437800D01*
X61645800Y-48437800D02*
X83388200Y-48437800D01*
X61645800Y-48564800D02*
X83388200Y-48564800D01*
X61645800Y-48564800D02*
X83388200Y-48564800D01*
X61645800Y-48564800D02*
X83388200Y-48564800D01*
X61645800Y-48564800D02*
X83388200Y-48564800D01*
X61645800Y-48564800D02*
X83388200Y-48564800D01*
X61645800Y-48691800D02*
X83388200Y-48691800D01*
X61645800Y-48691800D02*
X83388200Y-48691800D01*
X61645800Y-48691800D02*
X83388200Y-48691800D01*
X61645800Y-48691800D02*
X83388200Y-48691800D01*
X61645800Y-48691800D02*
X83388200Y-48691800D01*
X61645800Y-48818800D02*
X83388200Y-48818800D01*
X61645800Y-48818800D02*
X83388200Y-48818800D01*
X61645800Y-48818800D02*
X83388200Y-48818800D01*
X61645800Y-48818800D02*
X83388200Y-48818800D01*
X61645800Y-48818800D02*
X83388200Y-48818800D01*
X61645800Y-48945800D02*
X83388200Y-48945800D01*
X61645800Y-48945800D02*
X83388200Y-48945800D01*
X61645800Y-48945800D02*
X83388200Y-48945800D01*
X61645800Y-48945800D02*
X83388200Y-48945800D01*
X61645800Y-48945800D02*
X83388200Y-48945800D01*
X61645800Y-49072800D02*
X83388200Y-49072800D01*
X61645800Y-49072800D02*
X83388200Y-49072800D01*
X61645800Y-49072800D02*
X83388200Y-49072800D01*
X61645800Y-49072800D02*
X83388200Y-49072800D01*
X61645800Y-49072800D02*
X83388200Y-49072800D01*
X61645800Y-49199800D02*
X83388200Y-49199800D01*
X61645800Y-49199800D02*
X83388200Y-49199800D01*
X61645800Y-49199800D02*
X83388200Y-49199800D01*
X61645800Y-49199800D02*
X83388200Y-49199800D01*
X61645800Y-49199800D02*
X83388200Y-49199800D01*
X61645800Y-49326800D02*
X83388200Y-49326800D01*
X61645800Y-49326800D02*
X83388200Y-49326800D01*
X61645800Y-49326800D02*
X83388200Y-49326800D01*
X61645800Y-49326800D02*
X83388200Y-49326800D01*
X61645800Y-49326800D02*
X83388200Y-49326800D01*
X61645800Y-49453800D02*
X83388200Y-49453800D01*
X61645800Y-49453800D02*
X83388200Y-49453800D01*
X61645800Y-49453800D02*
X83388200Y-49453800D01*
X61645800Y-49453800D02*
X83388200Y-49453800D01*
X61645800Y-49453800D02*
X83388200Y-49453800D01*
X61645800Y-49580800D02*
X83388200Y-49580800D01*
X61645800Y-49580800D02*
X83388200Y-49580800D01*
X61645800Y-49580800D02*
X83388200Y-49580800D01*
X61645800Y-49580800D02*
X83388200Y-49580800D01*
X61645800Y-49580800D02*
X83388200Y-49580800D01*
X61645800Y-49707800D02*
X83388200Y-49707800D01*
X61645800Y-49707800D02*
X83388200Y-49707800D01*
X61645800Y-49707800D02*
X83388200Y-49707800D01*
X61645800Y-49707800D02*
X83388200Y-49707800D01*
X61645800Y-49707800D02*
X83388200Y-49707800D01*
X61645800Y-49834800D02*
X83388200Y-49834800D01*
X61645800Y-49834800D02*
X83388200Y-49834800D01*
X61645800Y-49834800D02*
X83388200Y-49834800D01*
X61645800Y-49834800D02*
X83388200Y-49834800D01*
X61645800Y-49834800D02*
X83388200Y-49834800D01*
X61645800Y-49961800D02*
X83388200Y-49961800D01*
X61645800Y-49961800D02*
X83388200Y-49961800D01*
X61645800Y-49961800D02*
X83388200Y-49961800D01*
X61645800Y-49961800D02*
X83388200Y-49961800D01*
X61645800Y-49961800D02*
X83388200Y-49961800D01*
X61645800Y-50088800D02*
X83388200Y-50088800D01*
X61645800Y-50088800D02*
X83388200Y-50088800D01*
X61645800Y-50088800D02*
X83388200Y-50088800D01*
X61645800Y-50088800D02*
X83388200Y-50088800D01*
X61645800Y-50088800D02*
X83388200Y-50088800D01*
X61645800Y-50215800D02*
X83388200Y-50215800D01*
X61645800Y-50215800D02*
X83388200Y-50215800D01*
X61645800Y-50215800D02*
X83388200Y-50215800D01*
X61645800Y-50215800D02*
X83388200Y-50215800D01*
X61645800Y-50215800D02*
X83388200Y-50215800D01*
X61645800Y-50342800D02*
X83388200Y-50342800D01*
X61645800Y-50342800D02*
X83388200Y-50342800D01*
X61645800Y-50342800D02*
X83388200Y-50342800D01*
X61645800Y-50342800D02*
X83388200Y-50342800D01*
X61645800Y-50342800D02*
X83388200Y-50342800D01*
X61645800Y-50469800D02*
X83388200Y-50469800D01*
X61645800Y-50469800D02*
X83388200Y-50469800D01*
X61645800Y-50469800D02*
X83388200Y-50469800D01*
X61645800Y-50469800D02*
X83388200Y-50469800D01*
X61645800Y-50469800D02*
X83388200Y-50469800D01*
X61645800Y-50596800D02*
X83388200Y-50596800D01*
X61645800Y-50596800D02*
X83388200Y-50596800D01*
X61645800Y-50596800D02*
X83388200Y-50596800D01*
X61645800Y-50596800D02*
X83388200Y-50596800D01*
X61645800Y-50596800D02*
X83388200Y-50596800D01*
X61645800Y-50723800D02*
X83388200Y-50723800D01*
X61645800Y-50723800D02*
X83388200Y-50723800D01*
X61645800Y-50723800D02*
X83388200Y-50723800D01*
X61645800Y-50723800D02*
X83388200Y-50723800D01*
X61645800Y-50723800D02*
X83388200Y-50723800D01*
X61645800Y-50850800D02*
X83388200Y-50850800D01*
X61645800Y-50850800D02*
X83388200Y-50850800D01*
X61645800Y-50850800D02*
X83388200Y-50850800D01*
X61645800Y-50850800D02*
X83388200Y-50850800D01*
X61645800Y-50850800D02*
X83388200Y-50850800D01*
X61645800Y-50977800D02*
X83388200Y-50977800D01*
X61645800Y-50977800D02*
X83388200Y-50977800D01*
X61645800Y-50977800D02*
X83388200Y-50977800D01*
X61645800Y-50977800D02*
X83388200Y-50977800D01*
X61645800Y-50977800D02*
X83388200Y-50977800D01*
X61645800Y-51104800D02*
X83388200Y-51104800D01*
X61645800Y-51104800D02*
X83388200Y-51104800D01*
X61645800Y-51104800D02*
X83388200Y-51104800D01*
X61645800Y-51104800D02*
X83388200Y-51104800D01*
X61645800Y-51104800D02*
X83388200Y-51104800D01*
X61645800Y-51231800D02*
X83388200Y-51231800D01*
X61645800Y-51231800D02*
X83388200Y-51231800D01*
X61645800Y-51231800D02*
X83388200Y-51231800D01*
X61645800Y-51231800D02*
X83388200Y-51231800D01*
X61645800Y-51231800D02*
X83388200Y-51231800D01*
X61645800Y-51358800D02*
X83388200Y-51358800D01*
X61645800Y-51358800D02*
X83388200Y-51358800D01*
X61645800Y-51358800D02*
X83388200Y-51358800D01*
X61645800Y-51358800D02*
X83388200Y-51358800D01*
X61645800Y-51358800D02*
X83388200Y-51358800D01*
X61645800Y-51485800D02*
X83388200Y-51485800D01*
X61645800Y-51485800D02*
X83388200Y-51485800D01*
X61645800Y-51485800D02*
X83388200Y-51485800D01*
X61645800Y-51485800D02*
X83388200Y-51485800D01*
X61645800Y-51485800D02*
X83388200Y-51485800D01*
X61645800Y-51612800D02*
X83388200Y-51612800D01*
X61645800Y-51612800D02*
X83388200Y-51612800D01*
X61645800Y-51612800D02*
X83388200Y-51612800D01*
X61645800Y-51612800D02*
X83388200Y-51612800D01*
X61645800Y-51612800D02*
X83388200Y-51612800D01*
X61645800Y-51739800D02*
X83388200Y-51739800D01*
X61645800Y-51739800D02*
X83388200Y-51739800D01*
X61645800Y-51739800D02*
X83388200Y-51739800D01*
X61645800Y-51739800D02*
X83388200Y-51739800D01*
X61645800Y-51739800D02*
X83388200Y-51739800D01*
X61645800Y-51866800D02*
X83388200Y-51866800D01*
X61645800Y-51866800D02*
X83388200Y-51866800D01*
X61645800Y-51866800D02*
X83388200Y-51866800D01*
X61645800Y-51866800D02*
X83388200Y-51866800D01*
X61645800Y-51866800D02*
X83388200Y-51866800D01*
X61645800Y-51993800D02*
X83388200Y-51993800D01*
X61645800Y-51993800D02*
X83388200Y-51993800D01*
X61645800Y-51993800D02*
X83388200Y-51993800D01*
X61645800Y-51993800D02*
X83388200Y-51993800D01*
X61645800Y-51993800D02*
X83388200Y-51993800D01*
X61645800Y-52120800D02*
X83388200Y-52120800D01*
X61645800Y-52120800D02*
X83388200Y-52120800D01*
X61645800Y-52120800D02*
X83388200Y-52120800D01*
X61645800Y-52120800D02*
X83388200Y-52120800D01*
X61645800Y-52120800D02*
X83388200Y-52120800D01*
X61645800Y-52247800D02*
X83388200Y-52247800D01*
X61645800Y-52247800D02*
X83388200Y-52247800D01*
X61645800Y-52247800D02*
X83388200Y-52247800D01*
X61645800Y-52247800D02*
X83388200Y-52247800D01*
X61645800Y-52247800D02*
X83388200Y-52247800D01*
X61645800Y-52374800D02*
X83388200Y-52374800D01*
X61645800Y-52374800D02*
X83388200Y-52374800D01*
X61645800Y-52374800D02*
X83388200Y-52374800D01*
X61645800Y-52374800D02*
X83388200Y-52374800D01*
X61645800Y-52374800D02*
X83388200Y-52374800D01*
X61645800Y-52501800D02*
X83388200Y-52501800D01*
X61645800Y-52501800D02*
X83388200Y-52501800D01*
X61645800Y-52501800D02*
X83388200Y-52501800D01*
X61645800Y-52501800D02*
X83388200Y-52501800D01*
X61645800Y-52501800D02*
X83388200Y-52501800D01*
X61645800Y-52628800D02*
X83388200Y-52628800D01*
X61645800Y-52628800D02*
X83388200Y-52628800D01*
X61645800Y-52628800D02*
X83388200Y-52628800D01*
X61645800Y-52628800D02*
X83388200Y-52628800D01*
X61645800Y-52628800D02*
X83388200Y-52628800D01*
X61645800Y-52755800D02*
X83388200Y-52755800D01*
X61645800Y-52755800D02*
X83388200Y-52755800D01*
X61645800Y-52755800D02*
X83388200Y-52755800D01*
X61645800Y-52755800D02*
X83388200Y-52755800D01*
X61645800Y-52755800D02*
X83388200Y-52755800D01*
X61645800Y-52882800D02*
X83388200Y-52882800D01*
X61645800Y-52882800D02*
X83388200Y-52882800D01*
X61645800Y-52882800D02*
X83388200Y-52882800D01*
X61645800Y-52882800D02*
X83388200Y-52882800D01*
X61645800Y-52882800D02*
X83388200Y-52882800D01*
X61645800Y-53009800D02*
X83388200Y-53009800D01*
X61645800Y-53009800D02*
X83388200Y-53009800D01*
X61645800Y-53009800D02*
X83388200Y-53009800D01*
X61645800Y-53009800D02*
X83388200Y-53009800D01*
X61645800Y-53009800D02*
X83388200Y-53009800D01*
X61645800Y-53136800D02*
X83388200Y-53136800D01*
X61645800Y-53136800D02*
X83388200Y-53136800D01*
X61645800Y-53136800D02*
X83388200Y-53136800D01*
X61645800Y-53136800D02*
X83388200Y-53136800D01*
X61645800Y-53136800D02*
X83388200Y-53136800D01*
X61645800Y-53263800D02*
X83388200Y-53263800D01*
X61645800Y-53263800D02*
X83388200Y-53263800D01*
X61645800Y-53263800D02*
X83388200Y-53263800D01*
X61645800Y-53263800D02*
X83388200Y-53263800D01*
X61645800Y-53263800D02*
X83388200Y-53263800D01*
X61645800Y-53390800D02*
X83388200Y-53390800D01*
X61645800Y-53390800D02*
X83388200Y-53390800D01*
X61645800Y-53390800D02*
X83388200Y-53390800D01*
X61645800Y-53390800D02*
X83388200Y-53390800D01*
X61645800Y-53390800D02*
X83388200Y-53390800D01*
X61645800Y-53517800D02*
X83388200Y-53517800D01*
X61645800Y-53517800D02*
X83388200Y-53517800D01*
X61645800Y-53517800D02*
X83388200Y-53517800D01*
X61645800Y-53517800D02*
X83388200Y-53517800D01*
X61645800Y-53517800D02*
X83388200Y-53517800D01*
X61645800Y-53644800D02*
X83388200Y-53644800D01*
X61645800Y-53644800D02*
X83388200Y-53644800D01*
X61645800Y-53644800D02*
X83388200Y-53644800D01*
X61645800Y-53644800D02*
X83388200Y-53644800D01*
X61645800Y-53644800D02*
X83388200Y-53644800D01*
X61645800Y-53771800D02*
X83388200Y-53771800D01*
X61645800Y-53771800D02*
X83388200Y-53771800D01*
X61645800Y-53771800D02*
X83388200Y-53771800D01*
X61645800Y-53771800D02*
X83388200Y-53771800D01*
X61645800Y-53771800D02*
X83388200Y-53771800D01*
X61645800Y-53898800D02*
X83388200Y-53898800D01*
X61645800Y-53898800D02*
X83388200Y-53898800D01*
X61645800Y-53898800D02*
X83388200Y-53898800D01*
X61645800Y-53898800D02*
X83388200Y-53898800D01*
X61645800Y-53898800D02*
X83388200Y-53898800D01*
X61645800Y-54025800D02*
X83388200Y-54025800D01*
X61645800Y-54025800D02*
X83388200Y-54025800D01*
X61645800Y-54025800D02*
X83388200Y-54025800D01*
X61645800Y-54025800D02*
X83388200Y-54025800D01*
X61645800Y-54025800D02*
X83388200Y-54025800D01*
X61645800Y-54152800D02*
X83388200Y-54152800D01*
X61645800Y-54152800D02*
X83388200Y-54152800D01*
X61645800Y-54152800D02*
X83388200Y-54152800D01*
X61645800Y-54152800D02*
X83388200Y-54152800D01*
X61645800Y-54152800D02*
X83388200Y-54152800D01*
X61645800Y-54279800D02*
X83388200Y-54279800D01*
X61645800Y-54279800D02*
X83388200Y-54279800D01*
X61645800Y-54279800D02*
X83388200Y-54279800D01*
X61645800Y-54279800D02*
X83388200Y-54279800D01*
X61645800Y-54279800D02*
X83388200Y-54279800D01*
X61645800Y-54406800D02*
X83388200Y-54406800D01*
X61645800Y-54406800D02*
X83388200Y-54406800D01*
X61645800Y-54406800D02*
X83388200Y-54406800D01*
X61645800Y-54406800D02*
X83388200Y-54406800D01*
X61645800Y-54406800D02*
X83388200Y-54406800D01*
X61645800Y-54533800D02*
X83388200Y-54533800D01*
X61645800Y-54533800D02*
X83388200Y-54533800D01*
X61645800Y-54533800D02*
X83388200Y-54533800D01*
X61645800Y-54533800D02*
X83388200Y-54533800D01*
X61645800Y-54533800D02*
X83388200Y-54533800D01*
X61645800Y-54660800D02*
X83388200Y-54660800D01*
X61645800Y-54660800D02*
X83388200Y-54660800D01*
X61645800Y-54660800D02*
X83388200Y-54660800D01*
X61645800Y-54660800D02*
X83388200Y-54660800D01*
X61645800Y-54660800D02*
X83388200Y-54660800D01*
X61645800Y-54787800D02*
X83388200Y-54787800D01*
X61645800Y-54787800D02*
X83388200Y-54787800D01*
X61645800Y-54787800D02*
X83388200Y-54787800D01*
X61645800Y-54787800D02*
X83388200Y-54787800D01*
X61645800Y-54787800D02*
X83388200Y-54787800D01*
X61645800Y-54914800D02*
X83388200Y-54914800D01*
X61645800Y-54914800D02*
X83388200Y-54914800D01*
X61645800Y-54914800D02*
X83388200Y-54914800D01*
X61645800Y-54914800D02*
X83388200Y-54914800D01*
X61645800Y-54914800D02*
X83388200Y-54914800D01*
X61645800Y-55041800D02*
X83388200Y-55041800D01*
X61645800Y-55041800D02*
X83388200Y-55041800D01*
X61645800Y-55041800D02*
X83388200Y-55041800D01*
X61645800Y-55041800D02*
X83388200Y-55041800D01*
X61645800Y-55041800D02*
X83388200Y-55041800D01*
X61645800Y-55168800D02*
X83388200Y-55168800D01*
X61645800Y-55168800D02*
X83388200Y-55168800D01*
X61645800Y-55168800D02*
X83388200Y-55168800D01*
X61645800Y-55168800D02*
X83388200Y-55168800D01*
X61645800Y-55168800D02*
X83388200Y-55168800D01*
X61645800Y-55295800D02*
X83388200Y-55295800D01*
X61645800Y-55295800D02*
X83388200Y-55295800D01*
X61645800Y-55295800D02*
X83388200Y-55295800D01*
X61645800Y-55295800D02*
X83388200Y-55295800D01*
X61645800Y-55295800D02*
X83388200Y-55295800D01*
X61645800Y-55422800D02*
X83388200Y-55422800D01*
X61645800Y-55422800D02*
X83388200Y-55422800D01*
X61645800Y-55422800D02*
X83388200Y-55422800D01*
X61645800Y-55422800D02*
X83388200Y-55422800D01*
X61645800Y-55422800D02*
X83388200Y-55422800D01*
X61645800Y-55549800D02*
X83388200Y-55549800D01*
X61645800Y-55549800D02*
X83388200Y-55549800D01*
X61645800Y-55549800D02*
X83388200Y-55549800D01*
X61645800Y-55549800D02*
X83388200Y-55549800D01*
X61645800Y-55549800D02*
X83388200Y-55549800D01*
X61645800Y-55676800D02*
X83388200Y-55676800D01*
X61645800Y-55676800D02*
X83388200Y-55676800D01*
X61645800Y-55676800D02*
X83388200Y-55676800D01*
X61645800Y-55676800D02*
X83388200Y-55676800D01*
X61645800Y-55676800D02*
X83388200Y-55676800D01*
X61645800Y-55803800D02*
X83388200Y-55803800D01*
X61645800Y-55803800D02*
X83388200Y-55803800D01*
X61645800Y-55803800D02*
X83388200Y-55803800D01*
X61645800Y-55803800D02*
X83388200Y-55803800D01*
X61645800Y-55803800D02*
X83388200Y-55803800D01*
X61645800Y-55930800D02*
X83388200Y-55930800D01*
X61645800Y-55930800D02*
X83388200Y-55930800D01*
X61645800Y-55930800D02*
X83388200Y-55930800D01*
X61645800Y-55930800D02*
X83388200Y-55930800D01*
X61645800Y-55930800D02*
X83388200Y-55930800D01*
X61645800Y-56057800D02*
X83388200Y-56057800D01*
X61645800Y-56057800D02*
X83388200Y-56057800D01*
X61645800Y-56057800D02*
X83388200Y-56057800D01*
X61645800Y-56057800D02*
X83388200Y-56057800D01*
X61645800Y-56057800D02*
X83388200Y-56057800D01*
X61645800Y-56184800D02*
X83388200Y-56184800D01*
X61645800Y-56184800D02*
X83388200Y-56184800D01*
X61645800Y-56184800D02*
X83388200Y-56184800D01*
X61645800Y-56184800D02*
X83388200Y-56184800D01*
X61645800Y-56184800D02*
X83388200Y-56184800D01*
X61645800Y-56311800D02*
X83388200Y-56311800D01*
X61645800Y-56311800D02*
X83388200Y-56311800D01*
X61645800Y-56311800D02*
X83388200Y-56311800D01*
X61645800Y-56311800D02*
X83388200Y-56311800D01*
X61645800Y-56311800D02*
X83388200Y-56311800D01*
X61645800Y-56438800D02*
X83388200Y-56438800D01*
X61645800Y-56438800D02*
X83388200Y-56438800D01*
X61645800Y-56438800D02*
X83388200Y-56438800D01*
X61645800Y-56438800D02*
X83388200Y-56438800D01*
X61645800Y-56438800D02*
X83388200Y-56438800D01*
X61645800Y-56565800D02*
X83388200Y-56565800D01*
X61645800Y-56565800D02*
X83388200Y-56565800D01*
X61645800Y-56565800D02*
X83388200Y-56565800D01*
X61645800Y-56565800D02*
X83388200Y-56565800D01*
X61645800Y-56565800D02*
X83388200Y-56565800D01*
D12*
G04 #@! TO.C,D3*
X69908000Y-71119538D02*
G75*
G03X75458000Y-72664830I2990000J-462D01*
G01*
X69908000Y-71120462D02*
G75*
G02X75458000Y-69575170I2990000J462D01*
G01*
X75398000Y-71120000D02*
G75*
G03X75398000Y-71120000I-2500000J0D01*
G01*
X75458000Y-72665000D02*
X75458000Y-69575000D01*
G04 #@! TO.C,R5*
X25550000Y-70476000D02*
X28600000Y-70476000D01*
X25550000Y-66176000D02*
X28600000Y-66176000D01*
X25571766Y-66160474D02*
G75*
G03X25550000Y-70476000I1528234J-2165526D01*
G01*
X28644513Y-70444249D02*
G75*
G03X28600000Y-66176000I-1544513J2118249D01*
G01*
D13*
G04 #@! TO.C,U1*
X51816000Y-44196000D02*
X51816000Y-45212000D01*
X49276000Y-44196000D02*
X49276000Y-45212000D01*
X39116000Y-42672000D02*
X39116000Y-39370000D01*
X39116000Y-39370000D02*
X36576000Y-39370000D01*
X36576000Y-39370000D02*
X36576000Y-44196000D01*
X41656000Y-42672000D02*
X39116000Y-42672000D01*
X41656000Y-39370000D02*
X41656000Y-42672000D01*
X41656000Y-39370000D02*
X41910000Y-39370000D01*
X39624000Y-42672000D02*
X39370000Y-42672000D01*
X44450000Y-42672000D02*
X44196000Y-42672000D01*
X44196000Y-42672000D02*
X44196000Y-39370000D01*
X44196000Y-39370000D02*
X41910000Y-39370000D01*
X51816000Y-39370000D02*
X49276000Y-39370000D01*
X49276000Y-39370000D02*
X46736000Y-39370000D01*
X46736000Y-39370000D02*
X46736000Y-42418000D01*
X46736000Y-42418000D02*
X46736000Y-42672000D01*
X46736000Y-42672000D02*
X45720000Y-42672000D01*
X45720000Y-42672000D02*
X44450000Y-42672000D01*
X49276000Y-39878000D02*
X49276000Y-39624000D01*
X49276000Y-39624000D02*
X49276000Y-39370000D01*
X51816000Y-39370000D02*
X51816000Y-40132000D01*
X49276000Y-39878000D02*
X49276000Y-43688000D01*
X49276000Y-43688000D02*
X49276000Y-44196000D01*
X51816000Y-39878000D02*
X51816000Y-44196000D01*
X35560000Y-45466000D02*
X53340000Y-45466000D01*
X35560000Y-64262000D02*
X53340000Y-64262000D01*
X35560000Y-38862000D02*
X53340000Y-38862000D01*
X35560000Y-45212000D02*
X53340000Y-45212000D01*
X35560000Y-45212000D02*
X35560000Y-64262000D01*
X53340000Y-64262000D02*
X53340000Y-45212000D01*
X53340000Y-45212000D02*
X53340000Y-38862000D01*
X35560000Y-45212000D02*
X35560000Y-38862000D01*
D12*
X54550000Y-38802000D02*
X55880000Y-38802000D01*
X54550000Y-40132000D02*
X54550000Y-38802000D01*
X54550000Y-41402000D02*
X57210000Y-41402000D01*
X57210000Y-41402000D02*
X57210000Y-87182000D01*
X54550000Y-41402000D02*
X54550000Y-87182000D01*
X54550000Y-87182000D02*
X57210000Y-87182000D01*
X31690000Y-87182000D02*
X34350000Y-87182000D01*
X31690000Y-41402000D02*
X31690000Y-87182000D01*
X34350000Y-41402000D02*
X34350000Y-87182000D01*
X31690000Y-41402000D02*
X34350000Y-41402000D01*
X31690000Y-40132000D02*
X31690000Y-38802000D01*
X31690000Y-38802000D02*
X33020000Y-38802000D01*
D13*
X35560000Y-45466000D02*
X53340000Y-45466000D01*
X35560000Y-45466000D02*
X53340000Y-45466000D01*
X35560000Y-45466000D02*
X53340000Y-45466000D01*
X35560000Y-45466000D02*
X53340000Y-45466000D01*
X35560000Y-45593000D02*
X53340000Y-45593000D01*
X35560000Y-45593000D02*
X53340000Y-45593000D01*
X35560000Y-45593000D02*
X53340000Y-45593000D01*
X35560000Y-45593000D02*
X53340000Y-45593000D01*
X35560000Y-45593000D02*
X53340000Y-45593000D01*
X35560000Y-45720000D02*
X53340000Y-45720000D01*
X35560000Y-45720000D02*
X53340000Y-45720000D01*
X35560000Y-45720000D02*
X53340000Y-45720000D01*
X35560000Y-45720000D02*
X53340000Y-45720000D01*
X35560000Y-45720000D02*
X53340000Y-45720000D01*
X35560000Y-45847000D02*
X53340000Y-45847000D01*
X35560000Y-45847000D02*
X53340000Y-45847000D01*
X35560000Y-45847000D02*
X53340000Y-45847000D01*
X35560000Y-45847000D02*
X53340000Y-45847000D01*
X35560000Y-45847000D02*
X53340000Y-45847000D01*
X35560000Y-45974000D02*
X53340000Y-45974000D01*
X35560000Y-45974000D02*
X53340000Y-45974000D01*
X35560000Y-45974000D02*
X53340000Y-45974000D01*
X35560000Y-45974000D02*
X53340000Y-45974000D01*
X35560000Y-45974000D02*
X53340000Y-45974000D01*
X35560000Y-46101000D02*
X53340000Y-46101000D01*
X35560000Y-46101000D02*
X53340000Y-46101000D01*
X35560000Y-46101000D02*
X53340000Y-46101000D01*
X35560000Y-46101000D02*
X53340000Y-46101000D01*
X35560000Y-46101000D02*
X53340000Y-46101000D01*
X35560000Y-46228000D02*
X53340000Y-46228000D01*
X35560000Y-46228000D02*
X53340000Y-46228000D01*
X35560000Y-46228000D02*
X53340000Y-46228000D01*
X35560000Y-46228000D02*
X53340000Y-46228000D01*
X35560000Y-46228000D02*
X53340000Y-46228000D01*
X35560000Y-46355000D02*
X53340000Y-46355000D01*
X35560000Y-46355000D02*
X53340000Y-46355000D01*
X35560000Y-46355000D02*
X53340000Y-46355000D01*
X35560000Y-46355000D02*
X53340000Y-46355000D01*
X35560000Y-46355000D02*
X53340000Y-46355000D01*
X35560000Y-46482000D02*
X53340000Y-46482000D01*
X35560000Y-46482000D02*
X53340000Y-46482000D01*
X35560000Y-46482000D02*
X53340000Y-46482000D01*
X35560000Y-46482000D02*
X53340000Y-46482000D01*
X35560000Y-46482000D02*
X53340000Y-46482000D01*
X35560000Y-46609000D02*
X53340000Y-46609000D01*
X35560000Y-46609000D02*
X53340000Y-46609000D01*
X35560000Y-46609000D02*
X53340000Y-46609000D01*
X35560000Y-46609000D02*
X53340000Y-46609000D01*
X35560000Y-46609000D02*
X53340000Y-46609000D01*
X35560000Y-46736000D02*
X53340000Y-46736000D01*
X35560000Y-46736000D02*
X53340000Y-46736000D01*
X35560000Y-46736000D02*
X53340000Y-46736000D01*
X35560000Y-46736000D02*
X53340000Y-46736000D01*
X35560000Y-46736000D02*
X53340000Y-46736000D01*
X35560000Y-46863000D02*
X53340000Y-46863000D01*
X35560000Y-46863000D02*
X53340000Y-46863000D01*
X35560000Y-46863000D02*
X53340000Y-46863000D01*
X35560000Y-46863000D02*
X53340000Y-46863000D01*
X35560000Y-46863000D02*
X53340000Y-46863000D01*
X35560000Y-46990000D02*
X53340000Y-46990000D01*
X35560000Y-46990000D02*
X53340000Y-46990000D01*
X35560000Y-46990000D02*
X53340000Y-46990000D01*
X35560000Y-46990000D02*
X53340000Y-46990000D01*
X35560000Y-46990000D02*
X53340000Y-46990000D01*
X35560000Y-47117000D02*
X53340000Y-47117000D01*
X35560000Y-47117000D02*
X53340000Y-47117000D01*
X35560000Y-47117000D02*
X53340000Y-47117000D01*
X35560000Y-47117000D02*
X53340000Y-47117000D01*
X35560000Y-47117000D02*
X53340000Y-47117000D01*
X35560000Y-47244000D02*
X53340000Y-47244000D01*
X35560000Y-47244000D02*
X53340000Y-47244000D01*
X35560000Y-47244000D02*
X53340000Y-47244000D01*
X35560000Y-47244000D02*
X53340000Y-47244000D01*
X35560000Y-47244000D02*
X53340000Y-47244000D01*
X35560000Y-47371000D02*
X53340000Y-47371000D01*
X35560000Y-47371000D02*
X53340000Y-47371000D01*
X35560000Y-47371000D02*
X53340000Y-47371000D01*
X35560000Y-47371000D02*
X53340000Y-47371000D01*
X35560000Y-47371000D02*
X53340000Y-47371000D01*
X35560000Y-47498000D02*
X53340000Y-47498000D01*
X35560000Y-47498000D02*
X53340000Y-47498000D01*
X35560000Y-47498000D02*
X53340000Y-47498000D01*
X35560000Y-47498000D02*
X53340000Y-47498000D01*
X35560000Y-47498000D02*
X53340000Y-47498000D01*
X35560000Y-47625000D02*
X53340000Y-47625000D01*
X35560000Y-47625000D02*
X53340000Y-47625000D01*
X35560000Y-47625000D02*
X53340000Y-47625000D01*
X35560000Y-47625000D02*
X53340000Y-47625000D01*
X35560000Y-47625000D02*
X53340000Y-47625000D01*
X35560000Y-47752000D02*
X53340000Y-47752000D01*
X35560000Y-47752000D02*
X53340000Y-47752000D01*
X35560000Y-47752000D02*
X53340000Y-47752000D01*
X35560000Y-47752000D02*
X53340000Y-47752000D01*
X35560000Y-47752000D02*
X53340000Y-47752000D01*
X35560000Y-47879000D02*
X53340000Y-47879000D01*
X35560000Y-47879000D02*
X53340000Y-47879000D01*
X35560000Y-47879000D02*
X53340000Y-47879000D01*
X35560000Y-47879000D02*
X53340000Y-47879000D01*
X35560000Y-47879000D02*
X53340000Y-47879000D01*
X35560000Y-48006000D02*
X53340000Y-48006000D01*
X35560000Y-48006000D02*
X53340000Y-48006000D01*
X35560000Y-48006000D02*
X53340000Y-48006000D01*
X35560000Y-48006000D02*
X53340000Y-48006000D01*
X35560000Y-48006000D02*
X53340000Y-48006000D01*
X35560000Y-48133000D02*
X53340000Y-48133000D01*
X35560000Y-48133000D02*
X53340000Y-48133000D01*
X35560000Y-48133000D02*
X53340000Y-48133000D01*
X35560000Y-48133000D02*
X53340000Y-48133000D01*
X35560000Y-48133000D02*
X53340000Y-48133000D01*
X35560000Y-48260000D02*
X53340000Y-48260000D01*
X35560000Y-48260000D02*
X53340000Y-48260000D01*
X35560000Y-48260000D02*
X53340000Y-48260000D01*
X35560000Y-48260000D02*
X53340000Y-48260000D01*
X35560000Y-48260000D02*
X53340000Y-48260000D01*
X35560000Y-48387000D02*
X53340000Y-48387000D01*
X35560000Y-48387000D02*
X53340000Y-48387000D01*
X35560000Y-48387000D02*
X53340000Y-48387000D01*
X35560000Y-48387000D02*
X53340000Y-48387000D01*
X35560000Y-48387000D02*
X53340000Y-48387000D01*
X35560000Y-48514000D02*
X53340000Y-48514000D01*
X35560000Y-48514000D02*
X53340000Y-48514000D01*
X35560000Y-48514000D02*
X53340000Y-48514000D01*
X35560000Y-48514000D02*
X53340000Y-48514000D01*
X35560000Y-48514000D02*
X53340000Y-48514000D01*
X35560000Y-48641000D02*
X53340000Y-48641000D01*
X35560000Y-48641000D02*
X53340000Y-48641000D01*
X35560000Y-48641000D02*
X53340000Y-48641000D01*
X35560000Y-48641000D02*
X53340000Y-48641000D01*
X35560000Y-48641000D02*
X53340000Y-48641000D01*
X35560000Y-48768000D02*
X53340000Y-48768000D01*
X35560000Y-48768000D02*
X53340000Y-48768000D01*
X35560000Y-48768000D02*
X53340000Y-48768000D01*
X35560000Y-48768000D02*
X53340000Y-48768000D01*
X35560000Y-48768000D02*
X53340000Y-48768000D01*
X35560000Y-48895000D02*
X53340000Y-48895000D01*
X35560000Y-48895000D02*
X53340000Y-48895000D01*
X35560000Y-48895000D02*
X53340000Y-48895000D01*
X35560000Y-48895000D02*
X53340000Y-48895000D01*
X35560000Y-48895000D02*
X53340000Y-48895000D01*
X35560000Y-49022000D02*
X53340000Y-49022000D01*
X35560000Y-49022000D02*
X53340000Y-49022000D01*
X35560000Y-49022000D02*
X53340000Y-49022000D01*
X35560000Y-49022000D02*
X53340000Y-49022000D01*
X35560000Y-49022000D02*
X53340000Y-49022000D01*
X35560000Y-49149000D02*
X53340000Y-49149000D01*
X35560000Y-49149000D02*
X53340000Y-49149000D01*
X35560000Y-49149000D02*
X53340000Y-49149000D01*
X35560000Y-49149000D02*
X53340000Y-49149000D01*
X35560000Y-49149000D02*
X53340000Y-49149000D01*
X35560000Y-49276000D02*
X53340000Y-49276000D01*
X35560000Y-49276000D02*
X53340000Y-49276000D01*
X35560000Y-49276000D02*
X53340000Y-49276000D01*
X35560000Y-49276000D02*
X53340000Y-49276000D01*
X35560000Y-49276000D02*
X53340000Y-49276000D01*
X35560000Y-49403000D02*
X53340000Y-49403000D01*
X35560000Y-49403000D02*
X53340000Y-49403000D01*
X35560000Y-49403000D02*
X53340000Y-49403000D01*
X35560000Y-49403000D02*
X53340000Y-49403000D01*
X35560000Y-49403000D02*
X53340000Y-49403000D01*
X35560000Y-49530000D02*
X53340000Y-49530000D01*
X35560000Y-49530000D02*
X53340000Y-49530000D01*
X35560000Y-49530000D02*
X53340000Y-49530000D01*
X35560000Y-49530000D02*
X53340000Y-49530000D01*
X35560000Y-49530000D02*
X53340000Y-49530000D01*
X35560000Y-49657000D02*
X53340000Y-49657000D01*
X35560000Y-49657000D02*
X53340000Y-49657000D01*
X35560000Y-49657000D02*
X53340000Y-49657000D01*
X35560000Y-49657000D02*
X53340000Y-49657000D01*
X35560000Y-49657000D02*
X53340000Y-49657000D01*
X35560000Y-49784000D02*
X53340000Y-49784000D01*
X35560000Y-49784000D02*
X53340000Y-49784000D01*
X35560000Y-49784000D02*
X53340000Y-49784000D01*
X35560000Y-49784000D02*
X53340000Y-49784000D01*
X35560000Y-49784000D02*
X53340000Y-49784000D01*
X35560000Y-49911000D02*
X53340000Y-49911000D01*
X35560000Y-49911000D02*
X53340000Y-49911000D01*
X35560000Y-49911000D02*
X53340000Y-49911000D01*
X35560000Y-49911000D02*
X53340000Y-49911000D01*
X35560000Y-49911000D02*
X53340000Y-49911000D01*
X35560000Y-50038000D02*
X53340000Y-50038000D01*
X35560000Y-50038000D02*
X53340000Y-50038000D01*
X35560000Y-50038000D02*
X53340000Y-50038000D01*
X35560000Y-50038000D02*
X53340000Y-50038000D01*
X35560000Y-50038000D02*
X53340000Y-50038000D01*
X35560000Y-50165000D02*
X53340000Y-50165000D01*
X35560000Y-50165000D02*
X53340000Y-50165000D01*
X35560000Y-50165000D02*
X53340000Y-50165000D01*
X35560000Y-50165000D02*
X53340000Y-50165000D01*
X35560000Y-50165000D02*
X53340000Y-50165000D01*
X35560000Y-50292000D02*
X53340000Y-50292000D01*
X35560000Y-50292000D02*
X53340000Y-50292000D01*
X35560000Y-50292000D02*
X53340000Y-50292000D01*
X35560000Y-50292000D02*
X53340000Y-50292000D01*
X35560000Y-50292000D02*
X53340000Y-50292000D01*
X35560000Y-50419000D02*
X53340000Y-50419000D01*
X35560000Y-50419000D02*
X53340000Y-50419000D01*
X35560000Y-50419000D02*
X53340000Y-50419000D01*
X35560000Y-50419000D02*
X53340000Y-50419000D01*
X35560000Y-50419000D02*
X53340000Y-50419000D01*
X35560000Y-50546000D02*
X53340000Y-50546000D01*
X35560000Y-50546000D02*
X53340000Y-50546000D01*
X35560000Y-50546000D02*
X53340000Y-50546000D01*
X35560000Y-50546000D02*
X53340000Y-50546000D01*
X35560000Y-50546000D02*
X53340000Y-50546000D01*
X35560000Y-50673000D02*
X53340000Y-50673000D01*
X35560000Y-50673000D02*
X53340000Y-50673000D01*
X35560000Y-50673000D02*
X53340000Y-50673000D01*
X35560000Y-50673000D02*
X53340000Y-50673000D01*
X35560000Y-50673000D02*
X53340000Y-50673000D01*
X35560000Y-50800000D02*
X53340000Y-50800000D01*
X35560000Y-50800000D02*
X53340000Y-50800000D01*
X35560000Y-50800000D02*
X53340000Y-50800000D01*
X35560000Y-50800000D02*
X53340000Y-50800000D01*
X35560000Y-50800000D02*
X53340000Y-50800000D01*
X35560000Y-50927000D02*
X53340000Y-50927000D01*
X35560000Y-50927000D02*
X53340000Y-50927000D01*
X35560000Y-50927000D02*
X53340000Y-50927000D01*
X35560000Y-50927000D02*
X53340000Y-50927000D01*
X35560000Y-50927000D02*
X53340000Y-50927000D01*
X35560000Y-51054000D02*
X53340000Y-51054000D01*
X35560000Y-51054000D02*
X53340000Y-51054000D01*
X35560000Y-51054000D02*
X53340000Y-51054000D01*
X35560000Y-51054000D02*
X53340000Y-51054000D01*
X35560000Y-51054000D02*
X53340000Y-51054000D01*
X35560000Y-51181000D02*
X53340000Y-51181000D01*
X35560000Y-51181000D02*
X53340000Y-51181000D01*
X35560000Y-51181000D02*
X53340000Y-51181000D01*
X35560000Y-51181000D02*
X53340000Y-51181000D01*
X35560000Y-51181000D02*
X53340000Y-51181000D01*
X35560000Y-51308000D02*
X53340000Y-51308000D01*
X35560000Y-51308000D02*
X53340000Y-51308000D01*
X35560000Y-51308000D02*
X53340000Y-51308000D01*
X35560000Y-51308000D02*
X53340000Y-51308000D01*
X35560000Y-51308000D02*
X53340000Y-51308000D01*
X35560000Y-51435000D02*
X53340000Y-51435000D01*
X35560000Y-51435000D02*
X53340000Y-51435000D01*
X35560000Y-51435000D02*
X53340000Y-51435000D01*
X35560000Y-51435000D02*
X53340000Y-51435000D01*
X35560000Y-51435000D02*
X53340000Y-51435000D01*
X35560000Y-51562000D02*
X53340000Y-51562000D01*
X35560000Y-51562000D02*
X53340000Y-51562000D01*
X35560000Y-51562000D02*
X53340000Y-51562000D01*
X35560000Y-51562000D02*
X53340000Y-51562000D01*
X35560000Y-51562000D02*
X53340000Y-51562000D01*
X35560000Y-51689000D02*
X53340000Y-51689000D01*
X35560000Y-51689000D02*
X53340000Y-51689000D01*
X35560000Y-51689000D02*
X53340000Y-51689000D01*
X35560000Y-51689000D02*
X53340000Y-51689000D01*
X35560000Y-51689000D02*
X53340000Y-51689000D01*
X35560000Y-51816000D02*
X53340000Y-51816000D01*
X35560000Y-51816000D02*
X53340000Y-51816000D01*
X35560000Y-51816000D02*
X53340000Y-51816000D01*
X35560000Y-51816000D02*
X53340000Y-51816000D01*
X35560000Y-51816000D02*
X53340000Y-51816000D01*
X35560000Y-51943000D02*
X53340000Y-51943000D01*
X35560000Y-51943000D02*
X53340000Y-51943000D01*
X35560000Y-51943000D02*
X53340000Y-51943000D01*
X35560000Y-51943000D02*
X53340000Y-51943000D01*
X35560000Y-51943000D02*
X53340000Y-51943000D01*
X35560000Y-52070000D02*
X53340000Y-52070000D01*
X35560000Y-52070000D02*
X53340000Y-52070000D01*
X35560000Y-52070000D02*
X53340000Y-52070000D01*
X35560000Y-52070000D02*
X53340000Y-52070000D01*
X35560000Y-52070000D02*
X53340000Y-52070000D01*
X35560000Y-52197000D02*
X53340000Y-52197000D01*
X35560000Y-52197000D02*
X53340000Y-52197000D01*
X35560000Y-52197000D02*
X53340000Y-52197000D01*
X35560000Y-52197000D02*
X53340000Y-52197000D01*
X35560000Y-52197000D02*
X53340000Y-52197000D01*
X35560000Y-52324000D02*
X53340000Y-52324000D01*
X35560000Y-52324000D02*
X53340000Y-52324000D01*
X35560000Y-52324000D02*
X53340000Y-52324000D01*
X35560000Y-52324000D02*
X53340000Y-52324000D01*
X35560000Y-52324000D02*
X53340000Y-52324000D01*
X35560000Y-52451000D02*
X53340000Y-52451000D01*
X35560000Y-52451000D02*
X53340000Y-52451000D01*
X35560000Y-52451000D02*
X53340000Y-52451000D01*
X35560000Y-52451000D02*
X53340000Y-52451000D01*
X35560000Y-52451000D02*
X53340000Y-52451000D01*
X35560000Y-52578000D02*
X53340000Y-52578000D01*
X35560000Y-52578000D02*
X53340000Y-52578000D01*
X35560000Y-52578000D02*
X53340000Y-52578000D01*
X35560000Y-52578000D02*
X53340000Y-52578000D01*
X35560000Y-52578000D02*
X53340000Y-52578000D01*
X35560000Y-52705000D02*
X53340000Y-52705000D01*
X35560000Y-52705000D02*
X53340000Y-52705000D01*
X35560000Y-52705000D02*
X53340000Y-52705000D01*
X35560000Y-52705000D02*
X53340000Y-52705000D01*
X35560000Y-52705000D02*
X53340000Y-52705000D01*
X35560000Y-52832000D02*
X53340000Y-52832000D01*
X35560000Y-52832000D02*
X53340000Y-52832000D01*
X35560000Y-52832000D02*
X53340000Y-52832000D01*
X35560000Y-52832000D02*
X53340000Y-52832000D01*
X35560000Y-52832000D02*
X53340000Y-52832000D01*
X35560000Y-52959000D02*
X53340000Y-52959000D01*
X35560000Y-52959000D02*
X53340000Y-52959000D01*
X35560000Y-52959000D02*
X53340000Y-52959000D01*
X35560000Y-52959000D02*
X53340000Y-52959000D01*
X35560000Y-52959000D02*
X53340000Y-52959000D01*
X35560000Y-53086000D02*
X53340000Y-53086000D01*
X35560000Y-53086000D02*
X53340000Y-53086000D01*
X35560000Y-53086000D02*
X53340000Y-53086000D01*
X35560000Y-53086000D02*
X53340000Y-53086000D01*
X35560000Y-53086000D02*
X53340000Y-53086000D01*
X35560000Y-53213000D02*
X53340000Y-53213000D01*
X35560000Y-53213000D02*
X53340000Y-53213000D01*
X35560000Y-53213000D02*
X53340000Y-53213000D01*
X35560000Y-53213000D02*
X53340000Y-53213000D01*
X35560000Y-53213000D02*
X53340000Y-53213000D01*
X35560000Y-53340000D02*
X53340000Y-53340000D01*
X35560000Y-53340000D02*
X53340000Y-53340000D01*
X35560000Y-53340000D02*
X53340000Y-53340000D01*
X35560000Y-53340000D02*
X53340000Y-53340000D01*
X35560000Y-53340000D02*
X53340000Y-53340000D01*
X35560000Y-53467000D02*
X53340000Y-53467000D01*
X35560000Y-53467000D02*
X53340000Y-53467000D01*
X35560000Y-53467000D02*
X53340000Y-53467000D01*
X35560000Y-53467000D02*
X53340000Y-53467000D01*
X35560000Y-53467000D02*
X53340000Y-53467000D01*
X35560000Y-53594000D02*
X53340000Y-53594000D01*
X35560000Y-53594000D02*
X53340000Y-53594000D01*
X35560000Y-53594000D02*
X53340000Y-53594000D01*
X35560000Y-53594000D02*
X53340000Y-53594000D01*
X35560000Y-53594000D02*
X53340000Y-53594000D01*
X35560000Y-53721000D02*
X53340000Y-53721000D01*
X35560000Y-53721000D02*
X53340000Y-53721000D01*
X35560000Y-53721000D02*
X53340000Y-53721000D01*
X35560000Y-53721000D02*
X53340000Y-53721000D01*
X35560000Y-53721000D02*
X53340000Y-53721000D01*
X35560000Y-53848000D02*
X53340000Y-53848000D01*
X35560000Y-53848000D02*
X53340000Y-53848000D01*
X35560000Y-53848000D02*
X53340000Y-53848000D01*
X35560000Y-53848000D02*
X53340000Y-53848000D01*
X35560000Y-53848000D02*
X53340000Y-53848000D01*
X35560000Y-53975000D02*
X53340000Y-53975000D01*
X35560000Y-53975000D02*
X53340000Y-53975000D01*
X35560000Y-53975000D02*
X53340000Y-53975000D01*
X35560000Y-53975000D02*
X53340000Y-53975000D01*
X35560000Y-53975000D02*
X53340000Y-53975000D01*
X35560000Y-54102000D02*
X53340000Y-54102000D01*
X35560000Y-54102000D02*
X53340000Y-54102000D01*
X35560000Y-54102000D02*
X53340000Y-54102000D01*
X35560000Y-54102000D02*
X53340000Y-54102000D01*
X35560000Y-54102000D02*
X53340000Y-54102000D01*
X35560000Y-54229000D02*
X53340000Y-54229000D01*
X35560000Y-54229000D02*
X53340000Y-54229000D01*
X35560000Y-54229000D02*
X53340000Y-54229000D01*
X35560000Y-54229000D02*
X53340000Y-54229000D01*
X35560000Y-54229000D02*
X53340000Y-54229000D01*
X35560000Y-54356000D02*
X53340000Y-54356000D01*
X35560000Y-54356000D02*
X53340000Y-54356000D01*
X35560000Y-54356000D02*
X53340000Y-54356000D01*
X35560000Y-54356000D02*
X53340000Y-54356000D01*
X35560000Y-54356000D02*
X53340000Y-54356000D01*
X35560000Y-54483000D02*
X53340000Y-54483000D01*
X35560000Y-54483000D02*
X53340000Y-54483000D01*
X35560000Y-54483000D02*
X53340000Y-54483000D01*
X35560000Y-54483000D02*
X53340000Y-54483000D01*
X35560000Y-54483000D02*
X53340000Y-54483000D01*
X35560000Y-54610000D02*
X53340000Y-54610000D01*
X35560000Y-54610000D02*
X53340000Y-54610000D01*
X35560000Y-54610000D02*
X53340000Y-54610000D01*
X35560000Y-54610000D02*
X53340000Y-54610000D01*
X35560000Y-54610000D02*
X53340000Y-54610000D01*
X35560000Y-54737000D02*
X53340000Y-54737000D01*
X35560000Y-54737000D02*
X53340000Y-54737000D01*
X35560000Y-54737000D02*
X53340000Y-54737000D01*
X35560000Y-54737000D02*
X53340000Y-54737000D01*
X35560000Y-54737000D02*
X53340000Y-54737000D01*
X35560000Y-54864000D02*
X53340000Y-54864000D01*
X35560000Y-54864000D02*
X53340000Y-54864000D01*
X35560000Y-54864000D02*
X53340000Y-54864000D01*
X35560000Y-54864000D02*
X53340000Y-54864000D01*
X35560000Y-54864000D02*
X53340000Y-54864000D01*
X35560000Y-54991000D02*
X53340000Y-54991000D01*
X35560000Y-54991000D02*
X53340000Y-54991000D01*
X35560000Y-54991000D02*
X53340000Y-54991000D01*
X35560000Y-54991000D02*
X53340000Y-54991000D01*
X35560000Y-54991000D02*
X53340000Y-54991000D01*
X35560000Y-55118000D02*
X53340000Y-55118000D01*
X35560000Y-55118000D02*
X53340000Y-55118000D01*
X35560000Y-55118000D02*
X53340000Y-55118000D01*
X35560000Y-55118000D02*
X53340000Y-55118000D01*
X35560000Y-55118000D02*
X53340000Y-55118000D01*
X35560000Y-55245000D02*
X53340000Y-55245000D01*
X35560000Y-55245000D02*
X53340000Y-55245000D01*
X35560000Y-55245000D02*
X53340000Y-55245000D01*
X35560000Y-55245000D02*
X53340000Y-55245000D01*
X35560000Y-55245000D02*
X53340000Y-55245000D01*
X35560000Y-55372000D02*
X53340000Y-55372000D01*
X35560000Y-55372000D02*
X53340000Y-55372000D01*
X35560000Y-55372000D02*
X53340000Y-55372000D01*
X35560000Y-55372000D02*
X53340000Y-55372000D01*
X35560000Y-55372000D02*
X53340000Y-55372000D01*
X35560000Y-55499000D02*
X53340000Y-55499000D01*
X35560000Y-55499000D02*
X53340000Y-55499000D01*
X35560000Y-55499000D02*
X53340000Y-55499000D01*
X35560000Y-55499000D02*
X53340000Y-55499000D01*
X35560000Y-55499000D02*
X53340000Y-55499000D01*
X35560000Y-55626000D02*
X53340000Y-55626000D01*
X35560000Y-55626000D02*
X53340000Y-55626000D01*
X35560000Y-55626000D02*
X53340000Y-55626000D01*
X35560000Y-55626000D02*
X53340000Y-55626000D01*
X35560000Y-55626000D02*
X53340000Y-55626000D01*
X35560000Y-55753000D02*
X53340000Y-55753000D01*
X35560000Y-55753000D02*
X53340000Y-55753000D01*
X35560000Y-55753000D02*
X53340000Y-55753000D01*
X35560000Y-55753000D02*
X53340000Y-55753000D01*
X35560000Y-55753000D02*
X53340000Y-55753000D01*
X35560000Y-55880000D02*
X53340000Y-55880000D01*
X35560000Y-55880000D02*
X53340000Y-55880000D01*
X35560000Y-55880000D02*
X53340000Y-55880000D01*
X35560000Y-55880000D02*
X53340000Y-55880000D01*
X35560000Y-55880000D02*
X53340000Y-55880000D01*
X35560000Y-56007000D02*
X53340000Y-56007000D01*
X35560000Y-56007000D02*
X53340000Y-56007000D01*
X35560000Y-56007000D02*
X53340000Y-56007000D01*
X35560000Y-56007000D02*
X53340000Y-56007000D01*
X35560000Y-56007000D02*
X53340000Y-56007000D01*
X35560000Y-56134000D02*
X53340000Y-56134000D01*
X35560000Y-56134000D02*
X53340000Y-56134000D01*
X35560000Y-56134000D02*
X53340000Y-56134000D01*
X35560000Y-56134000D02*
X53340000Y-56134000D01*
X35560000Y-56134000D02*
X53340000Y-56134000D01*
X35560000Y-56261000D02*
X53340000Y-56261000D01*
X35560000Y-56261000D02*
X53340000Y-56261000D01*
X35560000Y-56261000D02*
X53340000Y-56261000D01*
X35560000Y-56261000D02*
X53340000Y-56261000D01*
X35560000Y-56261000D02*
X53340000Y-56261000D01*
X35560000Y-56388000D02*
X53340000Y-56388000D01*
X35560000Y-56388000D02*
X53340000Y-56388000D01*
X35560000Y-56388000D02*
X53340000Y-56388000D01*
X35560000Y-56388000D02*
X53340000Y-56388000D01*
X35560000Y-56388000D02*
X53340000Y-56388000D01*
X35560000Y-56515000D02*
X53340000Y-56515000D01*
X35560000Y-56515000D02*
X53340000Y-56515000D01*
X35560000Y-56515000D02*
X53340000Y-56515000D01*
X35560000Y-56515000D02*
X53340000Y-56515000D01*
X35560000Y-56515000D02*
X53340000Y-56515000D01*
X35560000Y-56642000D02*
X53340000Y-56642000D01*
X35560000Y-56642000D02*
X53340000Y-56642000D01*
X35560000Y-56642000D02*
X53340000Y-56642000D01*
X35560000Y-56642000D02*
X53340000Y-56642000D01*
X35560000Y-56642000D02*
X53340000Y-56642000D01*
X35560000Y-56769000D02*
X53340000Y-56769000D01*
X35560000Y-56769000D02*
X53340000Y-56769000D01*
X35560000Y-56769000D02*
X53340000Y-56769000D01*
X35560000Y-56769000D02*
X53340000Y-56769000D01*
X35560000Y-56769000D02*
X53340000Y-56769000D01*
X35560000Y-56896000D02*
X53340000Y-56896000D01*
X35560000Y-56896000D02*
X53340000Y-56896000D01*
X35560000Y-56896000D02*
X53340000Y-56896000D01*
X35560000Y-56896000D02*
X53340000Y-56896000D01*
X35560000Y-56896000D02*
X53340000Y-56896000D01*
X35560000Y-57023000D02*
X53340000Y-57023000D01*
X35560000Y-57023000D02*
X53340000Y-57023000D01*
X35560000Y-57023000D02*
X53340000Y-57023000D01*
X35560000Y-57023000D02*
X53340000Y-57023000D01*
X35560000Y-57023000D02*
X53340000Y-57023000D01*
X35560000Y-57150000D02*
X53340000Y-57150000D01*
X35560000Y-57150000D02*
X53340000Y-57150000D01*
X35560000Y-57150000D02*
X53340000Y-57150000D01*
X35560000Y-57150000D02*
X53340000Y-57150000D01*
X35560000Y-57150000D02*
X53340000Y-57150000D01*
X35560000Y-57277000D02*
X53340000Y-57277000D01*
X35560000Y-57277000D02*
X53340000Y-57277000D01*
X35560000Y-57277000D02*
X53340000Y-57277000D01*
X35560000Y-57277000D02*
X53340000Y-57277000D01*
X35560000Y-57277000D02*
X53340000Y-57277000D01*
X35560000Y-57404000D02*
X53340000Y-57404000D01*
X35560000Y-57404000D02*
X53340000Y-57404000D01*
X35560000Y-57404000D02*
X53340000Y-57404000D01*
X35560000Y-57404000D02*
X53340000Y-57404000D01*
X35560000Y-57404000D02*
X53340000Y-57404000D01*
X35560000Y-57531000D02*
X53340000Y-57531000D01*
X35560000Y-57531000D02*
X53340000Y-57531000D01*
X35560000Y-57531000D02*
X53340000Y-57531000D01*
X35560000Y-57531000D02*
X53340000Y-57531000D01*
X35560000Y-57531000D02*
X53340000Y-57531000D01*
X35560000Y-57658000D02*
X53340000Y-57658000D01*
X35560000Y-57658000D02*
X53340000Y-57658000D01*
X35560000Y-57658000D02*
X53340000Y-57658000D01*
X35560000Y-57658000D02*
X53340000Y-57658000D01*
X35560000Y-57658000D02*
X53340000Y-57658000D01*
X35560000Y-57785000D02*
X53340000Y-57785000D01*
X35560000Y-57785000D02*
X53340000Y-57785000D01*
X35560000Y-57785000D02*
X53340000Y-57785000D01*
X35560000Y-57785000D02*
X53340000Y-57785000D01*
X35560000Y-57785000D02*
X53340000Y-57785000D01*
X35560000Y-57912000D02*
X53340000Y-57912000D01*
X35560000Y-57912000D02*
X53340000Y-57912000D01*
X35560000Y-57912000D02*
X53340000Y-57912000D01*
X35560000Y-57912000D02*
X53340000Y-57912000D01*
X35560000Y-57912000D02*
X53340000Y-57912000D01*
X35560000Y-58039000D02*
X53340000Y-58039000D01*
X35560000Y-58039000D02*
X53340000Y-58039000D01*
X35560000Y-58039000D02*
X53340000Y-58039000D01*
X35560000Y-58039000D02*
X53340000Y-58039000D01*
X35560000Y-58039000D02*
X53340000Y-58039000D01*
X35560000Y-58166000D02*
X53340000Y-58166000D01*
X35560000Y-58166000D02*
X53340000Y-58166000D01*
X35560000Y-58166000D02*
X53340000Y-58166000D01*
X35560000Y-58166000D02*
X53340000Y-58166000D01*
X35560000Y-58166000D02*
X53340000Y-58166000D01*
X35560000Y-58293000D02*
X53340000Y-58293000D01*
X35560000Y-58293000D02*
X53340000Y-58293000D01*
X35560000Y-58293000D02*
X53340000Y-58293000D01*
X35560000Y-58293000D02*
X53340000Y-58293000D01*
X35560000Y-58293000D02*
X53340000Y-58293000D01*
X35560000Y-58420000D02*
X53340000Y-58420000D01*
X35560000Y-58420000D02*
X53340000Y-58420000D01*
X35560000Y-58420000D02*
X53340000Y-58420000D01*
X35560000Y-58420000D02*
X53340000Y-58420000D01*
X35560000Y-58420000D02*
X53340000Y-58420000D01*
X35560000Y-58547000D02*
X53340000Y-58547000D01*
X35560000Y-58547000D02*
X53340000Y-58547000D01*
X35560000Y-58547000D02*
X53340000Y-58547000D01*
X35560000Y-58547000D02*
X53340000Y-58547000D01*
X35560000Y-58547000D02*
X53340000Y-58547000D01*
X35560000Y-58674000D02*
X53340000Y-58674000D01*
X35560000Y-58674000D02*
X53340000Y-58674000D01*
X35560000Y-58674000D02*
X53340000Y-58674000D01*
X35560000Y-58674000D02*
X53340000Y-58674000D01*
X35560000Y-58674000D02*
X53340000Y-58674000D01*
X35560000Y-58801000D02*
X53340000Y-58801000D01*
X35560000Y-58801000D02*
X53340000Y-58801000D01*
X35560000Y-58801000D02*
X53340000Y-58801000D01*
X35560000Y-58801000D02*
X53340000Y-58801000D01*
X35560000Y-58801000D02*
X53340000Y-58801000D01*
X35560000Y-58928000D02*
X53340000Y-58928000D01*
X35560000Y-58928000D02*
X53340000Y-58928000D01*
X35560000Y-58928000D02*
X53340000Y-58928000D01*
X35560000Y-58928000D02*
X53340000Y-58928000D01*
X35560000Y-58928000D02*
X53340000Y-58928000D01*
X35560000Y-59055000D02*
X53340000Y-59055000D01*
X35560000Y-59055000D02*
X53340000Y-59055000D01*
X35560000Y-59055000D02*
X53340000Y-59055000D01*
X35560000Y-59055000D02*
X53340000Y-59055000D01*
X35560000Y-59055000D02*
X53340000Y-59055000D01*
X35560000Y-59182000D02*
X53340000Y-59182000D01*
X35560000Y-59182000D02*
X53340000Y-59182000D01*
X35560000Y-59182000D02*
X53340000Y-59182000D01*
X35560000Y-59182000D02*
X53340000Y-59182000D01*
X35560000Y-59182000D02*
X53340000Y-59182000D01*
X35560000Y-59309000D02*
X53340000Y-59309000D01*
X35560000Y-59309000D02*
X53340000Y-59309000D01*
X35560000Y-59309000D02*
X53340000Y-59309000D01*
X35560000Y-59309000D02*
X53340000Y-59309000D01*
X35560000Y-59309000D02*
X53340000Y-59309000D01*
X35560000Y-59436000D02*
X53340000Y-59436000D01*
X35560000Y-59436000D02*
X53340000Y-59436000D01*
X35560000Y-59436000D02*
X53340000Y-59436000D01*
X35560000Y-59436000D02*
X53340000Y-59436000D01*
X35560000Y-59436000D02*
X53340000Y-59436000D01*
X35560000Y-59563000D02*
X53340000Y-59563000D01*
X35560000Y-59563000D02*
X53340000Y-59563000D01*
X35560000Y-59563000D02*
X53340000Y-59563000D01*
X35560000Y-59563000D02*
X53340000Y-59563000D01*
X35560000Y-59563000D02*
X53340000Y-59563000D01*
X35560000Y-59690000D02*
X53340000Y-59690000D01*
X35560000Y-59690000D02*
X53340000Y-59690000D01*
X35560000Y-59690000D02*
X53340000Y-59690000D01*
X35560000Y-59690000D02*
X53340000Y-59690000D01*
X35560000Y-59690000D02*
X53340000Y-59690000D01*
X35560000Y-59817000D02*
X53340000Y-59817000D01*
X35560000Y-59817000D02*
X53340000Y-59817000D01*
X35560000Y-59817000D02*
X53340000Y-59817000D01*
X35560000Y-59817000D02*
X53340000Y-59817000D01*
X35560000Y-59817000D02*
X53340000Y-59817000D01*
X35560000Y-59944000D02*
X53340000Y-59944000D01*
X35560000Y-59944000D02*
X53340000Y-59944000D01*
X35560000Y-59944000D02*
X53340000Y-59944000D01*
X35560000Y-59944000D02*
X53340000Y-59944000D01*
X35560000Y-59944000D02*
X53340000Y-59944000D01*
X35560000Y-60071000D02*
X53340000Y-60071000D01*
X35560000Y-60071000D02*
X53340000Y-60071000D01*
X35560000Y-60071000D02*
X53340000Y-60071000D01*
X35560000Y-60071000D02*
X53340000Y-60071000D01*
X35560000Y-60071000D02*
X53340000Y-60071000D01*
X35560000Y-60198000D02*
X53340000Y-60198000D01*
X35560000Y-60198000D02*
X53340000Y-60198000D01*
X35560000Y-60198000D02*
X53340000Y-60198000D01*
X35560000Y-60198000D02*
X53340000Y-60198000D01*
X35560000Y-60198000D02*
X53340000Y-60198000D01*
X35560000Y-60325000D02*
X53340000Y-60325000D01*
X35560000Y-60325000D02*
X53340000Y-60325000D01*
X35560000Y-60325000D02*
X53340000Y-60325000D01*
X35560000Y-60325000D02*
X53340000Y-60325000D01*
X35560000Y-60325000D02*
X53340000Y-60325000D01*
X35560000Y-60452000D02*
X53340000Y-60452000D01*
X35560000Y-60452000D02*
X53340000Y-60452000D01*
X35560000Y-60452000D02*
X53340000Y-60452000D01*
X35560000Y-60452000D02*
X53340000Y-60452000D01*
X35560000Y-60452000D02*
X53340000Y-60452000D01*
X35560000Y-60579000D02*
X53340000Y-60579000D01*
X35560000Y-60579000D02*
X53340000Y-60579000D01*
X35560000Y-60579000D02*
X53340000Y-60579000D01*
X35560000Y-60579000D02*
X53340000Y-60579000D01*
X35560000Y-60579000D02*
X53340000Y-60579000D01*
X35560000Y-60706000D02*
X53340000Y-60706000D01*
X35560000Y-60706000D02*
X53340000Y-60706000D01*
X35560000Y-60706000D02*
X53340000Y-60706000D01*
X35560000Y-60706000D02*
X53340000Y-60706000D01*
X35560000Y-60706000D02*
X53340000Y-60706000D01*
X35560000Y-60833000D02*
X53340000Y-60833000D01*
X35560000Y-60833000D02*
X53340000Y-60833000D01*
X35560000Y-60833000D02*
X53340000Y-60833000D01*
X35560000Y-60833000D02*
X53340000Y-60833000D01*
X35560000Y-60833000D02*
X53340000Y-60833000D01*
X35560000Y-60960000D02*
X53340000Y-60960000D01*
X35560000Y-60960000D02*
X53340000Y-60960000D01*
X35560000Y-60960000D02*
X53340000Y-60960000D01*
X35560000Y-60960000D02*
X53340000Y-60960000D01*
X35560000Y-60960000D02*
X53340000Y-60960000D01*
X35560000Y-61087000D02*
X53340000Y-61087000D01*
X35560000Y-61087000D02*
X53340000Y-61087000D01*
X35560000Y-61087000D02*
X53340000Y-61087000D01*
X35560000Y-61087000D02*
X53340000Y-61087000D01*
X35560000Y-61087000D02*
X53340000Y-61087000D01*
X35560000Y-61214000D02*
X53340000Y-61214000D01*
X35560000Y-61214000D02*
X53340000Y-61214000D01*
X35560000Y-61214000D02*
X53340000Y-61214000D01*
X35560000Y-61214000D02*
X53340000Y-61214000D01*
X35560000Y-61214000D02*
X53340000Y-61214000D01*
X35560000Y-61341000D02*
X53340000Y-61341000D01*
X35560000Y-61341000D02*
X53340000Y-61341000D01*
X35560000Y-61341000D02*
X53340000Y-61341000D01*
X35560000Y-61341000D02*
X53340000Y-61341000D01*
X35560000Y-61341000D02*
X53340000Y-61341000D01*
X35560000Y-61468000D02*
X53340000Y-61468000D01*
X35560000Y-61468000D02*
X53340000Y-61468000D01*
X35560000Y-61468000D02*
X53340000Y-61468000D01*
X35560000Y-61468000D02*
X53340000Y-61468000D01*
X35560000Y-61468000D02*
X53340000Y-61468000D01*
X35560000Y-61595000D02*
X53340000Y-61595000D01*
X35560000Y-61595000D02*
X53340000Y-61595000D01*
X35560000Y-61595000D02*
X53340000Y-61595000D01*
X35560000Y-61595000D02*
X53340000Y-61595000D01*
X35560000Y-61595000D02*
X53340000Y-61595000D01*
X35560000Y-61722000D02*
X53340000Y-61722000D01*
X35560000Y-61722000D02*
X53340000Y-61722000D01*
X35560000Y-61722000D02*
X53340000Y-61722000D01*
X35560000Y-61722000D02*
X53340000Y-61722000D01*
X35560000Y-61722000D02*
X53340000Y-61722000D01*
X35560000Y-61849000D02*
X53340000Y-61849000D01*
X35560000Y-61849000D02*
X53340000Y-61849000D01*
X35560000Y-61849000D02*
X53340000Y-61849000D01*
X35560000Y-61849000D02*
X53340000Y-61849000D01*
X35560000Y-61849000D02*
X53340000Y-61849000D01*
X35560000Y-61976000D02*
X53340000Y-61976000D01*
X35560000Y-61976000D02*
X53340000Y-61976000D01*
X35560000Y-61976000D02*
X53340000Y-61976000D01*
X35560000Y-61976000D02*
X53340000Y-61976000D01*
X35560000Y-61976000D02*
X53340000Y-61976000D01*
X35560000Y-62103000D02*
X53340000Y-62103000D01*
X35560000Y-62103000D02*
X53340000Y-62103000D01*
X35560000Y-62103000D02*
X53340000Y-62103000D01*
X35560000Y-62103000D02*
X53340000Y-62103000D01*
X35560000Y-62103000D02*
X53340000Y-62103000D01*
X35560000Y-62230000D02*
X53340000Y-62230000D01*
X35560000Y-62230000D02*
X53340000Y-62230000D01*
X35560000Y-62230000D02*
X53340000Y-62230000D01*
X35560000Y-62230000D02*
X53340000Y-62230000D01*
X35560000Y-62230000D02*
X53340000Y-62230000D01*
X35560000Y-62357000D02*
X53340000Y-62357000D01*
X35560000Y-62357000D02*
X53340000Y-62357000D01*
X35560000Y-62357000D02*
X53340000Y-62357000D01*
X35560000Y-62357000D02*
X53340000Y-62357000D01*
X35560000Y-62357000D02*
X53340000Y-62357000D01*
X35560000Y-62484000D02*
X53340000Y-62484000D01*
X35560000Y-62484000D02*
X53340000Y-62484000D01*
X35560000Y-62484000D02*
X53340000Y-62484000D01*
X35560000Y-62484000D02*
X53340000Y-62484000D01*
X35560000Y-62484000D02*
X53340000Y-62484000D01*
X35560000Y-62611000D02*
X53340000Y-62611000D01*
X35560000Y-62611000D02*
X53340000Y-62611000D01*
X35560000Y-62611000D02*
X53340000Y-62611000D01*
X35560000Y-62611000D02*
X53340000Y-62611000D01*
X35560000Y-62611000D02*
X53340000Y-62611000D01*
X35560000Y-62738000D02*
X53340000Y-62738000D01*
X35560000Y-62738000D02*
X53340000Y-62738000D01*
X35560000Y-62738000D02*
X53340000Y-62738000D01*
X35560000Y-62738000D02*
X53340000Y-62738000D01*
X35560000Y-62738000D02*
X53340000Y-62738000D01*
X35560000Y-62865000D02*
X53340000Y-62865000D01*
X35560000Y-62865000D02*
X53340000Y-62865000D01*
X35560000Y-62865000D02*
X53340000Y-62865000D01*
X35560000Y-62865000D02*
X53340000Y-62865000D01*
X35560000Y-62865000D02*
X53340000Y-62865000D01*
X35560000Y-62992000D02*
X53340000Y-62992000D01*
X35560000Y-62992000D02*
X53340000Y-62992000D01*
X35560000Y-62992000D02*
X53340000Y-62992000D01*
X35560000Y-62992000D02*
X53340000Y-62992000D01*
X35560000Y-62992000D02*
X53340000Y-62992000D01*
X35560000Y-63119000D02*
X53340000Y-63119000D01*
X35560000Y-63119000D02*
X53340000Y-63119000D01*
X35560000Y-63119000D02*
X53340000Y-63119000D01*
X35560000Y-63119000D02*
X53340000Y-63119000D01*
X35560000Y-63119000D02*
X53340000Y-63119000D01*
X35560000Y-63246000D02*
X53340000Y-63246000D01*
X35560000Y-63246000D02*
X53340000Y-63246000D01*
X35560000Y-63246000D02*
X53340000Y-63246000D01*
X35560000Y-63246000D02*
X53340000Y-63246000D01*
X35560000Y-63246000D02*
X53340000Y-63246000D01*
X35560000Y-63373000D02*
X53340000Y-63373000D01*
X35560000Y-63373000D02*
X53340000Y-63373000D01*
X35560000Y-63373000D02*
X53340000Y-63373000D01*
X35560000Y-63373000D02*
X53340000Y-63373000D01*
X35560000Y-63373000D02*
X53340000Y-63373000D01*
X35560000Y-63500000D02*
X53340000Y-63500000D01*
X35560000Y-63500000D02*
X53340000Y-63500000D01*
X35560000Y-63500000D02*
X53340000Y-63500000D01*
X35560000Y-63500000D02*
X53340000Y-63500000D01*
X35560000Y-63500000D02*
X53340000Y-63500000D01*
X35560000Y-63627000D02*
X53340000Y-63627000D01*
X35560000Y-63627000D02*
X53340000Y-63627000D01*
X35560000Y-63627000D02*
X53340000Y-63627000D01*
X35560000Y-63627000D02*
X53340000Y-63627000D01*
X35560000Y-63627000D02*
X53340000Y-63627000D01*
X35560000Y-63754000D02*
X53340000Y-63754000D01*
X35560000Y-63754000D02*
X53340000Y-63754000D01*
X35560000Y-63754000D02*
X53340000Y-63754000D01*
X35560000Y-63754000D02*
X53340000Y-63754000D01*
X35560000Y-63754000D02*
X53340000Y-63754000D01*
X35560000Y-63881000D02*
X53340000Y-63881000D01*
X35560000Y-63881000D02*
X53340000Y-63881000D01*
X35560000Y-63881000D02*
X53340000Y-63881000D01*
X35560000Y-63881000D02*
X53340000Y-63881000D01*
X35560000Y-63881000D02*
X53340000Y-63881000D01*
X35560000Y-64008000D02*
X53340000Y-64008000D01*
X35560000Y-64008000D02*
X53340000Y-64008000D01*
X35560000Y-64008000D02*
X53340000Y-64008000D01*
X35560000Y-64008000D02*
X53340000Y-64008000D01*
X35560000Y-64008000D02*
X53340000Y-64008000D01*
X35560000Y-64135000D02*
X53340000Y-64135000D01*
X35560000Y-64135000D02*
X53340000Y-64135000D01*
X35560000Y-64135000D02*
X53340000Y-64135000D01*
X35560000Y-64135000D02*
X53340000Y-64135000D01*
X35560000Y-64135000D02*
X53340000Y-64135000D01*
D12*
G04 #@! TO.C,BZ1*
X73156000Y-81544000D02*
G75*
G03X73156000Y-81544000I-6100000J0D01*
G01*
G04 #@! TO.C,R4*
X75692000Y-76986000D02*
X75692000Y-77756000D01*
X75692000Y-85066000D02*
X75692000Y-84296000D01*
X74322000Y-77756000D02*
X74322000Y-84296000D01*
X77062000Y-77756000D02*
X74322000Y-77756000D01*
X77062000Y-84296000D02*
X77062000Y-77756000D01*
X74322000Y-84296000D02*
X77062000Y-84296000D01*
G04 #@! TO.C,R2*
X25400000Y-49300000D02*
X25400000Y-50070000D01*
X25400000Y-57380000D02*
X25400000Y-56610000D01*
X24030000Y-50070000D02*
X24030000Y-56610000D01*
X26770000Y-50070000D02*
X24030000Y-50070000D01*
X26770000Y-56610000D02*
X26770000Y-50070000D01*
X24030000Y-56610000D02*
X26770000Y-56610000D01*
G04 #@! TO.C,C1*
X27489000Y-63670000D02*
X27489000Y-58330000D01*
X30931000Y-63670000D02*
X30931000Y-58330000D01*
X27489000Y-63670000D02*
X28155000Y-63670000D01*
X30265000Y-63670000D02*
X30931000Y-63670000D01*
X27489000Y-58330000D02*
X28155000Y-58330000D01*
X30265000Y-58330000D02*
X30931000Y-58330000D01*
G04 #@! TO.C,R6*
X26570000Y-82010000D02*
X29310000Y-82010000D01*
X29310000Y-82010000D02*
X29310000Y-75470000D01*
X29310000Y-75470000D02*
X26570000Y-75470000D01*
X26570000Y-75470000D02*
X26570000Y-82010000D01*
X27940000Y-82780000D02*
X27940000Y-82010000D01*
X27940000Y-74700000D02*
X27940000Y-75470000D01*
G04 #@! TO.C,R3*
X78386000Y-84296000D02*
X81126000Y-84296000D01*
X81126000Y-84296000D02*
X81126000Y-77756000D01*
X81126000Y-77756000D02*
X78386000Y-77756000D01*
X78386000Y-77756000D02*
X78386000Y-84296000D01*
X79756000Y-85066000D02*
X79756000Y-84296000D01*
X79756000Y-76986000D02*
X79756000Y-77756000D01*
G04 #@! TO.C,Q1*
X65858000Y-74190000D02*
X65858000Y-70590000D01*
X65846478Y-74228478D02*
G75*
G02X61408000Y-72390000I-1838478J1838478D01*
G01*
X65846478Y-70551522D02*
G75*
G03X61408000Y-72390000I-1838478J-1838478D01*
G01*
G04 #@! TO.C,R1*
X57812000Y-78962000D02*
X60552000Y-78962000D01*
X60552000Y-78962000D02*
X60552000Y-72422000D01*
X60552000Y-72422000D02*
X57812000Y-72422000D01*
X57812000Y-72422000D02*
X57812000Y-78962000D01*
X59182000Y-79732000D02*
X59182000Y-78962000D01*
X59182000Y-71652000D02*
X59182000Y-72422000D01*
G04 #@! TO.C,D1*
D13*
X25931904Y-38402380D02*
X25931904Y-37402380D01*
X26170000Y-37402380D01*
X26312857Y-37450000D01*
X26408095Y-37545238D01*
X26455714Y-37640476D01*
X26503333Y-37830952D01*
X26503333Y-37973809D01*
X26455714Y-38164285D01*
X26408095Y-38259523D01*
X26312857Y-38354761D01*
X26170000Y-38402380D01*
X25931904Y-38402380D01*
X27455714Y-38402380D02*
X26884285Y-38402380D01*
X27170000Y-38402380D02*
X27170000Y-37402380D01*
X27074761Y-37545238D01*
X26979523Y-37640476D01*
X26884285Y-37688095D01*
G04 #@! TO.C,D2*
X75969904Y-69286380D02*
X75969904Y-68286380D01*
X76208000Y-68286380D01*
X76350857Y-68334000D01*
X76446095Y-68429238D01*
X76493714Y-68524476D01*
X76541333Y-68714952D01*
X76541333Y-68857809D01*
X76493714Y-69048285D01*
X76446095Y-69143523D01*
X76350857Y-69238761D01*
X76208000Y-69286380D01*
X75969904Y-69286380D01*
X76922285Y-68381619D02*
X76969904Y-68334000D01*
X77065142Y-68286380D01*
X77303238Y-68286380D01*
X77398476Y-68334000D01*
X77446095Y-68381619D01*
X77493714Y-68476857D01*
X77493714Y-68572095D01*
X77446095Y-68714952D01*
X76874666Y-69286380D01*
X77493714Y-69286380D01*
G04 #@! TO.C,U2*
X67564095Y-38060380D02*
X67564095Y-38869904D01*
X67611714Y-38965142D01*
X67659333Y-39012761D01*
X67754571Y-39060380D01*
X67945047Y-39060380D01*
X68040285Y-39012761D01*
X68087904Y-38965142D01*
X68135523Y-38869904D01*
X68135523Y-38060380D01*
X68564095Y-38155619D02*
X68611714Y-38108000D01*
X68706952Y-38060380D01*
X68945047Y-38060380D01*
X69040285Y-38108000D01*
X69087904Y-38155619D01*
X69135523Y-38250857D01*
X69135523Y-38346095D01*
X69087904Y-38488952D01*
X68516476Y-39060380D01*
X69135523Y-39060380D01*
G04 #@! TO.C,D3*
X68349904Y-69794380D02*
X68349904Y-68794380D01*
X68588000Y-68794380D01*
X68730857Y-68842000D01*
X68826095Y-68937238D01*
X68873714Y-69032476D01*
X68921333Y-69222952D01*
X68921333Y-69365809D01*
X68873714Y-69556285D01*
X68826095Y-69651523D01*
X68730857Y-69746761D01*
X68588000Y-69794380D01*
X68349904Y-69794380D01*
X69254666Y-68794380D02*
X69873714Y-68794380D01*
X69540380Y-69175333D01*
X69683238Y-69175333D01*
X69778476Y-69222952D01*
X69826095Y-69270571D01*
X69873714Y-69365809D01*
X69873714Y-69603904D01*
X69826095Y-69699142D01*
X69778476Y-69746761D01*
X69683238Y-69794380D01*
X69397523Y-69794380D01*
X69302285Y-69746761D01*
X69254666Y-69699142D01*
G04 #@! TO.C,R5*
X26933333Y-65878380D02*
X26600000Y-65402190D01*
X26361904Y-65878380D02*
X26361904Y-64878380D01*
X26742857Y-64878380D01*
X26838095Y-64926000D01*
X26885714Y-64973619D01*
X26933333Y-65068857D01*
X26933333Y-65211714D01*
X26885714Y-65306952D01*
X26838095Y-65354571D01*
X26742857Y-65402190D01*
X26361904Y-65402190D01*
X27838095Y-64878380D02*
X27361904Y-64878380D01*
X27314285Y-65354571D01*
X27361904Y-65306952D01*
X27457142Y-65259333D01*
X27695238Y-65259333D01*
X27790476Y-65306952D01*
X27838095Y-65354571D01*
X27885714Y-65449809D01*
X27885714Y-65687904D01*
X27838095Y-65783142D01*
X27790476Y-65830761D01*
X27695238Y-65878380D01*
X27457142Y-65878380D01*
X27361904Y-65830761D01*
X27314285Y-65783142D01*
G04 #@! TO.C,U1*
X32766095Y-37044380D02*
X32766095Y-37853904D01*
X32813714Y-37949142D01*
X32861333Y-37996761D01*
X32956571Y-38044380D01*
X33147047Y-38044380D01*
X33242285Y-37996761D01*
X33289904Y-37949142D01*
X33337523Y-37853904D01*
X33337523Y-37044380D01*
X34337523Y-38044380D02*
X33766095Y-38044380D01*
X34051809Y-38044380D02*
X34051809Y-37044380D01*
X33956571Y-37187238D01*
X33861333Y-37282476D01*
X33766095Y-37330095D01*
G04 #@! TO.C,BZ1*
X60333047Y-86542571D02*
X60475904Y-86590190D01*
X60523523Y-86637809D01*
X60571142Y-86733047D01*
X60571142Y-86875904D01*
X60523523Y-86971142D01*
X60475904Y-87018761D01*
X60380666Y-87066380D01*
X59999714Y-87066380D01*
X59999714Y-86066380D01*
X60333047Y-86066380D01*
X60428285Y-86114000D01*
X60475904Y-86161619D01*
X60523523Y-86256857D01*
X60523523Y-86352095D01*
X60475904Y-86447333D01*
X60428285Y-86494952D01*
X60333047Y-86542571D01*
X59999714Y-86542571D01*
X60904476Y-86066380D02*
X61571142Y-86066380D01*
X60904476Y-87066380D01*
X61571142Y-87066380D01*
X62475904Y-87066380D02*
X61904476Y-87066380D01*
X62190190Y-87066380D02*
X62190190Y-86066380D01*
X62094952Y-86209238D01*
X61999714Y-86304476D01*
X61904476Y-86352095D01*
X64587428Y-85734952D02*
X64587428Y-84973047D01*
X64968380Y-85354000D02*
X64206476Y-85354000D01*
G04 #@! TO.C,R4*
X73493333Y-85288380D02*
X73160000Y-84812190D01*
X72921904Y-85288380D02*
X72921904Y-84288380D01*
X73302857Y-84288380D01*
X73398095Y-84336000D01*
X73445714Y-84383619D01*
X73493333Y-84478857D01*
X73493333Y-84621714D01*
X73445714Y-84716952D01*
X73398095Y-84764571D01*
X73302857Y-84812190D01*
X72921904Y-84812190D01*
X74350476Y-84621714D02*
X74350476Y-85288380D01*
X74112380Y-84240761D02*
X73874285Y-84955047D01*
X74493333Y-84955047D01*
G04 #@! TO.C,R2*
X22947333Y-51506380D02*
X22614000Y-51030190D01*
X22375904Y-51506380D02*
X22375904Y-50506380D01*
X22756857Y-50506380D01*
X22852095Y-50554000D01*
X22899714Y-50601619D01*
X22947333Y-50696857D01*
X22947333Y-50839714D01*
X22899714Y-50934952D01*
X22852095Y-50982571D01*
X22756857Y-51030190D01*
X22375904Y-51030190D01*
X23328285Y-50601619D02*
X23375904Y-50554000D01*
X23471142Y-50506380D01*
X23709238Y-50506380D01*
X23804476Y-50554000D01*
X23852095Y-50601619D01*
X23899714Y-50696857D01*
X23899714Y-50792095D01*
X23852095Y-50934952D01*
X23280666Y-51506380D01*
X23899714Y-51506380D01*
G04 #@! TO.C,C1*
X30059333Y-57507142D02*
X30011714Y-57554761D01*
X29868857Y-57602380D01*
X29773619Y-57602380D01*
X29630761Y-57554761D01*
X29535523Y-57459523D01*
X29487904Y-57364285D01*
X29440285Y-57173809D01*
X29440285Y-57030952D01*
X29487904Y-56840476D01*
X29535523Y-56745238D01*
X29630761Y-56650000D01*
X29773619Y-56602380D01*
X29868857Y-56602380D01*
X30011714Y-56650000D01*
X30059333Y-56697619D01*
X31011714Y-57602380D02*
X30440285Y-57602380D01*
X30726000Y-57602380D02*
X30726000Y-56602380D01*
X30630761Y-56745238D01*
X30535523Y-56840476D01*
X30440285Y-56888095D01*
G04 #@! TO.C,R6*
X24979333Y-81986380D02*
X24646000Y-81510190D01*
X24407904Y-81986380D02*
X24407904Y-80986380D01*
X24788857Y-80986380D01*
X24884095Y-81034000D01*
X24931714Y-81081619D01*
X24979333Y-81176857D01*
X24979333Y-81319714D01*
X24931714Y-81414952D01*
X24884095Y-81462571D01*
X24788857Y-81510190D01*
X24407904Y-81510190D01*
X25836476Y-80986380D02*
X25646000Y-80986380D01*
X25550761Y-81034000D01*
X25503142Y-81081619D01*
X25407904Y-81224476D01*
X25360285Y-81414952D01*
X25360285Y-81795904D01*
X25407904Y-81891142D01*
X25455523Y-81938761D01*
X25550761Y-81986380D01*
X25741238Y-81986380D01*
X25836476Y-81938761D01*
X25884095Y-81891142D01*
X25931714Y-81795904D01*
X25931714Y-81557809D01*
X25884095Y-81462571D01*
X25836476Y-81414952D01*
X25741238Y-81367333D01*
X25550761Y-81367333D01*
X25455523Y-81414952D01*
X25407904Y-81462571D01*
X25360285Y-81557809D01*
G04 #@! TO.C,R3*
X77557333Y-85542380D02*
X77224000Y-85066190D01*
X76985904Y-85542380D02*
X76985904Y-84542380D01*
X77366857Y-84542380D01*
X77462095Y-84590000D01*
X77509714Y-84637619D01*
X77557333Y-84732857D01*
X77557333Y-84875714D01*
X77509714Y-84970952D01*
X77462095Y-85018571D01*
X77366857Y-85066190D01*
X76985904Y-85066190D01*
X77890666Y-84542380D02*
X78509714Y-84542380D01*
X78176380Y-84923333D01*
X78319238Y-84923333D01*
X78414476Y-84970952D01*
X78462095Y-85018571D01*
X78509714Y-85113809D01*
X78509714Y-85351904D01*
X78462095Y-85447142D01*
X78414476Y-85494761D01*
X78319238Y-85542380D01*
X78033523Y-85542380D01*
X77938285Y-85494761D01*
X77890666Y-85447142D01*
G04 #@! TO.C,Q1*
X61372761Y-70143619D02*
X61277523Y-70096000D01*
X61182285Y-70000761D01*
X61039428Y-69857904D01*
X60944190Y-69810285D01*
X60848952Y-69810285D01*
X60896571Y-70048380D02*
X60801333Y-70000761D01*
X60706095Y-69905523D01*
X60658476Y-69715047D01*
X60658476Y-69381714D01*
X60706095Y-69191238D01*
X60801333Y-69096000D01*
X60896571Y-69048380D01*
X61087047Y-69048380D01*
X61182285Y-69096000D01*
X61277523Y-69191238D01*
X61325142Y-69381714D01*
X61325142Y-69715047D01*
X61277523Y-69905523D01*
X61182285Y-70000761D01*
X61087047Y-70048380D01*
X60896571Y-70048380D01*
X62277523Y-70048380D02*
X61706095Y-70048380D01*
X61991809Y-70048380D02*
X61991809Y-69048380D01*
X61896571Y-69191238D01*
X61801333Y-69286476D01*
X61706095Y-69334095D01*
G04 #@! TO.C,R1*
X59015333Y-83002380D02*
X58682000Y-82526190D01*
X58443904Y-83002380D02*
X58443904Y-82002380D01*
X58824857Y-82002380D01*
X58920095Y-82050000D01*
X58967714Y-82097619D01*
X59015333Y-82192857D01*
X59015333Y-82335714D01*
X58967714Y-82430952D01*
X58920095Y-82478571D01*
X58824857Y-82526190D01*
X58443904Y-82526190D01*
X59967714Y-83002380D02*
X59396285Y-83002380D01*
X59682000Y-83002380D02*
X59682000Y-82002380D01*
X59586761Y-82145238D01*
X59491523Y-82240476D01*
X59396285Y-82288095D01*
G04 #@! TD*
M02*
