G04 #@! TF.GenerationSoftware,KiCad,Pcbnew,5.0.0+dfsg1-1*
G04 #@! TF.CreationDate,2018-08-21T17:11:21+08:00*
G04 #@! TF.ProjectId,IOT,494F542E6B696361645F706362000000,rev?*
G04 #@! TF.SameCoordinates,Original*
G04 #@! TF.FileFunction,Copper,L2,Bot,Signal*
G04 #@! TF.FilePolarity,Positive*
%FSLAX46Y46*%
G04 Gerber Fmt 4.6, Leading zero omitted, Abs format (unit mm)*
G04 Created by KiCad (PCBNEW 5.0.0+dfsg1-1) date Tue Aug 21 17:11:21 2018*
%MOMM*%
%LPD*%
G01*
G04 APERTURE LIST*
G04 #@! TA.AperFunction,ComponentPad*
%ADD10R,1.800000X1.800000*%
G04 #@! TD*
G04 #@! TA.AperFunction,ComponentPad*
%ADD11C,1.800000*%
G04 #@! TD*
G04 #@! TA.AperFunction,WasherPad*
%ADD12C,3.500000*%
G04 #@! TD*
G04 #@! TA.AperFunction,ComponentPad*
%ADD13R,1.700000X1.700000*%
G04 #@! TD*
G04 #@! TA.AperFunction,ComponentPad*
%ADD14O,1.700000X1.700000*%
G04 #@! TD*
G04 #@! TA.AperFunction,ComponentPad*
%ADD15C,1.500000*%
G04 #@! TD*
G04 #@! TA.AperFunction,ComponentPad*
%ADD16R,2.000000X2.000000*%
G04 #@! TD*
G04 #@! TA.AperFunction,ComponentPad*
%ADD17C,2.000000*%
G04 #@! TD*
G04 #@! TA.AperFunction,ComponentPad*
%ADD18O,1.600000X1.600000*%
G04 #@! TD*
G04 #@! TA.AperFunction,ComponentPad*
%ADD19C,1.600000*%
G04 #@! TD*
G04 #@! TA.AperFunction,ComponentPad*
%ADD20C,1.300000*%
G04 #@! TD*
G04 #@! TA.AperFunction,ComponentPad*
%ADD21R,1.300000X1.300000*%
G04 #@! TD*
G04 APERTURE END LIST*
D10*
G04 #@! TO.P,D1,1*
G04 #@! TO.N,Net-(D1-Pad1)*
X25400000Y-41910000D03*
D11*
G04 #@! TO.P,D1,2*
G04 #@! TO.N,+3V3*
X27940000Y-41910000D03*
G04 #@! TD*
G04 #@! TO.P,D2,2*
G04 #@! TO.N,/GREEN_LED*
X78740000Y-71120000D03*
D10*
G04 #@! TO.P,D2,1*
G04 #@! TO.N,Net-(D2-Pad1)*
X81280000Y-71120000D03*
G04 #@! TD*
D12*
G04 #@! TO.P,U2,*
G04 #@! TO.N,*
X84251800Y-41402000D03*
X84277200Y-65176400D03*
X60960000Y-65201800D03*
D13*
G04 #@! TO.P,U2,1*
G04 #@! TO.N,+3V3*
X68834000Y-40894000D03*
D14*
G04 #@! TO.P,U2,2*
G04 #@! TO.N,GND*
X71374000Y-40894000D03*
G04 #@! TO.P,U2,3*
G04 #@! TO.N,/OLED_SCL*
X73914000Y-40894000D03*
G04 #@! TO.P,U2,4*
G04 #@! TO.N,/OLED_SDA*
X76454000Y-40894000D03*
D12*
G04 #@! TO.P,U2,*
G04 #@! TO.N,*
X60960000Y-41402000D03*
G04 #@! TD*
D10*
G04 #@! TO.P,D3,1*
G04 #@! TO.N,Net-(D3-Pad1)*
X74168000Y-71120000D03*
D11*
G04 #@! TO.P,D3,2*
G04 #@! TO.N,/RED_LED*
X71628000Y-71120000D03*
G04 #@! TD*
D15*
G04 #@! TO.P,R5,1*
G04 #@! TO.N,+3V3*
X25400000Y-68326000D03*
G04 #@! TO.P,R5,2*
G04 #@! TO.N,/LDR_ADC*
X28800000Y-68326000D03*
G04 #@! TD*
D14*
G04 #@! TO.P,U1,20*
G04 #@! TO.N,Net-(U1-Pad20)*
X55880000Y-85852000D03*
G04 #@! TO.P,U1,21*
G04 #@! TO.N,Net-(U1-Pad21)*
X55880000Y-83312000D03*
G04 #@! TO.P,U1,22*
G04 #@! TO.N,Net-(U1-Pad22)*
X55880000Y-80772000D03*
G04 #@! TO.P,U1,23*
G04 #@! TO.N,Net-(U1-Pad23)*
X55880000Y-78232000D03*
G04 #@! TO.P,U1,24*
G04 #@! TO.N,Net-(U1-Pad24)*
X55880000Y-75692000D03*
G04 #@! TO.P,U1,25*
G04 #@! TO.N,Net-(U1-Pad25)*
X55880000Y-73152000D03*
G04 #@! TO.P,U1,26*
G04 #@! TO.N,/BUZZER_CONTROL*
X55880000Y-70612000D03*
G04 #@! TO.P,U1,27*
G04 #@! TO.N,/RED_LED*
X55880000Y-68072000D03*
G04 #@! TO.P,U1,28*
G04 #@! TO.N,/GREEN_LED*
X55880000Y-65532000D03*
G04 #@! TO.P,U1,29*
G04 #@! TO.N,Net-(U1-Pad29)*
X55880000Y-62992000D03*
G04 #@! TO.P,U1,30*
G04 #@! TO.N,Net-(U1-Pad30)*
X55880000Y-60452000D03*
G04 #@! TO.P,U1,31*
G04 #@! TO.N,Net-(U1-Pad31)*
X55880000Y-57912000D03*
G04 #@! TO.P,U1,32*
G04 #@! TO.N,GND*
X55880000Y-55372000D03*
G04 #@! TO.P,U1,33*
G04 #@! TO.N,/OLED_SDA*
X55880000Y-52832000D03*
G04 #@! TO.P,U1,34*
G04 #@! TO.N,Net-(U1-Pad34)*
X55880000Y-50292000D03*
G04 #@! TO.P,U1,35*
G04 #@! TO.N,Net-(U1-Pad35)*
X55880000Y-47752000D03*
G04 #@! TO.P,U1,36*
G04 #@! TO.N,/OLED_SCL*
X55880000Y-45212000D03*
G04 #@! TO.P,U1,37*
G04 #@! TO.N,Net-(U1-Pad37)*
X55880000Y-42672000D03*
D13*
G04 #@! TO.P,U1,38*
G04 #@! TO.N,GND*
X55880000Y-40132000D03*
G04 #@! TO.P,U1,1*
G04 #@! TO.N,+3V3*
X33020000Y-40132000D03*
D14*
G04 #@! TO.P,U1,2*
G04 #@! TO.N,Net-(U1-Pad2)*
X33020000Y-42672000D03*
G04 #@! TO.P,U1,3*
G04 #@! TO.N,Net-(U1-Pad3)*
X33020000Y-45212000D03*
G04 #@! TO.P,U1,4*
G04 #@! TO.N,Net-(U1-Pad4)*
X33020000Y-47752000D03*
G04 #@! TO.P,U1,5*
G04 #@! TO.N,Net-(U1-Pad5)*
X33020000Y-50292000D03*
G04 #@! TO.P,U1,6*
G04 #@! TO.N,Net-(U1-Pad6)*
X33020000Y-52832000D03*
G04 #@! TO.P,U1,7*
G04 #@! TO.N,/LDR_ADC*
X33020000Y-55372000D03*
G04 #@! TO.P,U1,8*
G04 #@! TO.N,Net-(U1-Pad8)*
X33020000Y-57912000D03*
G04 #@! TO.P,U1,9*
G04 #@! TO.N,Net-(U1-Pad9)*
X33020000Y-60452000D03*
G04 #@! TO.P,U1,10*
G04 #@! TO.N,Net-(U1-Pad10)*
X33020000Y-62992000D03*
G04 #@! TO.P,U1,11*
G04 #@! TO.N,Net-(U1-Pad11)*
X33020000Y-65532000D03*
G04 #@! TO.P,U1,12*
G04 #@! TO.N,Net-(U1-Pad12)*
X33020000Y-68072000D03*
G04 #@! TO.P,U1,13*
G04 #@! TO.N,Net-(U1-Pad13)*
X33020000Y-70612000D03*
G04 #@! TO.P,U1,14*
G04 #@! TO.N,GND*
X33020000Y-73152000D03*
G04 #@! TO.P,U1,15*
G04 #@! TO.N,Net-(U1-Pad15)*
X33020000Y-75692000D03*
G04 #@! TO.P,U1,16*
G04 #@! TO.N,Net-(U1-Pad16)*
X33020000Y-78232000D03*
G04 #@! TO.P,U1,17*
G04 #@! TO.N,Net-(U1-Pad17)*
X33020000Y-80772000D03*
G04 #@! TO.P,U1,18*
G04 #@! TO.N,Net-(U1-Pad18)*
X33020000Y-83312000D03*
G04 #@! TO.P,U1,19*
G04 #@! TO.N,Net-(U1-Pad19)*
X33020000Y-85852000D03*
G04 #@! TD*
D16*
G04 #@! TO.P,BZ1,1*
G04 #@! TO.N,+3V3*
X67056000Y-85344000D03*
D17*
G04 #@! TO.P,BZ1,2*
G04 #@! TO.N,Net-(BZ1-Pad2)*
X67056000Y-77744000D03*
G04 #@! TD*
D18*
G04 #@! TO.P,R4,2*
G04 #@! TO.N,Net-(D3-Pad1)*
X75692000Y-75946000D03*
D19*
G04 #@! TO.P,R4,1*
G04 #@! TO.N,GND*
X75692000Y-86106000D03*
G04 #@! TD*
D18*
G04 #@! TO.P,R2,2*
G04 #@! TO.N,Net-(D1-Pad1)*
X25400000Y-48260000D03*
D19*
G04 #@! TO.P,R2,1*
G04 #@! TO.N,GND*
X25400000Y-58420000D03*
G04 #@! TD*
G04 #@! TO.P,C1,1*
G04 #@! TO.N,/LDR_ADC*
X29210000Y-63500000D03*
G04 #@! TO.P,C1,2*
G04 #@! TO.N,GND*
X29210000Y-58500000D03*
G04 #@! TD*
G04 #@! TO.P,R6,1*
G04 #@! TO.N,GND*
X27940000Y-83820000D03*
D18*
G04 #@! TO.P,R6,2*
G04 #@! TO.N,/LDR_ADC*
X27940000Y-73660000D03*
G04 #@! TD*
D19*
G04 #@! TO.P,R3,1*
G04 #@! TO.N,GND*
X79756000Y-86106000D03*
D18*
G04 #@! TO.P,R3,2*
G04 #@! TO.N,Net-(D2-Pad1)*
X79756000Y-75946000D03*
G04 #@! TD*
D20*
G04 #@! TO.P,Q1,2*
G04 #@! TO.N,Net-(Q1-Pad2)*
X62738000Y-72390000D03*
G04 #@! TO.P,Q1,3*
G04 #@! TO.N,Net-(BZ1-Pad2)*
X64008000Y-71120000D03*
D21*
G04 #@! TO.P,Q1,1*
G04 #@! TO.N,GND*
X64008000Y-73660000D03*
G04 #@! TD*
D19*
G04 #@! TO.P,R1,1*
G04 #@! TO.N,Net-(Q1-Pad2)*
X59182000Y-80772000D03*
D18*
G04 #@! TO.P,R1,2*
G04 #@! TO.N,/BUZZER_CONTROL*
X59182000Y-70612000D03*
G04 #@! TD*
M02*
