G04 #@! TF.GenerationSoftware,KiCad,Pcbnew,5.0.0+dfsg1-1*
G04 #@! TF.CreationDate,2018-09-23T15:10:03+08:00*
G04 #@! TF.ProjectId,IOT,494F542E6B696361645F706362000000,rev?*
G04 #@! TF.SameCoordinates,Original*
G04 #@! TF.FileFunction,Copper,L1,Top,Signal*
G04 #@! TF.FilePolarity,Positive*
%FSLAX46Y46*%
G04 Gerber Fmt 4.6, Leading zero omitted, Abs format (unit mm)*
G04 Created by KiCad (PCBNEW 5.0.0+dfsg1-1) date Sun Sep 23 15:10:03 2018*
%MOMM*%
%LPD*%
G01*
G04 APERTURE LIST*
G04 #@! TA.AperFunction,ComponentPad*
%ADD10R,1.800000X1.800000*%
G04 #@! TD*
G04 #@! TA.AperFunction,ComponentPad*
%ADD11C,1.800000*%
G04 #@! TD*
G04 #@! TA.AperFunction,WasherPad*
%ADD12C,3.500000*%
G04 #@! TD*
G04 #@! TA.AperFunction,ComponentPad*
%ADD13R,1.700000X1.700000*%
G04 #@! TD*
G04 #@! TA.AperFunction,ComponentPad*
%ADD14O,1.700000X1.700000*%
G04 #@! TD*
G04 #@! TA.AperFunction,ComponentPad*
%ADD15C,1.500000*%
G04 #@! TD*
G04 #@! TA.AperFunction,ComponentPad*
%ADD16R,2.000000X2.000000*%
G04 #@! TD*
G04 #@! TA.AperFunction,ComponentPad*
%ADD17C,2.000000*%
G04 #@! TD*
G04 #@! TA.AperFunction,ComponentPad*
%ADD18O,1.600000X1.600000*%
G04 #@! TD*
G04 #@! TA.AperFunction,ComponentPad*
%ADD19C,1.600000*%
G04 #@! TD*
G04 #@! TA.AperFunction,ComponentPad*
%ADD20C,1.300000*%
G04 #@! TD*
G04 #@! TA.AperFunction,ComponentPad*
%ADD21R,1.300000X1.300000*%
G04 #@! TD*
G04 #@! TA.AperFunction,Conductor*
%ADD22C,0.508000*%
G04 #@! TD*
G04 #@! TA.AperFunction,Conductor*
%ADD23C,0.762000*%
G04 #@! TD*
G04 #@! TA.AperFunction,Conductor*
%ADD24C,0.254000*%
G04 #@! TD*
G04 APERTURE END LIST*
D10*
G04 #@! TO.P,D1,1*
G04 #@! TO.N,Net-(D1-Pad1)*
X25400000Y-41910000D03*
D11*
G04 #@! TO.P,D1,2*
G04 #@! TO.N,+3V3*
X27940000Y-41910000D03*
G04 #@! TD*
G04 #@! TO.P,D2,2*
G04 #@! TO.N,/GREEN_LED*
X78740000Y-71120000D03*
D10*
G04 #@! TO.P,D2,1*
G04 #@! TO.N,Net-(D2-Pad1)*
X81280000Y-71120000D03*
G04 #@! TD*
D12*
G04 #@! TO.P,U2,*
G04 #@! TO.N,*
X84251800Y-41402000D03*
X84277200Y-65176400D03*
X60960000Y-65201800D03*
D13*
G04 #@! TO.P,U2,1*
G04 #@! TO.N,GND*
X68834000Y-40894000D03*
D14*
G04 #@! TO.P,U2,2*
G04 #@! TO.N,+3V3*
X71374000Y-40894000D03*
G04 #@! TO.P,U2,3*
G04 #@! TO.N,/OLED_SCL*
X73914000Y-40894000D03*
G04 #@! TO.P,U2,4*
G04 #@! TO.N,/OLED_SDA*
X76454000Y-40894000D03*
D12*
G04 #@! TO.P,U2,*
G04 #@! TO.N,*
X60960000Y-41402000D03*
G04 #@! TD*
D10*
G04 #@! TO.P,D3,1*
G04 #@! TO.N,Net-(D3-Pad1)*
X74168000Y-71120000D03*
D11*
G04 #@! TO.P,D3,2*
G04 #@! TO.N,/RED_LED*
X71628000Y-71120000D03*
G04 #@! TD*
D15*
G04 #@! TO.P,R5,1*
G04 #@! TO.N,+3V3*
X25400000Y-68326000D03*
G04 #@! TO.P,R5,2*
G04 #@! TO.N,/LDR_ADC*
X28800000Y-68326000D03*
G04 #@! TD*
D14*
G04 #@! TO.P,U1,20*
G04 #@! TO.N,Net-(U1-Pad20)*
X55880000Y-85852000D03*
G04 #@! TO.P,U1,21*
G04 #@! TO.N,Net-(U1-Pad21)*
X55880000Y-83312000D03*
G04 #@! TO.P,U1,22*
G04 #@! TO.N,Net-(U1-Pad22)*
X55880000Y-80772000D03*
G04 #@! TO.P,U1,23*
G04 #@! TO.N,Net-(U1-Pad23)*
X55880000Y-78232000D03*
G04 #@! TO.P,U1,24*
G04 #@! TO.N,Net-(U1-Pad24)*
X55880000Y-75692000D03*
G04 #@! TO.P,U1,25*
G04 #@! TO.N,Net-(U1-Pad25)*
X55880000Y-73152000D03*
G04 #@! TO.P,U1,26*
G04 #@! TO.N,/BUZZER_CONTROL*
X55880000Y-70612000D03*
G04 #@! TO.P,U1,27*
G04 #@! TO.N,/RED_LED*
X55880000Y-68072000D03*
G04 #@! TO.P,U1,28*
G04 #@! TO.N,/GREEN_LED*
X55880000Y-65532000D03*
G04 #@! TO.P,U1,29*
G04 #@! TO.N,Net-(U1-Pad29)*
X55880000Y-62992000D03*
G04 #@! TO.P,U1,30*
G04 #@! TO.N,Net-(U1-Pad30)*
X55880000Y-60452000D03*
G04 #@! TO.P,U1,31*
G04 #@! TO.N,Net-(U1-Pad31)*
X55880000Y-57912000D03*
G04 #@! TO.P,U1,32*
G04 #@! TO.N,GND*
X55880000Y-55372000D03*
G04 #@! TO.P,U1,33*
G04 #@! TO.N,/OLED_SDA*
X55880000Y-52832000D03*
G04 #@! TO.P,U1,34*
G04 #@! TO.N,Net-(U1-Pad34)*
X55880000Y-50292000D03*
G04 #@! TO.P,U1,35*
G04 #@! TO.N,Net-(U1-Pad35)*
X55880000Y-47752000D03*
G04 #@! TO.P,U1,36*
G04 #@! TO.N,/OLED_SCL*
X55880000Y-45212000D03*
G04 #@! TO.P,U1,37*
G04 #@! TO.N,Net-(U1-Pad37)*
X55880000Y-42672000D03*
D13*
G04 #@! TO.P,U1,38*
G04 #@! TO.N,GND*
X55880000Y-40132000D03*
G04 #@! TO.P,U1,1*
G04 #@! TO.N,+3V3*
X33020000Y-40132000D03*
D14*
G04 #@! TO.P,U1,2*
G04 #@! TO.N,Net-(U1-Pad2)*
X33020000Y-42672000D03*
G04 #@! TO.P,U1,3*
G04 #@! TO.N,Net-(U1-Pad3)*
X33020000Y-45212000D03*
G04 #@! TO.P,U1,4*
G04 #@! TO.N,Net-(U1-Pad4)*
X33020000Y-47752000D03*
G04 #@! TO.P,U1,5*
G04 #@! TO.N,Net-(U1-Pad5)*
X33020000Y-50292000D03*
G04 #@! TO.P,U1,6*
G04 #@! TO.N,Net-(U1-Pad6)*
X33020000Y-52832000D03*
G04 #@! TO.P,U1,7*
G04 #@! TO.N,/LDR_ADC*
X33020000Y-55372000D03*
G04 #@! TO.P,U1,8*
G04 #@! TO.N,Net-(U1-Pad8)*
X33020000Y-57912000D03*
G04 #@! TO.P,U1,9*
G04 #@! TO.N,Net-(U1-Pad9)*
X33020000Y-60452000D03*
G04 #@! TO.P,U1,10*
G04 #@! TO.N,Net-(U1-Pad10)*
X33020000Y-62992000D03*
G04 #@! TO.P,U1,11*
G04 #@! TO.N,Net-(U1-Pad11)*
X33020000Y-65532000D03*
G04 #@! TO.P,U1,12*
G04 #@! TO.N,Net-(U1-Pad12)*
X33020000Y-68072000D03*
G04 #@! TO.P,U1,13*
G04 #@! TO.N,Net-(U1-Pad13)*
X33020000Y-70612000D03*
G04 #@! TO.P,U1,14*
G04 #@! TO.N,GND*
X33020000Y-73152000D03*
G04 #@! TO.P,U1,15*
G04 #@! TO.N,Net-(U1-Pad15)*
X33020000Y-75692000D03*
G04 #@! TO.P,U1,16*
G04 #@! TO.N,Net-(U1-Pad16)*
X33020000Y-78232000D03*
G04 #@! TO.P,U1,17*
G04 #@! TO.N,Net-(U1-Pad17)*
X33020000Y-80772000D03*
G04 #@! TO.P,U1,18*
G04 #@! TO.N,Net-(U1-Pad18)*
X33020000Y-83312000D03*
G04 #@! TO.P,U1,19*
G04 #@! TO.N,Net-(U1-Pad19)*
X33020000Y-85852000D03*
G04 #@! TD*
D16*
G04 #@! TO.P,BZ1,1*
G04 #@! TO.N,+3V3*
X67056000Y-85344000D03*
D17*
G04 #@! TO.P,BZ1,2*
G04 #@! TO.N,Net-(BZ1-Pad2)*
X67056000Y-77744000D03*
G04 #@! TD*
D18*
G04 #@! TO.P,R4,2*
G04 #@! TO.N,Net-(D3-Pad1)*
X75692000Y-75946000D03*
D19*
G04 #@! TO.P,R4,1*
G04 #@! TO.N,GND*
X75692000Y-86106000D03*
G04 #@! TD*
D18*
G04 #@! TO.P,R2,2*
G04 #@! TO.N,Net-(D1-Pad1)*
X25400000Y-48260000D03*
D19*
G04 #@! TO.P,R2,1*
G04 #@! TO.N,GND*
X25400000Y-58420000D03*
G04 #@! TD*
G04 #@! TO.P,C1,1*
G04 #@! TO.N,/LDR_ADC*
X29210000Y-63500000D03*
G04 #@! TO.P,C1,2*
G04 #@! TO.N,GND*
X29210000Y-58500000D03*
G04 #@! TD*
G04 #@! TO.P,R6,1*
G04 #@! TO.N,GND*
X27940000Y-83820000D03*
D18*
G04 #@! TO.P,R6,2*
G04 #@! TO.N,/LDR_ADC*
X27940000Y-73660000D03*
G04 #@! TD*
D19*
G04 #@! TO.P,R3,1*
G04 #@! TO.N,GND*
X79756000Y-86106000D03*
D18*
G04 #@! TO.P,R3,2*
G04 #@! TO.N,Net-(D2-Pad1)*
X79756000Y-75946000D03*
G04 #@! TD*
D20*
G04 #@! TO.P,Q1,2*
G04 #@! TO.N,Net-(Q1-Pad2)*
X62738000Y-72390000D03*
G04 #@! TO.P,Q1,3*
G04 #@! TO.N,Net-(BZ1-Pad2)*
X64008000Y-71120000D03*
D21*
G04 #@! TO.P,Q1,1*
G04 #@! TO.N,GND*
X64008000Y-73660000D03*
G04 #@! TD*
D19*
G04 #@! TO.P,R1,1*
G04 #@! TO.N,Net-(Q1-Pad2)*
X59182000Y-80772000D03*
D18*
G04 #@! TO.P,R1,2*
G04 #@! TO.N,/BUZZER_CONTROL*
X59182000Y-70612000D03*
G04 #@! TD*
D22*
G04 #@! TO.N,Net-(Q1-Pad2)*
X59182000Y-80772000D02*
X59182000Y-75946000D01*
X59182000Y-75946000D02*
X62738000Y-72390000D01*
G04 #@! TO.N,/BUZZER_CONTROL*
X55880000Y-70612000D02*
X59182000Y-70612000D01*
G04 #@! TO.N,Net-(D1-Pad1)*
X25400000Y-48260000D02*
X25400000Y-41910000D01*
D23*
G04 #@! TO.N,GND*
X34798000Y-73152000D02*
X33020000Y-73152000D01*
X53340000Y-54610000D02*
X34798000Y-73152000D01*
X55880000Y-55372000D02*
X52578000Y-55372000D01*
X52578000Y-55372000D02*
X53340000Y-54610000D01*
X29972000Y-77978000D02*
X30480000Y-77470000D01*
X30480000Y-77470000D02*
X30480000Y-75692000D01*
X30480000Y-75692000D02*
X33020000Y-73152000D01*
X25400000Y-58420000D02*
X29130000Y-58420000D01*
X29130000Y-58420000D02*
X29210000Y-58500000D01*
X33020000Y-73152000D02*
X32512000Y-73152000D01*
X30988000Y-60278000D02*
X29210000Y-58500000D01*
X30988000Y-71628000D02*
X30988000Y-60278000D01*
X32512000Y-73152000D02*
X30988000Y-71628000D01*
X27940000Y-83820000D02*
X28194000Y-83820000D01*
X29972000Y-82042000D02*
X29972000Y-77978000D01*
X28194000Y-83820000D02*
X29972000Y-82042000D01*
X55880000Y-40132000D02*
X57404000Y-38608000D01*
X57404000Y-38608000D02*
X64262000Y-38608000D01*
X64262000Y-38608000D02*
X64262000Y-38608000D01*
X33020000Y-73152000D02*
X36068000Y-73152000D01*
X50292000Y-87376000D02*
X50038000Y-87122000D01*
X51054000Y-87376000D02*
X50292000Y-87376000D01*
X51054000Y-87376000D02*
X57658000Y-87376000D01*
X36068000Y-73152000D02*
X50038000Y-87122000D01*
X62230000Y-82804000D02*
X62230000Y-75438000D01*
X57658000Y-87376000D02*
X62230000Y-82804000D01*
X62230000Y-75438000D02*
X64008000Y-73660000D01*
X75692000Y-86106000D02*
X79756000Y-86106000D01*
X75692000Y-86106000D02*
X71120000Y-86106000D01*
X69850000Y-87376000D02*
X70104000Y-87122000D01*
X69850000Y-87376000D02*
X57658000Y-87376000D01*
X71120000Y-86106000D02*
X70104000Y-87122000D01*
X57912000Y-87122000D02*
X57658000Y-87376000D01*
X55880000Y-40132000D02*
X55626000Y-40132000D01*
X54102000Y-53848000D02*
X52578000Y-55372000D01*
X54102000Y-41656000D02*
X54102000Y-53848000D01*
X55626000Y-40132000D02*
X54102000Y-41656000D01*
X64262000Y-38608000D02*
X66548000Y-38608000D01*
X66548000Y-38608000D02*
X68834000Y-40894000D01*
D22*
G04 #@! TO.N,Net-(D2-Pad1)*
X81280000Y-71120000D02*
X81280000Y-74422000D01*
X81280000Y-74422000D02*
X79756000Y-75946000D01*
G04 #@! TO.N,Net-(D3-Pad1)*
X75692000Y-75946000D02*
X75692000Y-72644000D01*
X75692000Y-72644000D02*
X74168000Y-71120000D01*
G04 #@! TO.N,/LDR_ADC*
X29210000Y-63500000D02*
X29210000Y-67916000D01*
X29210000Y-67916000D02*
X28800000Y-68326000D01*
X27940000Y-73660000D02*
X27940000Y-69186000D01*
X27940000Y-69186000D02*
X28800000Y-68326000D01*
X29210000Y-63500000D02*
X26924000Y-63500000D01*
X26924000Y-63500000D02*
X23876000Y-60452000D01*
X25400000Y-55372000D02*
X33020000Y-55372000D01*
X25400000Y-55372000D02*
X23876000Y-56896000D01*
X23876000Y-56896000D02*
X23876000Y-60452000D01*
G04 #@! TO.N,Net-(BZ1-Pad2)*
X64008000Y-71120000D02*
X66040000Y-73152000D01*
X66040000Y-76728000D02*
X67056000Y-77744000D01*
X66040000Y-75946000D02*
X66040000Y-76728000D01*
X66040000Y-75946000D02*
X66040000Y-73152000D01*
D23*
G04 #@! TO.N,+3V3*
X33020000Y-40132000D02*
X29718000Y-40132000D01*
X29718000Y-40132000D02*
X27940000Y-41910000D01*
X29718000Y-40132000D02*
X29210000Y-39624000D01*
X25400000Y-63754000D02*
X25400000Y-68326000D01*
X22860000Y-61214000D02*
X25400000Y-63754000D01*
X22860000Y-53340000D02*
X22860000Y-61214000D01*
X29210000Y-39624000D02*
X23368000Y-39624000D01*
X23368000Y-39624000D02*
X22860000Y-40132000D01*
X22860000Y-40132000D02*
X22860000Y-53340000D01*
X33020000Y-40132000D02*
X33020000Y-38354000D01*
X34036000Y-37338000D02*
X64770000Y-37338000D01*
X64770000Y-37338000D02*
X65278000Y-37338000D01*
X33020000Y-38354000D02*
X34036000Y-37338000D01*
X64770000Y-37338000D02*
X68580000Y-37338000D01*
X68580000Y-37338000D02*
X78740000Y-37338000D01*
X80010000Y-38354000D02*
X80010000Y-62992000D01*
X79248000Y-37592000D02*
X80010000Y-38354000D01*
X78994000Y-37592000D02*
X79248000Y-37592000D01*
X78740000Y-37338000D02*
X78994000Y-37592000D01*
X67056000Y-85344000D02*
X67056000Y-85090000D01*
X80010000Y-66548000D02*
X80010000Y-62992000D01*
X83566000Y-70104000D02*
X80010000Y-66548000D01*
X83566000Y-78232000D02*
X83566000Y-70104000D01*
X83058000Y-78740000D02*
X83566000Y-78232000D01*
X81026000Y-80772000D02*
X83058000Y-78740000D01*
X71374000Y-80772000D02*
X81026000Y-80772000D01*
X67056000Y-85090000D02*
X71374000Y-80772000D01*
X68580000Y-37338000D02*
X69088000Y-37338000D01*
X71374000Y-39624000D02*
X71374000Y-40894000D01*
X69088000Y-37338000D02*
X71374000Y-39624000D01*
D22*
G04 #@! TO.N,/GREEN_LED*
X55880000Y-65532000D02*
X56134000Y-65532000D01*
X75946000Y-68326000D02*
X78740000Y-71120000D01*
X58928000Y-68326000D02*
X75946000Y-68326000D01*
X56134000Y-65532000D02*
X58928000Y-68326000D01*
G04 #@! TO.N,/RED_LED*
X71628000Y-71120000D02*
X68580000Y-71120000D01*
X66802000Y-69342000D02*
X60452000Y-69342000D01*
X68580000Y-71120000D02*
X66802000Y-69342000D01*
X55880000Y-68072000D02*
X56134000Y-68072000D01*
X57404000Y-69342000D02*
X60452000Y-69342000D01*
X56134000Y-68072000D02*
X57404000Y-69342000D01*
G04 #@! TO.N,/OLED_SCL*
X73914000Y-40894000D02*
X73914000Y-41910000D01*
X70612000Y-45212000D02*
X55880000Y-45212000D01*
X73914000Y-41910000D02*
X70612000Y-45212000D01*
G04 #@! TO.N,/OLED_SDA*
X76454000Y-43180000D02*
X76454000Y-40894000D01*
X73152000Y-46482000D02*
X76454000Y-43180000D01*
X55880000Y-52832000D02*
X60960000Y-52832000D01*
X60960000Y-52832000D02*
X66802000Y-52832000D01*
X66802000Y-52832000D02*
X73152000Y-46482000D01*
G04 #@! TD*
D24*
G04 #@! TO.N,GND*
G36*
X86412000Y-40384880D02*
X86273705Y-40051006D01*
X85602794Y-39380095D01*
X84726206Y-39017000D01*
X83777394Y-39017000D01*
X82900806Y-39380095D01*
X82229895Y-40051006D01*
X81866800Y-40927594D01*
X81866800Y-41876406D01*
X82229895Y-42752994D01*
X82900806Y-43423905D01*
X83777394Y-43787000D01*
X84726206Y-43787000D01*
X85602794Y-43423905D01*
X86273705Y-42752994D01*
X86412000Y-42419120D01*
X86412001Y-64097960D01*
X86299105Y-63825406D01*
X85628194Y-63154495D01*
X84751606Y-62791400D01*
X83802794Y-62791400D01*
X82926206Y-63154495D01*
X82255295Y-63825406D01*
X81892200Y-64701994D01*
X81892200Y-65650806D01*
X82255295Y-66527394D01*
X82926206Y-67198305D01*
X83802794Y-67561400D01*
X84751606Y-67561400D01*
X85628194Y-67198305D01*
X86299105Y-66527394D01*
X86412001Y-66254840D01*
X86412001Y-87682000D01*
X22300000Y-87682000D01*
X22300000Y-84827745D01*
X27111861Y-84827745D01*
X27185995Y-85073864D01*
X27723223Y-85266965D01*
X28293454Y-85239778D01*
X28694005Y-85073864D01*
X28768139Y-84827745D01*
X27940000Y-83999605D01*
X27111861Y-84827745D01*
X22300000Y-84827745D01*
X22300000Y-83603223D01*
X26493035Y-83603223D01*
X26520222Y-84173454D01*
X26686136Y-84574005D01*
X26932255Y-84648139D01*
X27760395Y-83820000D01*
X28119605Y-83820000D01*
X28947745Y-84648139D01*
X29193864Y-84574005D01*
X29386965Y-84036777D01*
X29359778Y-83466546D01*
X29193864Y-83065995D01*
X28947745Y-82991861D01*
X28119605Y-83820000D01*
X27760395Y-83820000D01*
X26932255Y-82991861D01*
X26686136Y-83065995D01*
X26493035Y-83603223D01*
X22300000Y-83603223D01*
X22300000Y-82812255D01*
X27111861Y-82812255D01*
X27940000Y-83640395D01*
X28768139Y-82812255D01*
X28694005Y-82566136D01*
X28156777Y-82373035D01*
X27586546Y-82400222D01*
X27185995Y-82566136D01*
X27111861Y-82812255D01*
X22300000Y-82812255D01*
X22300000Y-75692000D01*
X31505908Y-75692000D01*
X31621161Y-76271418D01*
X31949375Y-76762625D01*
X32247761Y-76962000D01*
X31949375Y-77161375D01*
X31621161Y-77652582D01*
X31505908Y-78232000D01*
X31621161Y-78811418D01*
X31949375Y-79302625D01*
X32247761Y-79502000D01*
X31949375Y-79701375D01*
X31621161Y-80192582D01*
X31505908Y-80772000D01*
X31621161Y-81351418D01*
X31949375Y-81842625D01*
X32247761Y-82042000D01*
X31949375Y-82241375D01*
X31621161Y-82732582D01*
X31505908Y-83312000D01*
X31621161Y-83891418D01*
X31949375Y-84382625D01*
X32247761Y-84582000D01*
X31949375Y-84781375D01*
X31621161Y-85272582D01*
X31505908Y-85852000D01*
X31621161Y-86431418D01*
X31949375Y-86922625D01*
X32440582Y-87250839D01*
X32873744Y-87337000D01*
X33166256Y-87337000D01*
X33599418Y-87250839D01*
X34090625Y-86922625D01*
X34418839Y-86431418D01*
X34534092Y-85852000D01*
X34418839Y-85272582D01*
X34090625Y-84781375D01*
X33792239Y-84582000D01*
X34090625Y-84382625D01*
X34418839Y-83891418D01*
X34534092Y-83312000D01*
X34418839Y-82732582D01*
X34090625Y-82241375D01*
X33792239Y-82042000D01*
X34090625Y-81842625D01*
X34418839Y-81351418D01*
X34534092Y-80772000D01*
X34418839Y-80192582D01*
X34090625Y-79701375D01*
X33792239Y-79502000D01*
X34090625Y-79302625D01*
X34418839Y-78811418D01*
X34534092Y-78232000D01*
X34418839Y-77652582D01*
X34090625Y-77161375D01*
X33792239Y-76962000D01*
X34090625Y-76762625D01*
X34418839Y-76271418D01*
X34534092Y-75692000D01*
X34418839Y-75112582D01*
X34090625Y-74621375D01*
X33771522Y-74408157D01*
X33901358Y-74347183D01*
X34291645Y-73918924D01*
X34461476Y-73508890D01*
X34340155Y-73279000D01*
X33147000Y-73279000D01*
X33147000Y-73299000D01*
X32893000Y-73299000D01*
X32893000Y-73279000D01*
X31699845Y-73279000D01*
X31578524Y-73508890D01*
X31748355Y-73918924D01*
X32138642Y-74347183D01*
X32268478Y-74408157D01*
X31949375Y-74621375D01*
X31621161Y-75112582D01*
X31505908Y-75692000D01*
X22300000Y-75692000D01*
X22300000Y-62090840D01*
X24384000Y-64174841D01*
X24384001Y-67383312D01*
X24225853Y-67541460D01*
X24015000Y-68050506D01*
X24015000Y-68601494D01*
X24225853Y-69110540D01*
X24615460Y-69500147D01*
X25124506Y-69711000D01*
X25675494Y-69711000D01*
X26184540Y-69500147D01*
X26574147Y-69110540D01*
X26785000Y-68601494D01*
X26785000Y-68050506D01*
X26574147Y-67541460D01*
X26416000Y-67383313D01*
X26416000Y-64229756D01*
X26577130Y-64337419D01*
X26836444Y-64389000D01*
X26836445Y-64389000D01*
X26924000Y-64406416D01*
X27011555Y-64389000D01*
X28069604Y-64389000D01*
X28321000Y-64640396D01*
X28321001Y-67025294D01*
X28015460Y-67151853D01*
X27625853Y-67541460D01*
X27415000Y-68050506D01*
X27415000Y-68453765D01*
X27373294Y-68495471D01*
X27299068Y-68545067D01*
X27249472Y-68619293D01*
X27249471Y-68619294D01*
X27102582Y-68839130D01*
X27033584Y-69186000D01*
X27051001Y-69273559D01*
X27051000Y-72528151D01*
X26905423Y-72625423D01*
X26588260Y-73100091D01*
X26476887Y-73660000D01*
X26588260Y-74219909D01*
X26905423Y-74694577D01*
X27380091Y-75011740D01*
X27798667Y-75095000D01*
X28081333Y-75095000D01*
X28499909Y-75011740D01*
X28974577Y-74694577D01*
X29291740Y-74219909D01*
X29403113Y-73660000D01*
X29291740Y-73100091D01*
X28974577Y-72625423D01*
X28829000Y-72528152D01*
X28829000Y-69711000D01*
X29075494Y-69711000D01*
X29584540Y-69500147D01*
X29974147Y-69110540D01*
X30185000Y-68601494D01*
X30185000Y-68050506D01*
X30104526Y-67856223D01*
X30099000Y-67828444D01*
X30099000Y-64640396D01*
X30426534Y-64312862D01*
X30645000Y-63785439D01*
X30645000Y-63214561D01*
X30426534Y-62687138D01*
X30022862Y-62283466D01*
X29495439Y-62065000D01*
X28924561Y-62065000D01*
X28397138Y-62283466D01*
X28069604Y-62611000D01*
X27292236Y-62611000D01*
X24765000Y-60083765D01*
X24765000Y-59716639D01*
X25183223Y-59866965D01*
X25753454Y-59839778D01*
X26154005Y-59673864D01*
X26204042Y-59507745D01*
X28381861Y-59507745D01*
X28455995Y-59753864D01*
X28993223Y-59946965D01*
X29563454Y-59919778D01*
X29964005Y-59753864D01*
X30038139Y-59507745D01*
X29210000Y-58679605D01*
X28381861Y-59507745D01*
X26204042Y-59507745D01*
X26228139Y-59427745D01*
X25400000Y-58599605D01*
X25385858Y-58613748D01*
X25206252Y-58434142D01*
X25220395Y-58420000D01*
X25579605Y-58420000D01*
X26407745Y-59248139D01*
X26653864Y-59174005D01*
X26846965Y-58636777D01*
X26830109Y-58283223D01*
X27763035Y-58283223D01*
X27790222Y-58853454D01*
X27956136Y-59254005D01*
X28202255Y-59328139D01*
X29030395Y-58500000D01*
X29389605Y-58500000D01*
X30217745Y-59328139D01*
X30463864Y-59254005D01*
X30656965Y-58716777D01*
X30629778Y-58146546D01*
X30463864Y-57745995D01*
X30217745Y-57671861D01*
X29389605Y-58500000D01*
X29030395Y-58500000D01*
X28202255Y-57671861D01*
X27956136Y-57745995D01*
X27763035Y-58283223D01*
X26830109Y-58283223D01*
X26819778Y-58066546D01*
X26653864Y-57665995D01*
X26407745Y-57591861D01*
X25579605Y-58420000D01*
X25220395Y-58420000D01*
X25206252Y-58405858D01*
X25385858Y-58226252D01*
X25400000Y-58240395D01*
X26148139Y-57492255D01*
X28381861Y-57492255D01*
X29210000Y-58320395D01*
X30038139Y-57492255D01*
X29964005Y-57246136D01*
X29426777Y-57053035D01*
X28856546Y-57080222D01*
X28455995Y-57246136D01*
X28381861Y-57492255D01*
X26148139Y-57492255D01*
X26228139Y-57412255D01*
X26154005Y-57166136D01*
X25616777Y-56973035D01*
X25046546Y-57000222D01*
X25016616Y-57012620D01*
X25768236Y-56261000D01*
X31828017Y-56261000D01*
X31949375Y-56442625D01*
X32247761Y-56642000D01*
X31949375Y-56841375D01*
X31621161Y-57332582D01*
X31505908Y-57912000D01*
X31621161Y-58491418D01*
X31949375Y-58982625D01*
X32247761Y-59182000D01*
X31949375Y-59381375D01*
X31621161Y-59872582D01*
X31505908Y-60452000D01*
X31621161Y-61031418D01*
X31949375Y-61522625D01*
X32247761Y-61722000D01*
X31949375Y-61921375D01*
X31621161Y-62412582D01*
X31505908Y-62992000D01*
X31621161Y-63571418D01*
X31949375Y-64062625D01*
X32247761Y-64262000D01*
X31949375Y-64461375D01*
X31621161Y-64952582D01*
X31505908Y-65532000D01*
X31621161Y-66111418D01*
X31949375Y-66602625D01*
X32247761Y-66802000D01*
X31949375Y-67001375D01*
X31621161Y-67492582D01*
X31505908Y-68072000D01*
X31621161Y-68651418D01*
X31949375Y-69142625D01*
X32247761Y-69342000D01*
X31949375Y-69541375D01*
X31621161Y-70032582D01*
X31505908Y-70612000D01*
X31621161Y-71191418D01*
X31949375Y-71682625D01*
X32268478Y-71895843D01*
X32138642Y-71956817D01*
X31748355Y-72385076D01*
X31578524Y-72795110D01*
X31699845Y-73025000D01*
X32893000Y-73025000D01*
X32893000Y-73005000D01*
X33147000Y-73005000D01*
X33147000Y-73025000D01*
X34340155Y-73025000D01*
X34461476Y-72795110D01*
X34291645Y-72385076D01*
X33901358Y-71956817D01*
X33771522Y-71895843D01*
X34090625Y-71682625D01*
X34418839Y-71191418D01*
X34534092Y-70612000D01*
X34418839Y-70032582D01*
X34090625Y-69541375D01*
X33792239Y-69342000D01*
X34090625Y-69142625D01*
X34418839Y-68651418D01*
X34534092Y-68072000D01*
X34418839Y-67492582D01*
X34090625Y-67001375D01*
X33792239Y-66802000D01*
X34090625Y-66602625D01*
X34418839Y-66111418D01*
X34534092Y-65532000D01*
X34418839Y-64952582D01*
X34090625Y-64461375D01*
X33792239Y-64262000D01*
X34090625Y-64062625D01*
X34418839Y-63571418D01*
X34534092Y-62992000D01*
X34418839Y-62412582D01*
X34090625Y-61921375D01*
X33792239Y-61722000D01*
X34090625Y-61522625D01*
X34418839Y-61031418D01*
X34534092Y-60452000D01*
X34418839Y-59872582D01*
X34090625Y-59381375D01*
X33792239Y-59182000D01*
X34090625Y-58982625D01*
X34418839Y-58491418D01*
X34534092Y-57912000D01*
X34418839Y-57332582D01*
X34090625Y-56841375D01*
X33792239Y-56642000D01*
X34090625Y-56442625D01*
X34418839Y-55951418D01*
X34534092Y-55372000D01*
X34418839Y-54792582D01*
X34090625Y-54301375D01*
X33792239Y-54102000D01*
X34090625Y-53902625D01*
X34418839Y-53411418D01*
X34534092Y-52832000D01*
X34418839Y-52252582D01*
X34090625Y-51761375D01*
X33792239Y-51562000D01*
X34090625Y-51362625D01*
X34418839Y-50871418D01*
X34534092Y-50292000D01*
X34418839Y-49712582D01*
X34090625Y-49221375D01*
X33792239Y-49022000D01*
X34090625Y-48822625D01*
X34418839Y-48331418D01*
X34534092Y-47752000D01*
X34418839Y-47172582D01*
X34090625Y-46681375D01*
X33792239Y-46482000D01*
X34090625Y-46282625D01*
X34418839Y-45791418D01*
X34534092Y-45212000D01*
X34418839Y-44632582D01*
X34090625Y-44141375D01*
X33792239Y-43942000D01*
X34090625Y-43742625D01*
X34418839Y-43251418D01*
X34534092Y-42672000D01*
X34418839Y-42092582D01*
X34090625Y-41601375D01*
X34072381Y-41589184D01*
X34117765Y-41580157D01*
X34327809Y-41439809D01*
X34468157Y-41229765D01*
X34517440Y-40982000D01*
X34517440Y-39282000D01*
X34468157Y-39034235D01*
X34353073Y-38862000D01*
X35433000Y-38862000D01*
X35433000Y-45212000D01*
X35442667Y-45260601D01*
X35470197Y-45301803D01*
X35511399Y-45329333D01*
X35560000Y-45339000D01*
X53340000Y-45339000D01*
X53388601Y-45329333D01*
X53429803Y-45301803D01*
X53457333Y-45260601D01*
X53467000Y-45212000D01*
X53467000Y-39155690D01*
X54395000Y-39155690D01*
X54395000Y-39846250D01*
X54553750Y-40005000D01*
X55753000Y-40005000D01*
X55753000Y-38805750D01*
X56007000Y-38805750D01*
X56007000Y-40005000D01*
X57206250Y-40005000D01*
X57365000Y-39846250D01*
X57365000Y-39155690D01*
X57268327Y-38922301D01*
X57089698Y-38743673D01*
X56856309Y-38647000D01*
X56165750Y-38647000D01*
X56007000Y-38805750D01*
X55753000Y-38805750D01*
X55594250Y-38647000D01*
X54903691Y-38647000D01*
X54670302Y-38743673D01*
X54491673Y-38922301D01*
X54395000Y-39155690D01*
X53467000Y-39155690D01*
X53467000Y-38862000D01*
X53457333Y-38813399D01*
X53429803Y-38772197D01*
X53388601Y-38744667D01*
X53340000Y-38735000D01*
X35560000Y-38735000D01*
X35511399Y-38744667D01*
X35470197Y-38772197D01*
X35442667Y-38813399D01*
X35433000Y-38862000D01*
X34353073Y-38862000D01*
X34327809Y-38824191D01*
X34123299Y-38687541D01*
X34456841Y-38354000D01*
X68667160Y-38354000D01*
X69722160Y-39409000D01*
X69119750Y-39409000D01*
X68961000Y-39567750D01*
X68961000Y-40767000D01*
X68981000Y-40767000D01*
X68981000Y-41021000D01*
X68961000Y-41021000D01*
X68961000Y-42220250D01*
X69119750Y-42379000D01*
X69810310Y-42379000D01*
X70043699Y-42282327D01*
X70222327Y-42103698D01*
X70288904Y-41942967D01*
X70303375Y-41964625D01*
X70794582Y-42292839D01*
X71227744Y-42379000D01*
X71520256Y-42379000D01*
X71953418Y-42292839D01*
X72444625Y-41964625D01*
X72644000Y-41666239D01*
X72746749Y-41820015D01*
X70243765Y-44323000D01*
X57071983Y-44323000D01*
X56950625Y-44141375D01*
X56652239Y-43942000D01*
X56950625Y-43742625D01*
X57278839Y-43251418D01*
X57394092Y-42672000D01*
X57278839Y-42092582D01*
X56950625Y-41601375D01*
X56928967Y-41586904D01*
X57089698Y-41520327D01*
X57268327Y-41341699D01*
X57365000Y-41108310D01*
X57365000Y-40927594D01*
X58575000Y-40927594D01*
X58575000Y-41876406D01*
X58938095Y-42752994D01*
X59609006Y-43423905D01*
X60485594Y-43787000D01*
X61434406Y-43787000D01*
X62310994Y-43423905D01*
X62981905Y-42752994D01*
X63345000Y-41876406D01*
X63345000Y-41179750D01*
X67349000Y-41179750D01*
X67349000Y-41870309D01*
X67445673Y-42103698D01*
X67624301Y-42282327D01*
X67857690Y-42379000D01*
X68548250Y-42379000D01*
X68707000Y-42220250D01*
X68707000Y-41021000D01*
X67507750Y-41021000D01*
X67349000Y-41179750D01*
X63345000Y-41179750D01*
X63345000Y-40927594D01*
X62981905Y-40051006D01*
X62848590Y-39917691D01*
X67349000Y-39917691D01*
X67349000Y-40608250D01*
X67507750Y-40767000D01*
X68707000Y-40767000D01*
X68707000Y-39567750D01*
X68548250Y-39409000D01*
X67857690Y-39409000D01*
X67624301Y-39505673D01*
X67445673Y-39684302D01*
X67349000Y-39917691D01*
X62848590Y-39917691D01*
X62310994Y-39380095D01*
X61434406Y-39017000D01*
X60485594Y-39017000D01*
X59609006Y-39380095D01*
X58938095Y-40051006D01*
X58575000Y-40927594D01*
X57365000Y-40927594D01*
X57365000Y-40417750D01*
X57206250Y-40259000D01*
X56007000Y-40259000D01*
X56007000Y-40279000D01*
X55753000Y-40279000D01*
X55753000Y-40259000D01*
X54553750Y-40259000D01*
X54395000Y-40417750D01*
X54395000Y-41108310D01*
X54491673Y-41341699D01*
X54670302Y-41520327D01*
X54831033Y-41586904D01*
X54809375Y-41601375D01*
X54481161Y-42092582D01*
X54365908Y-42672000D01*
X54481161Y-43251418D01*
X54809375Y-43742625D01*
X55107761Y-43942000D01*
X54809375Y-44141375D01*
X54481161Y-44632582D01*
X54365908Y-45212000D01*
X54481161Y-45791418D01*
X54809375Y-46282625D01*
X55107761Y-46482000D01*
X54809375Y-46681375D01*
X54481161Y-47172582D01*
X54365908Y-47752000D01*
X54481161Y-48331418D01*
X54809375Y-48822625D01*
X55107761Y-49022000D01*
X54809375Y-49221375D01*
X54481161Y-49712582D01*
X54365908Y-50292000D01*
X54481161Y-50871418D01*
X54809375Y-51362625D01*
X55107761Y-51562000D01*
X54809375Y-51761375D01*
X54481161Y-52252582D01*
X54365908Y-52832000D01*
X54481161Y-53411418D01*
X54809375Y-53902625D01*
X55128478Y-54115843D01*
X54998642Y-54176817D01*
X54608355Y-54605076D01*
X54438524Y-55015110D01*
X54559845Y-55245000D01*
X55753000Y-55245000D01*
X55753000Y-55225000D01*
X56007000Y-55225000D01*
X56007000Y-55245000D01*
X57200155Y-55245000D01*
X57321476Y-55015110D01*
X57151645Y-54605076D01*
X56761358Y-54176817D01*
X56631522Y-54115843D01*
X56950625Y-53902625D01*
X57071983Y-53721000D01*
X66714445Y-53721000D01*
X66802000Y-53738416D01*
X66889555Y-53721000D01*
X66889556Y-53721000D01*
X67148870Y-53669419D01*
X67442933Y-53472933D01*
X67492531Y-53398704D01*
X73842529Y-47048707D01*
X73842531Y-47048704D01*
X77020707Y-43870529D01*
X77094933Y-43820933D01*
X77291419Y-43526870D01*
X77343000Y-43267556D01*
X77343000Y-43267555D01*
X77360416Y-43180001D01*
X77343000Y-43092446D01*
X77343000Y-42085983D01*
X77524625Y-41964625D01*
X77852839Y-41473418D01*
X77968092Y-40894000D01*
X77852839Y-40314582D01*
X77524625Y-39823375D01*
X77033418Y-39495161D01*
X76600256Y-39409000D01*
X76307744Y-39409000D01*
X75874582Y-39495161D01*
X75383375Y-39823375D01*
X75184000Y-40121761D01*
X74984625Y-39823375D01*
X74493418Y-39495161D01*
X74060256Y-39409000D01*
X73767744Y-39409000D01*
X73334582Y-39495161D01*
X72843375Y-39823375D01*
X72644000Y-40121761D01*
X72444625Y-39823375D01*
X72390000Y-39786876D01*
X72390000Y-39724063D01*
X72409904Y-39623999D01*
X72386367Y-39505673D01*
X72331051Y-39227577D01*
X72106495Y-38891505D01*
X72021661Y-38834821D01*
X71540840Y-38354000D01*
X78305662Y-38354000D01*
X78597577Y-38549051D01*
X78810579Y-38591420D01*
X78994000Y-38774841D01*
X78994001Y-62891935D01*
X78994000Y-66447936D01*
X78974096Y-66548000D01*
X78994000Y-66648063D01*
X78994000Y-66648064D01*
X79052949Y-66944422D01*
X79277505Y-67280495D01*
X79362340Y-67337180D01*
X81597719Y-69572560D01*
X80380000Y-69572560D01*
X80132235Y-69621843D01*
X79922191Y-69762191D01*
X79781843Y-69972235D01*
X79778725Y-69987908D01*
X79609507Y-69818690D01*
X79045330Y-69585000D01*
X78462236Y-69585000D01*
X76636531Y-67759296D01*
X76586933Y-67685067D01*
X76292870Y-67488581D01*
X76033556Y-67437000D01*
X76033555Y-67437000D01*
X75946000Y-67419584D01*
X75858445Y-67437000D01*
X61796055Y-67437000D01*
X62310994Y-67223705D01*
X62981905Y-66552794D01*
X63345000Y-65676206D01*
X63345000Y-64727394D01*
X62981905Y-63850806D01*
X62310994Y-63179895D01*
X61434406Y-62816800D01*
X60485594Y-62816800D01*
X59609006Y-63179895D01*
X58938095Y-63850806D01*
X58575000Y-64727394D01*
X58575000Y-65676206D01*
X58938095Y-66552794D01*
X59609006Y-67223705D01*
X60123945Y-67437000D01*
X59296236Y-67437000D01*
X57393618Y-65534383D01*
X57394092Y-65532000D01*
X57278839Y-64952582D01*
X56950625Y-64461375D01*
X56652239Y-64262000D01*
X56950625Y-64062625D01*
X57278839Y-63571418D01*
X57394092Y-62992000D01*
X57278839Y-62412582D01*
X56950625Y-61921375D01*
X56652239Y-61722000D01*
X56950625Y-61522625D01*
X57278839Y-61031418D01*
X57394092Y-60452000D01*
X57278839Y-59872582D01*
X56950625Y-59381375D01*
X56652239Y-59182000D01*
X56950625Y-58982625D01*
X57278839Y-58491418D01*
X57394092Y-57912000D01*
X57278839Y-57332582D01*
X56950625Y-56841375D01*
X56631522Y-56628157D01*
X56761358Y-56567183D01*
X57151645Y-56138924D01*
X57321476Y-55728890D01*
X57200155Y-55499000D01*
X56007000Y-55499000D01*
X56007000Y-55519000D01*
X55753000Y-55519000D01*
X55753000Y-55499000D01*
X54559845Y-55499000D01*
X54438524Y-55728890D01*
X54608355Y-56138924D01*
X54998642Y-56567183D01*
X55128478Y-56628157D01*
X54809375Y-56841375D01*
X54481161Y-57332582D01*
X54365908Y-57912000D01*
X54481161Y-58491418D01*
X54809375Y-58982625D01*
X55107761Y-59182000D01*
X54809375Y-59381375D01*
X54481161Y-59872582D01*
X54365908Y-60452000D01*
X54481161Y-61031418D01*
X54809375Y-61522625D01*
X55107761Y-61722000D01*
X54809375Y-61921375D01*
X54481161Y-62412582D01*
X54365908Y-62992000D01*
X54481161Y-63571418D01*
X54809375Y-64062625D01*
X55107761Y-64262000D01*
X54809375Y-64461375D01*
X54481161Y-64952582D01*
X54365908Y-65532000D01*
X54481161Y-66111418D01*
X54809375Y-66602625D01*
X55107761Y-66802000D01*
X54809375Y-67001375D01*
X54481161Y-67492582D01*
X54365908Y-68072000D01*
X54481161Y-68651418D01*
X54809375Y-69142625D01*
X55107761Y-69342000D01*
X54809375Y-69541375D01*
X54481161Y-70032582D01*
X54365908Y-70612000D01*
X54481161Y-71191418D01*
X54809375Y-71682625D01*
X55107761Y-71882000D01*
X54809375Y-72081375D01*
X54481161Y-72572582D01*
X54365908Y-73152000D01*
X54481161Y-73731418D01*
X54809375Y-74222625D01*
X55107761Y-74422000D01*
X54809375Y-74621375D01*
X54481161Y-75112582D01*
X54365908Y-75692000D01*
X54481161Y-76271418D01*
X54809375Y-76762625D01*
X55107761Y-76962000D01*
X54809375Y-77161375D01*
X54481161Y-77652582D01*
X54365908Y-78232000D01*
X54481161Y-78811418D01*
X54809375Y-79302625D01*
X55107761Y-79502000D01*
X54809375Y-79701375D01*
X54481161Y-80192582D01*
X54365908Y-80772000D01*
X54481161Y-81351418D01*
X54809375Y-81842625D01*
X55107761Y-82042000D01*
X54809375Y-82241375D01*
X54481161Y-82732582D01*
X54365908Y-83312000D01*
X54481161Y-83891418D01*
X54809375Y-84382625D01*
X55107761Y-84582000D01*
X54809375Y-84781375D01*
X54481161Y-85272582D01*
X54365908Y-85852000D01*
X54481161Y-86431418D01*
X54809375Y-86922625D01*
X55300582Y-87250839D01*
X55733744Y-87337000D01*
X56026256Y-87337000D01*
X56459418Y-87250839D01*
X56664593Y-87113745D01*
X74863861Y-87113745D01*
X74937995Y-87359864D01*
X75475223Y-87552965D01*
X76045454Y-87525778D01*
X76446005Y-87359864D01*
X76520139Y-87113745D01*
X78927861Y-87113745D01*
X79001995Y-87359864D01*
X79539223Y-87552965D01*
X80109454Y-87525778D01*
X80510005Y-87359864D01*
X80584139Y-87113745D01*
X79756000Y-86285605D01*
X78927861Y-87113745D01*
X76520139Y-87113745D01*
X75692000Y-86285605D01*
X74863861Y-87113745D01*
X56664593Y-87113745D01*
X56950625Y-86922625D01*
X57278839Y-86431418D01*
X57394092Y-85852000D01*
X57278839Y-85272582D01*
X56950625Y-84781375D01*
X56652239Y-84582000D01*
X56950625Y-84382625D01*
X57278839Y-83891418D01*
X57394092Y-83312000D01*
X57278839Y-82732582D01*
X56950625Y-82241375D01*
X56652239Y-82042000D01*
X56950625Y-81842625D01*
X57278839Y-81351418D01*
X57394092Y-80772000D01*
X57278839Y-80192582D01*
X56950625Y-79701375D01*
X56652239Y-79502000D01*
X56950625Y-79302625D01*
X57278839Y-78811418D01*
X57394092Y-78232000D01*
X57278839Y-77652582D01*
X56950625Y-77161375D01*
X56652239Y-76962000D01*
X56950625Y-76762625D01*
X57278839Y-76271418D01*
X57394092Y-75692000D01*
X57278839Y-75112582D01*
X56950625Y-74621375D01*
X56652239Y-74422000D01*
X56950625Y-74222625D01*
X57278839Y-73731418D01*
X57394092Y-73152000D01*
X57278839Y-72572582D01*
X56950625Y-72081375D01*
X56652239Y-71882000D01*
X56950625Y-71682625D01*
X57071983Y-71501000D01*
X58050152Y-71501000D01*
X58147423Y-71646577D01*
X58622091Y-71963740D01*
X59040667Y-72047000D01*
X59323333Y-72047000D01*
X59741909Y-71963740D01*
X60216577Y-71646577D01*
X60533740Y-71171909D01*
X60645113Y-70612000D01*
X60569327Y-70231000D01*
X63079735Y-70231000D01*
X62918629Y-70392106D01*
X62723000Y-70864398D01*
X62723000Y-71105000D01*
X62482398Y-71105000D01*
X62010106Y-71300629D01*
X61648629Y-71662106D01*
X61453000Y-72134398D01*
X61453000Y-72417764D01*
X58615294Y-75255471D01*
X58541068Y-75305067D01*
X58491472Y-75379293D01*
X58491471Y-75379294D01*
X58344582Y-75599130D01*
X58275584Y-75946000D01*
X58293001Y-76033559D01*
X58293000Y-79631604D01*
X57965466Y-79959138D01*
X57747000Y-80486561D01*
X57747000Y-81057439D01*
X57965466Y-81584862D01*
X58369138Y-81988534D01*
X58896561Y-82207000D01*
X59467439Y-82207000D01*
X59994862Y-81988534D01*
X60398534Y-81584862D01*
X60617000Y-81057439D01*
X60617000Y-80486561D01*
X60398534Y-79959138D01*
X60071000Y-79631604D01*
X60071000Y-76314235D01*
X62710236Y-73675000D01*
X62723000Y-73675000D01*
X62723000Y-73787002D01*
X62881748Y-73787002D01*
X62723000Y-73945750D01*
X62723000Y-74436310D01*
X62819673Y-74669699D01*
X62998302Y-74848327D01*
X63231691Y-74945000D01*
X63722250Y-74945000D01*
X63881000Y-74786250D01*
X63881000Y-73787000D01*
X63861000Y-73787000D01*
X63861000Y-73533000D01*
X63881000Y-73533000D01*
X63881000Y-73513000D01*
X64135000Y-73513000D01*
X64135000Y-73533000D01*
X64155000Y-73533000D01*
X64155000Y-73787000D01*
X64135000Y-73787000D01*
X64135000Y-74786250D01*
X64293750Y-74945000D01*
X64784309Y-74945000D01*
X65017698Y-74848327D01*
X65151000Y-74715025D01*
X65151000Y-76640445D01*
X65133584Y-76728000D01*
X65151000Y-76815555D01*
X65151000Y-76815556D01*
X65202582Y-77074870D01*
X65399068Y-77368933D01*
X65432417Y-77391216D01*
X65421000Y-77418778D01*
X65421000Y-78069222D01*
X65669914Y-78670153D01*
X66129847Y-79130086D01*
X66730778Y-79379000D01*
X67381222Y-79379000D01*
X67982153Y-79130086D01*
X68442086Y-78670153D01*
X68691000Y-78069222D01*
X68691000Y-77418778D01*
X68442086Y-76817847D01*
X67982153Y-76357914D01*
X67381222Y-76109000D01*
X66929000Y-76109000D01*
X66929000Y-73239555D01*
X66946416Y-73152000D01*
X66914365Y-72990870D01*
X66877419Y-72805130D01*
X66680933Y-72511067D01*
X66606707Y-72461471D01*
X65293000Y-71147765D01*
X65293000Y-70864398D01*
X65097371Y-70392106D01*
X64936265Y-70231000D01*
X66433765Y-70231000D01*
X67889470Y-71686706D01*
X67939067Y-71760933D01*
X68233130Y-71957419D01*
X68492444Y-72009000D01*
X68492445Y-72009000D01*
X68580000Y-72026416D01*
X68667555Y-72009000D01*
X70346183Y-72009000D01*
X70758493Y-72421310D01*
X71322670Y-72655000D01*
X71933330Y-72655000D01*
X72497507Y-72421310D01*
X72666725Y-72252092D01*
X72669843Y-72267765D01*
X72810191Y-72477809D01*
X73020235Y-72618157D01*
X73268000Y-72667440D01*
X74458204Y-72667440D01*
X74803001Y-73012237D01*
X74803000Y-74814151D01*
X74657423Y-74911423D01*
X74340260Y-75386091D01*
X74228887Y-75946000D01*
X74340260Y-76505909D01*
X74657423Y-76980577D01*
X75132091Y-77297740D01*
X75550667Y-77381000D01*
X75833333Y-77381000D01*
X76251909Y-77297740D01*
X76726577Y-76980577D01*
X77043740Y-76505909D01*
X77155113Y-75946000D01*
X77043740Y-75386091D01*
X76726577Y-74911423D01*
X76581000Y-74814152D01*
X76581000Y-72731550D01*
X76598415Y-72643999D01*
X76581000Y-72556448D01*
X76581000Y-72556444D01*
X76529419Y-72297130D01*
X76332933Y-72003067D01*
X76258707Y-71953471D01*
X75715440Y-71410204D01*
X75715440Y-70220000D01*
X75666157Y-69972235D01*
X75525809Y-69762191D01*
X75315765Y-69621843D01*
X75068000Y-69572560D01*
X73268000Y-69572560D01*
X73020235Y-69621843D01*
X72810191Y-69762191D01*
X72669843Y-69972235D01*
X72666725Y-69987908D01*
X72497507Y-69818690D01*
X71933330Y-69585000D01*
X71322670Y-69585000D01*
X70758493Y-69818690D01*
X70346183Y-70231000D01*
X68948236Y-70231000D01*
X67932235Y-69215000D01*
X75577765Y-69215000D01*
X77205000Y-70842236D01*
X77205000Y-71425330D01*
X77438690Y-71989507D01*
X77870493Y-72421310D01*
X78434670Y-72655000D01*
X79045330Y-72655000D01*
X79609507Y-72421310D01*
X79778725Y-72252092D01*
X79781843Y-72267765D01*
X79922191Y-72477809D01*
X80132235Y-72618157D01*
X80380000Y-72667440D01*
X80391000Y-72667440D01*
X80391001Y-74053763D01*
X79927720Y-74517044D01*
X79897333Y-74511000D01*
X79614667Y-74511000D01*
X79196091Y-74594260D01*
X78721423Y-74911423D01*
X78404260Y-75386091D01*
X78292887Y-75946000D01*
X78404260Y-76505909D01*
X78721423Y-76980577D01*
X79196091Y-77297740D01*
X79614667Y-77381000D01*
X79897333Y-77381000D01*
X80315909Y-77297740D01*
X80790577Y-76980577D01*
X81107740Y-76505909D01*
X81219113Y-75946000D01*
X81184956Y-75774280D01*
X81846707Y-75112529D01*
X81920933Y-75062933D01*
X82117419Y-74768870D01*
X82169000Y-74509556D01*
X82169000Y-74509552D01*
X82186415Y-74422001D01*
X82169000Y-74334450D01*
X82169000Y-72667440D01*
X82180000Y-72667440D01*
X82427765Y-72618157D01*
X82550001Y-72536481D01*
X82550000Y-77811160D01*
X82410339Y-77950821D01*
X82410336Y-77950823D01*
X80605160Y-79756000D01*
X71474063Y-79756000D01*
X71373999Y-79736096D01*
X71273936Y-79756000D01*
X71273935Y-79756000D01*
X70977577Y-79814949D01*
X70641505Y-80039505D01*
X70584822Y-80124337D01*
X67012600Y-83696560D01*
X66056000Y-83696560D01*
X65808235Y-83745843D01*
X65598191Y-83886191D01*
X65457843Y-84096235D01*
X65408560Y-84344000D01*
X65408560Y-86344000D01*
X65457843Y-86591765D01*
X65598191Y-86801809D01*
X65808235Y-86942157D01*
X66056000Y-86991440D01*
X68056000Y-86991440D01*
X68303765Y-86942157D01*
X68513809Y-86801809D01*
X68654157Y-86591765D01*
X68703440Y-86344000D01*
X68703440Y-85889223D01*
X74245035Y-85889223D01*
X74272222Y-86459454D01*
X74438136Y-86860005D01*
X74684255Y-86934139D01*
X75512395Y-86106000D01*
X75871605Y-86106000D01*
X76699745Y-86934139D01*
X76945864Y-86860005D01*
X77138965Y-86322777D01*
X77118295Y-85889223D01*
X78309035Y-85889223D01*
X78336222Y-86459454D01*
X78502136Y-86860005D01*
X78748255Y-86934139D01*
X79576395Y-86106000D01*
X79935605Y-86106000D01*
X80763745Y-86934139D01*
X81009864Y-86860005D01*
X81202965Y-86322777D01*
X81175778Y-85752546D01*
X81009864Y-85351995D01*
X80763745Y-85277861D01*
X79935605Y-86106000D01*
X79576395Y-86106000D01*
X78748255Y-85277861D01*
X78502136Y-85351995D01*
X78309035Y-85889223D01*
X77118295Y-85889223D01*
X77111778Y-85752546D01*
X76945864Y-85351995D01*
X76699745Y-85277861D01*
X75871605Y-86106000D01*
X75512395Y-86106000D01*
X74684255Y-85277861D01*
X74438136Y-85351995D01*
X74245035Y-85889223D01*
X68703440Y-85889223D01*
X68703440Y-85098255D01*
X74863861Y-85098255D01*
X75692000Y-85926395D01*
X76520139Y-85098255D01*
X78927861Y-85098255D01*
X79756000Y-85926395D01*
X80584139Y-85098255D01*
X80510005Y-84852136D01*
X79972777Y-84659035D01*
X79402546Y-84686222D01*
X79001995Y-84852136D01*
X78927861Y-85098255D01*
X76520139Y-85098255D01*
X76446005Y-84852136D01*
X75908777Y-84659035D01*
X75338546Y-84686222D01*
X74937995Y-84852136D01*
X74863861Y-85098255D01*
X68703440Y-85098255D01*
X68703440Y-84879400D01*
X71794841Y-81788000D01*
X80925937Y-81788000D01*
X81026000Y-81807904D01*
X81126063Y-81788000D01*
X81126065Y-81788000D01*
X81422423Y-81729051D01*
X81758495Y-81504495D01*
X81815180Y-81419660D01*
X83847177Y-79387664D01*
X83847179Y-79387661D01*
X84213661Y-79021179D01*
X84298495Y-78964495D01*
X84523051Y-78628423D01*
X84582000Y-78332065D01*
X84582000Y-78332064D01*
X84601904Y-78232001D01*
X84582000Y-78131937D01*
X84582000Y-70204063D01*
X84601904Y-70103999D01*
X84577822Y-69982932D01*
X84523051Y-69707577D01*
X84510552Y-69688870D01*
X84436085Y-69577423D01*
X84298495Y-69371505D01*
X84213663Y-69314822D01*
X81026000Y-66127160D01*
X81026000Y-38454064D01*
X81045904Y-38354000D01*
X81023161Y-38239663D01*
X80967051Y-37957577D01*
X80742495Y-37621505D01*
X80657663Y-37564823D01*
X80378841Y-37286000D01*
X86412000Y-37286000D01*
X86412000Y-40384880D01*
X86412000Y-40384880D01*
G37*
X86412000Y-40384880D02*
X86273705Y-40051006D01*
X85602794Y-39380095D01*
X84726206Y-39017000D01*
X83777394Y-39017000D01*
X82900806Y-39380095D01*
X82229895Y-40051006D01*
X81866800Y-40927594D01*
X81866800Y-41876406D01*
X82229895Y-42752994D01*
X82900806Y-43423905D01*
X83777394Y-43787000D01*
X84726206Y-43787000D01*
X85602794Y-43423905D01*
X86273705Y-42752994D01*
X86412000Y-42419120D01*
X86412001Y-64097960D01*
X86299105Y-63825406D01*
X85628194Y-63154495D01*
X84751606Y-62791400D01*
X83802794Y-62791400D01*
X82926206Y-63154495D01*
X82255295Y-63825406D01*
X81892200Y-64701994D01*
X81892200Y-65650806D01*
X82255295Y-66527394D01*
X82926206Y-67198305D01*
X83802794Y-67561400D01*
X84751606Y-67561400D01*
X85628194Y-67198305D01*
X86299105Y-66527394D01*
X86412001Y-66254840D01*
X86412001Y-87682000D01*
X22300000Y-87682000D01*
X22300000Y-84827745D01*
X27111861Y-84827745D01*
X27185995Y-85073864D01*
X27723223Y-85266965D01*
X28293454Y-85239778D01*
X28694005Y-85073864D01*
X28768139Y-84827745D01*
X27940000Y-83999605D01*
X27111861Y-84827745D01*
X22300000Y-84827745D01*
X22300000Y-83603223D01*
X26493035Y-83603223D01*
X26520222Y-84173454D01*
X26686136Y-84574005D01*
X26932255Y-84648139D01*
X27760395Y-83820000D01*
X28119605Y-83820000D01*
X28947745Y-84648139D01*
X29193864Y-84574005D01*
X29386965Y-84036777D01*
X29359778Y-83466546D01*
X29193864Y-83065995D01*
X28947745Y-82991861D01*
X28119605Y-83820000D01*
X27760395Y-83820000D01*
X26932255Y-82991861D01*
X26686136Y-83065995D01*
X26493035Y-83603223D01*
X22300000Y-83603223D01*
X22300000Y-82812255D01*
X27111861Y-82812255D01*
X27940000Y-83640395D01*
X28768139Y-82812255D01*
X28694005Y-82566136D01*
X28156777Y-82373035D01*
X27586546Y-82400222D01*
X27185995Y-82566136D01*
X27111861Y-82812255D01*
X22300000Y-82812255D01*
X22300000Y-75692000D01*
X31505908Y-75692000D01*
X31621161Y-76271418D01*
X31949375Y-76762625D01*
X32247761Y-76962000D01*
X31949375Y-77161375D01*
X31621161Y-77652582D01*
X31505908Y-78232000D01*
X31621161Y-78811418D01*
X31949375Y-79302625D01*
X32247761Y-79502000D01*
X31949375Y-79701375D01*
X31621161Y-80192582D01*
X31505908Y-80772000D01*
X31621161Y-81351418D01*
X31949375Y-81842625D01*
X32247761Y-82042000D01*
X31949375Y-82241375D01*
X31621161Y-82732582D01*
X31505908Y-83312000D01*
X31621161Y-83891418D01*
X31949375Y-84382625D01*
X32247761Y-84582000D01*
X31949375Y-84781375D01*
X31621161Y-85272582D01*
X31505908Y-85852000D01*
X31621161Y-86431418D01*
X31949375Y-86922625D01*
X32440582Y-87250839D01*
X32873744Y-87337000D01*
X33166256Y-87337000D01*
X33599418Y-87250839D01*
X34090625Y-86922625D01*
X34418839Y-86431418D01*
X34534092Y-85852000D01*
X34418839Y-85272582D01*
X34090625Y-84781375D01*
X33792239Y-84582000D01*
X34090625Y-84382625D01*
X34418839Y-83891418D01*
X34534092Y-83312000D01*
X34418839Y-82732582D01*
X34090625Y-82241375D01*
X33792239Y-82042000D01*
X34090625Y-81842625D01*
X34418839Y-81351418D01*
X34534092Y-80772000D01*
X34418839Y-80192582D01*
X34090625Y-79701375D01*
X33792239Y-79502000D01*
X34090625Y-79302625D01*
X34418839Y-78811418D01*
X34534092Y-78232000D01*
X34418839Y-77652582D01*
X34090625Y-77161375D01*
X33792239Y-76962000D01*
X34090625Y-76762625D01*
X34418839Y-76271418D01*
X34534092Y-75692000D01*
X34418839Y-75112582D01*
X34090625Y-74621375D01*
X33771522Y-74408157D01*
X33901358Y-74347183D01*
X34291645Y-73918924D01*
X34461476Y-73508890D01*
X34340155Y-73279000D01*
X33147000Y-73279000D01*
X33147000Y-73299000D01*
X32893000Y-73299000D01*
X32893000Y-73279000D01*
X31699845Y-73279000D01*
X31578524Y-73508890D01*
X31748355Y-73918924D01*
X32138642Y-74347183D01*
X32268478Y-74408157D01*
X31949375Y-74621375D01*
X31621161Y-75112582D01*
X31505908Y-75692000D01*
X22300000Y-75692000D01*
X22300000Y-62090840D01*
X24384000Y-64174841D01*
X24384001Y-67383312D01*
X24225853Y-67541460D01*
X24015000Y-68050506D01*
X24015000Y-68601494D01*
X24225853Y-69110540D01*
X24615460Y-69500147D01*
X25124506Y-69711000D01*
X25675494Y-69711000D01*
X26184540Y-69500147D01*
X26574147Y-69110540D01*
X26785000Y-68601494D01*
X26785000Y-68050506D01*
X26574147Y-67541460D01*
X26416000Y-67383313D01*
X26416000Y-64229756D01*
X26577130Y-64337419D01*
X26836444Y-64389000D01*
X26836445Y-64389000D01*
X26924000Y-64406416D01*
X27011555Y-64389000D01*
X28069604Y-64389000D01*
X28321000Y-64640396D01*
X28321001Y-67025294D01*
X28015460Y-67151853D01*
X27625853Y-67541460D01*
X27415000Y-68050506D01*
X27415000Y-68453765D01*
X27373294Y-68495471D01*
X27299068Y-68545067D01*
X27249472Y-68619293D01*
X27249471Y-68619294D01*
X27102582Y-68839130D01*
X27033584Y-69186000D01*
X27051001Y-69273559D01*
X27051000Y-72528151D01*
X26905423Y-72625423D01*
X26588260Y-73100091D01*
X26476887Y-73660000D01*
X26588260Y-74219909D01*
X26905423Y-74694577D01*
X27380091Y-75011740D01*
X27798667Y-75095000D01*
X28081333Y-75095000D01*
X28499909Y-75011740D01*
X28974577Y-74694577D01*
X29291740Y-74219909D01*
X29403113Y-73660000D01*
X29291740Y-73100091D01*
X28974577Y-72625423D01*
X28829000Y-72528152D01*
X28829000Y-69711000D01*
X29075494Y-69711000D01*
X29584540Y-69500147D01*
X29974147Y-69110540D01*
X30185000Y-68601494D01*
X30185000Y-68050506D01*
X30104526Y-67856223D01*
X30099000Y-67828444D01*
X30099000Y-64640396D01*
X30426534Y-64312862D01*
X30645000Y-63785439D01*
X30645000Y-63214561D01*
X30426534Y-62687138D01*
X30022862Y-62283466D01*
X29495439Y-62065000D01*
X28924561Y-62065000D01*
X28397138Y-62283466D01*
X28069604Y-62611000D01*
X27292236Y-62611000D01*
X24765000Y-60083765D01*
X24765000Y-59716639D01*
X25183223Y-59866965D01*
X25753454Y-59839778D01*
X26154005Y-59673864D01*
X26204042Y-59507745D01*
X28381861Y-59507745D01*
X28455995Y-59753864D01*
X28993223Y-59946965D01*
X29563454Y-59919778D01*
X29964005Y-59753864D01*
X30038139Y-59507745D01*
X29210000Y-58679605D01*
X28381861Y-59507745D01*
X26204042Y-59507745D01*
X26228139Y-59427745D01*
X25400000Y-58599605D01*
X25385858Y-58613748D01*
X25206252Y-58434142D01*
X25220395Y-58420000D01*
X25579605Y-58420000D01*
X26407745Y-59248139D01*
X26653864Y-59174005D01*
X26846965Y-58636777D01*
X26830109Y-58283223D01*
X27763035Y-58283223D01*
X27790222Y-58853454D01*
X27956136Y-59254005D01*
X28202255Y-59328139D01*
X29030395Y-58500000D01*
X29389605Y-58500000D01*
X30217745Y-59328139D01*
X30463864Y-59254005D01*
X30656965Y-58716777D01*
X30629778Y-58146546D01*
X30463864Y-57745995D01*
X30217745Y-57671861D01*
X29389605Y-58500000D01*
X29030395Y-58500000D01*
X28202255Y-57671861D01*
X27956136Y-57745995D01*
X27763035Y-58283223D01*
X26830109Y-58283223D01*
X26819778Y-58066546D01*
X26653864Y-57665995D01*
X26407745Y-57591861D01*
X25579605Y-58420000D01*
X25220395Y-58420000D01*
X25206252Y-58405858D01*
X25385858Y-58226252D01*
X25400000Y-58240395D01*
X26148139Y-57492255D01*
X28381861Y-57492255D01*
X29210000Y-58320395D01*
X30038139Y-57492255D01*
X29964005Y-57246136D01*
X29426777Y-57053035D01*
X28856546Y-57080222D01*
X28455995Y-57246136D01*
X28381861Y-57492255D01*
X26148139Y-57492255D01*
X26228139Y-57412255D01*
X26154005Y-57166136D01*
X25616777Y-56973035D01*
X25046546Y-57000222D01*
X25016616Y-57012620D01*
X25768236Y-56261000D01*
X31828017Y-56261000D01*
X31949375Y-56442625D01*
X32247761Y-56642000D01*
X31949375Y-56841375D01*
X31621161Y-57332582D01*
X31505908Y-57912000D01*
X31621161Y-58491418D01*
X31949375Y-58982625D01*
X32247761Y-59182000D01*
X31949375Y-59381375D01*
X31621161Y-59872582D01*
X31505908Y-60452000D01*
X31621161Y-61031418D01*
X31949375Y-61522625D01*
X32247761Y-61722000D01*
X31949375Y-61921375D01*
X31621161Y-62412582D01*
X31505908Y-62992000D01*
X31621161Y-63571418D01*
X31949375Y-64062625D01*
X32247761Y-64262000D01*
X31949375Y-64461375D01*
X31621161Y-64952582D01*
X31505908Y-65532000D01*
X31621161Y-66111418D01*
X31949375Y-66602625D01*
X32247761Y-66802000D01*
X31949375Y-67001375D01*
X31621161Y-67492582D01*
X31505908Y-68072000D01*
X31621161Y-68651418D01*
X31949375Y-69142625D01*
X32247761Y-69342000D01*
X31949375Y-69541375D01*
X31621161Y-70032582D01*
X31505908Y-70612000D01*
X31621161Y-71191418D01*
X31949375Y-71682625D01*
X32268478Y-71895843D01*
X32138642Y-71956817D01*
X31748355Y-72385076D01*
X31578524Y-72795110D01*
X31699845Y-73025000D01*
X32893000Y-73025000D01*
X32893000Y-73005000D01*
X33147000Y-73005000D01*
X33147000Y-73025000D01*
X34340155Y-73025000D01*
X34461476Y-72795110D01*
X34291645Y-72385076D01*
X33901358Y-71956817D01*
X33771522Y-71895843D01*
X34090625Y-71682625D01*
X34418839Y-71191418D01*
X34534092Y-70612000D01*
X34418839Y-70032582D01*
X34090625Y-69541375D01*
X33792239Y-69342000D01*
X34090625Y-69142625D01*
X34418839Y-68651418D01*
X34534092Y-68072000D01*
X34418839Y-67492582D01*
X34090625Y-67001375D01*
X33792239Y-66802000D01*
X34090625Y-66602625D01*
X34418839Y-66111418D01*
X34534092Y-65532000D01*
X34418839Y-64952582D01*
X34090625Y-64461375D01*
X33792239Y-64262000D01*
X34090625Y-64062625D01*
X34418839Y-63571418D01*
X34534092Y-62992000D01*
X34418839Y-62412582D01*
X34090625Y-61921375D01*
X33792239Y-61722000D01*
X34090625Y-61522625D01*
X34418839Y-61031418D01*
X34534092Y-60452000D01*
X34418839Y-59872582D01*
X34090625Y-59381375D01*
X33792239Y-59182000D01*
X34090625Y-58982625D01*
X34418839Y-58491418D01*
X34534092Y-57912000D01*
X34418839Y-57332582D01*
X34090625Y-56841375D01*
X33792239Y-56642000D01*
X34090625Y-56442625D01*
X34418839Y-55951418D01*
X34534092Y-55372000D01*
X34418839Y-54792582D01*
X34090625Y-54301375D01*
X33792239Y-54102000D01*
X34090625Y-53902625D01*
X34418839Y-53411418D01*
X34534092Y-52832000D01*
X34418839Y-52252582D01*
X34090625Y-51761375D01*
X33792239Y-51562000D01*
X34090625Y-51362625D01*
X34418839Y-50871418D01*
X34534092Y-50292000D01*
X34418839Y-49712582D01*
X34090625Y-49221375D01*
X33792239Y-49022000D01*
X34090625Y-48822625D01*
X34418839Y-48331418D01*
X34534092Y-47752000D01*
X34418839Y-47172582D01*
X34090625Y-46681375D01*
X33792239Y-46482000D01*
X34090625Y-46282625D01*
X34418839Y-45791418D01*
X34534092Y-45212000D01*
X34418839Y-44632582D01*
X34090625Y-44141375D01*
X33792239Y-43942000D01*
X34090625Y-43742625D01*
X34418839Y-43251418D01*
X34534092Y-42672000D01*
X34418839Y-42092582D01*
X34090625Y-41601375D01*
X34072381Y-41589184D01*
X34117765Y-41580157D01*
X34327809Y-41439809D01*
X34468157Y-41229765D01*
X34517440Y-40982000D01*
X34517440Y-39282000D01*
X34468157Y-39034235D01*
X34353073Y-38862000D01*
X35433000Y-38862000D01*
X35433000Y-45212000D01*
X35442667Y-45260601D01*
X35470197Y-45301803D01*
X35511399Y-45329333D01*
X35560000Y-45339000D01*
X53340000Y-45339000D01*
X53388601Y-45329333D01*
X53429803Y-45301803D01*
X53457333Y-45260601D01*
X53467000Y-45212000D01*
X53467000Y-39155690D01*
X54395000Y-39155690D01*
X54395000Y-39846250D01*
X54553750Y-40005000D01*
X55753000Y-40005000D01*
X55753000Y-38805750D01*
X56007000Y-38805750D01*
X56007000Y-40005000D01*
X57206250Y-40005000D01*
X57365000Y-39846250D01*
X57365000Y-39155690D01*
X57268327Y-38922301D01*
X57089698Y-38743673D01*
X56856309Y-38647000D01*
X56165750Y-38647000D01*
X56007000Y-38805750D01*
X55753000Y-38805750D01*
X55594250Y-38647000D01*
X54903691Y-38647000D01*
X54670302Y-38743673D01*
X54491673Y-38922301D01*
X54395000Y-39155690D01*
X53467000Y-39155690D01*
X53467000Y-38862000D01*
X53457333Y-38813399D01*
X53429803Y-38772197D01*
X53388601Y-38744667D01*
X53340000Y-38735000D01*
X35560000Y-38735000D01*
X35511399Y-38744667D01*
X35470197Y-38772197D01*
X35442667Y-38813399D01*
X35433000Y-38862000D01*
X34353073Y-38862000D01*
X34327809Y-38824191D01*
X34123299Y-38687541D01*
X34456841Y-38354000D01*
X68667160Y-38354000D01*
X69722160Y-39409000D01*
X69119750Y-39409000D01*
X68961000Y-39567750D01*
X68961000Y-40767000D01*
X68981000Y-40767000D01*
X68981000Y-41021000D01*
X68961000Y-41021000D01*
X68961000Y-42220250D01*
X69119750Y-42379000D01*
X69810310Y-42379000D01*
X70043699Y-42282327D01*
X70222327Y-42103698D01*
X70288904Y-41942967D01*
X70303375Y-41964625D01*
X70794582Y-42292839D01*
X71227744Y-42379000D01*
X71520256Y-42379000D01*
X71953418Y-42292839D01*
X72444625Y-41964625D01*
X72644000Y-41666239D01*
X72746749Y-41820015D01*
X70243765Y-44323000D01*
X57071983Y-44323000D01*
X56950625Y-44141375D01*
X56652239Y-43942000D01*
X56950625Y-43742625D01*
X57278839Y-43251418D01*
X57394092Y-42672000D01*
X57278839Y-42092582D01*
X56950625Y-41601375D01*
X56928967Y-41586904D01*
X57089698Y-41520327D01*
X57268327Y-41341699D01*
X57365000Y-41108310D01*
X57365000Y-40927594D01*
X58575000Y-40927594D01*
X58575000Y-41876406D01*
X58938095Y-42752994D01*
X59609006Y-43423905D01*
X60485594Y-43787000D01*
X61434406Y-43787000D01*
X62310994Y-43423905D01*
X62981905Y-42752994D01*
X63345000Y-41876406D01*
X63345000Y-41179750D01*
X67349000Y-41179750D01*
X67349000Y-41870309D01*
X67445673Y-42103698D01*
X67624301Y-42282327D01*
X67857690Y-42379000D01*
X68548250Y-42379000D01*
X68707000Y-42220250D01*
X68707000Y-41021000D01*
X67507750Y-41021000D01*
X67349000Y-41179750D01*
X63345000Y-41179750D01*
X63345000Y-40927594D01*
X62981905Y-40051006D01*
X62848590Y-39917691D01*
X67349000Y-39917691D01*
X67349000Y-40608250D01*
X67507750Y-40767000D01*
X68707000Y-40767000D01*
X68707000Y-39567750D01*
X68548250Y-39409000D01*
X67857690Y-39409000D01*
X67624301Y-39505673D01*
X67445673Y-39684302D01*
X67349000Y-39917691D01*
X62848590Y-39917691D01*
X62310994Y-39380095D01*
X61434406Y-39017000D01*
X60485594Y-39017000D01*
X59609006Y-39380095D01*
X58938095Y-40051006D01*
X58575000Y-40927594D01*
X57365000Y-40927594D01*
X57365000Y-40417750D01*
X57206250Y-40259000D01*
X56007000Y-40259000D01*
X56007000Y-40279000D01*
X55753000Y-40279000D01*
X55753000Y-40259000D01*
X54553750Y-40259000D01*
X54395000Y-40417750D01*
X54395000Y-41108310D01*
X54491673Y-41341699D01*
X54670302Y-41520327D01*
X54831033Y-41586904D01*
X54809375Y-41601375D01*
X54481161Y-42092582D01*
X54365908Y-42672000D01*
X54481161Y-43251418D01*
X54809375Y-43742625D01*
X55107761Y-43942000D01*
X54809375Y-44141375D01*
X54481161Y-44632582D01*
X54365908Y-45212000D01*
X54481161Y-45791418D01*
X54809375Y-46282625D01*
X55107761Y-46482000D01*
X54809375Y-46681375D01*
X54481161Y-47172582D01*
X54365908Y-47752000D01*
X54481161Y-48331418D01*
X54809375Y-48822625D01*
X55107761Y-49022000D01*
X54809375Y-49221375D01*
X54481161Y-49712582D01*
X54365908Y-50292000D01*
X54481161Y-50871418D01*
X54809375Y-51362625D01*
X55107761Y-51562000D01*
X54809375Y-51761375D01*
X54481161Y-52252582D01*
X54365908Y-52832000D01*
X54481161Y-53411418D01*
X54809375Y-53902625D01*
X55128478Y-54115843D01*
X54998642Y-54176817D01*
X54608355Y-54605076D01*
X54438524Y-55015110D01*
X54559845Y-55245000D01*
X55753000Y-55245000D01*
X55753000Y-55225000D01*
X56007000Y-55225000D01*
X56007000Y-55245000D01*
X57200155Y-55245000D01*
X57321476Y-55015110D01*
X57151645Y-54605076D01*
X56761358Y-54176817D01*
X56631522Y-54115843D01*
X56950625Y-53902625D01*
X57071983Y-53721000D01*
X66714445Y-53721000D01*
X66802000Y-53738416D01*
X66889555Y-53721000D01*
X66889556Y-53721000D01*
X67148870Y-53669419D01*
X67442933Y-53472933D01*
X67492531Y-53398704D01*
X73842529Y-47048707D01*
X73842531Y-47048704D01*
X77020707Y-43870529D01*
X77094933Y-43820933D01*
X77291419Y-43526870D01*
X77343000Y-43267556D01*
X77343000Y-43267555D01*
X77360416Y-43180001D01*
X77343000Y-43092446D01*
X77343000Y-42085983D01*
X77524625Y-41964625D01*
X77852839Y-41473418D01*
X77968092Y-40894000D01*
X77852839Y-40314582D01*
X77524625Y-39823375D01*
X77033418Y-39495161D01*
X76600256Y-39409000D01*
X76307744Y-39409000D01*
X75874582Y-39495161D01*
X75383375Y-39823375D01*
X75184000Y-40121761D01*
X74984625Y-39823375D01*
X74493418Y-39495161D01*
X74060256Y-39409000D01*
X73767744Y-39409000D01*
X73334582Y-39495161D01*
X72843375Y-39823375D01*
X72644000Y-40121761D01*
X72444625Y-39823375D01*
X72390000Y-39786876D01*
X72390000Y-39724063D01*
X72409904Y-39623999D01*
X72386367Y-39505673D01*
X72331051Y-39227577D01*
X72106495Y-38891505D01*
X72021661Y-38834821D01*
X71540840Y-38354000D01*
X78305662Y-38354000D01*
X78597577Y-38549051D01*
X78810579Y-38591420D01*
X78994000Y-38774841D01*
X78994001Y-62891935D01*
X78994000Y-66447936D01*
X78974096Y-66548000D01*
X78994000Y-66648063D01*
X78994000Y-66648064D01*
X79052949Y-66944422D01*
X79277505Y-67280495D01*
X79362340Y-67337180D01*
X81597719Y-69572560D01*
X80380000Y-69572560D01*
X80132235Y-69621843D01*
X79922191Y-69762191D01*
X79781843Y-69972235D01*
X79778725Y-69987908D01*
X79609507Y-69818690D01*
X79045330Y-69585000D01*
X78462236Y-69585000D01*
X76636531Y-67759296D01*
X76586933Y-67685067D01*
X76292870Y-67488581D01*
X76033556Y-67437000D01*
X76033555Y-67437000D01*
X75946000Y-67419584D01*
X75858445Y-67437000D01*
X61796055Y-67437000D01*
X62310994Y-67223705D01*
X62981905Y-66552794D01*
X63345000Y-65676206D01*
X63345000Y-64727394D01*
X62981905Y-63850806D01*
X62310994Y-63179895D01*
X61434406Y-62816800D01*
X60485594Y-62816800D01*
X59609006Y-63179895D01*
X58938095Y-63850806D01*
X58575000Y-64727394D01*
X58575000Y-65676206D01*
X58938095Y-66552794D01*
X59609006Y-67223705D01*
X60123945Y-67437000D01*
X59296236Y-67437000D01*
X57393618Y-65534383D01*
X57394092Y-65532000D01*
X57278839Y-64952582D01*
X56950625Y-64461375D01*
X56652239Y-64262000D01*
X56950625Y-64062625D01*
X57278839Y-63571418D01*
X57394092Y-62992000D01*
X57278839Y-62412582D01*
X56950625Y-61921375D01*
X56652239Y-61722000D01*
X56950625Y-61522625D01*
X57278839Y-61031418D01*
X57394092Y-60452000D01*
X57278839Y-59872582D01*
X56950625Y-59381375D01*
X56652239Y-59182000D01*
X56950625Y-58982625D01*
X57278839Y-58491418D01*
X57394092Y-57912000D01*
X57278839Y-57332582D01*
X56950625Y-56841375D01*
X56631522Y-56628157D01*
X56761358Y-56567183D01*
X57151645Y-56138924D01*
X57321476Y-55728890D01*
X57200155Y-55499000D01*
X56007000Y-55499000D01*
X56007000Y-55519000D01*
X55753000Y-55519000D01*
X55753000Y-55499000D01*
X54559845Y-55499000D01*
X54438524Y-55728890D01*
X54608355Y-56138924D01*
X54998642Y-56567183D01*
X55128478Y-56628157D01*
X54809375Y-56841375D01*
X54481161Y-57332582D01*
X54365908Y-57912000D01*
X54481161Y-58491418D01*
X54809375Y-58982625D01*
X55107761Y-59182000D01*
X54809375Y-59381375D01*
X54481161Y-59872582D01*
X54365908Y-60452000D01*
X54481161Y-61031418D01*
X54809375Y-61522625D01*
X55107761Y-61722000D01*
X54809375Y-61921375D01*
X54481161Y-62412582D01*
X54365908Y-62992000D01*
X54481161Y-63571418D01*
X54809375Y-64062625D01*
X55107761Y-64262000D01*
X54809375Y-64461375D01*
X54481161Y-64952582D01*
X54365908Y-65532000D01*
X54481161Y-66111418D01*
X54809375Y-66602625D01*
X55107761Y-66802000D01*
X54809375Y-67001375D01*
X54481161Y-67492582D01*
X54365908Y-68072000D01*
X54481161Y-68651418D01*
X54809375Y-69142625D01*
X55107761Y-69342000D01*
X54809375Y-69541375D01*
X54481161Y-70032582D01*
X54365908Y-70612000D01*
X54481161Y-71191418D01*
X54809375Y-71682625D01*
X55107761Y-71882000D01*
X54809375Y-72081375D01*
X54481161Y-72572582D01*
X54365908Y-73152000D01*
X54481161Y-73731418D01*
X54809375Y-74222625D01*
X55107761Y-74422000D01*
X54809375Y-74621375D01*
X54481161Y-75112582D01*
X54365908Y-75692000D01*
X54481161Y-76271418D01*
X54809375Y-76762625D01*
X55107761Y-76962000D01*
X54809375Y-77161375D01*
X54481161Y-77652582D01*
X54365908Y-78232000D01*
X54481161Y-78811418D01*
X54809375Y-79302625D01*
X55107761Y-79502000D01*
X54809375Y-79701375D01*
X54481161Y-80192582D01*
X54365908Y-80772000D01*
X54481161Y-81351418D01*
X54809375Y-81842625D01*
X55107761Y-82042000D01*
X54809375Y-82241375D01*
X54481161Y-82732582D01*
X54365908Y-83312000D01*
X54481161Y-83891418D01*
X54809375Y-84382625D01*
X55107761Y-84582000D01*
X54809375Y-84781375D01*
X54481161Y-85272582D01*
X54365908Y-85852000D01*
X54481161Y-86431418D01*
X54809375Y-86922625D01*
X55300582Y-87250839D01*
X55733744Y-87337000D01*
X56026256Y-87337000D01*
X56459418Y-87250839D01*
X56664593Y-87113745D01*
X74863861Y-87113745D01*
X74937995Y-87359864D01*
X75475223Y-87552965D01*
X76045454Y-87525778D01*
X76446005Y-87359864D01*
X76520139Y-87113745D01*
X78927861Y-87113745D01*
X79001995Y-87359864D01*
X79539223Y-87552965D01*
X80109454Y-87525778D01*
X80510005Y-87359864D01*
X80584139Y-87113745D01*
X79756000Y-86285605D01*
X78927861Y-87113745D01*
X76520139Y-87113745D01*
X75692000Y-86285605D01*
X74863861Y-87113745D01*
X56664593Y-87113745D01*
X56950625Y-86922625D01*
X57278839Y-86431418D01*
X57394092Y-85852000D01*
X57278839Y-85272582D01*
X56950625Y-84781375D01*
X56652239Y-84582000D01*
X56950625Y-84382625D01*
X57278839Y-83891418D01*
X57394092Y-83312000D01*
X57278839Y-82732582D01*
X56950625Y-82241375D01*
X56652239Y-82042000D01*
X56950625Y-81842625D01*
X57278839Y-81351418D01*
X57394092Y-80772000D01*
X57278839Y-80192582D01*
X56950625Y-79701375D01*
X56652239Y-79502000D01*
X56950625Y-79302625D01*
X57278839Y-78811418D01*
X57394092Y-78232000D01*
X57278839Y-77652582D01*
X56950625Y-77161375D01*
X56652239Y-76962000D01*
X56950625Y-76762625D01*
X57278839Y-76271418D01*
X57394092Y-75692000D01*
X57278839Y-75112582D01*
X56950625Y-74621375D01*
X56652239Y-74422000D01*
X56950625Y-74222625D01*
X57278839Y-73731418D01*
X57394092Y-73152000D01*
X57278839Y-72572582D01*
X56950625Y-72081375D01*
X56652239Y-71882000D01*
X56950625Y-71682625D01*
X57071983Y-71501000D01*
X58050152Y-71501000D01*
X58147423Y-71646577D01*
X58622091Y-71963740D01*
X59040667Y-72047000D01*
X59323333Y-72047000D01*
X59741909Y-71963740D01*
X60216577Y-71646577D01*
X60533740Y-71171909D01*
X60645113Y-70612000D01*
X60569327Y-70231000D01*
X63079735Y-70231000D01*
X62918629Y-70392106D01*
X62723000Y-70864398D01*
X62723000Y-71105000D01*
X62482398Y-71105000D01*
X62010106Y-71300629D01*
X61648629Y-71662106D01*
X61453000Y-72134398D01*
X61453000Y-72417764D01*
X58615294Y-75255471D01*
X58541068Y-75305067D01*
X58491472Y-75379293D01*
X58491471Y-75379294D01*
X58344582Y-75599130D01*
X58275584Y-75946000D01*
X58293001Y-76033559D01*
X58293000Y-79631604D01*
X57965466Y-79959138D01*
X57747000Y-80486561D01*
X57747000Y-81057439D01*
X57965466Y-81584862D01*
X58369138Y-81988534D01*
X58896561Y-82207000D01*
X59467439Y-82207000D01*
X59994862Y-81988534D01*
X60398534Y-81584862D01*
X60617000Y-81057439D01*
X60617000Y-80486561D01*
X60398534Y-79959138D01*
X60071000Y-79631604D01*
X60071000Y-76314235D01*
X62710236Y-73675000D01*
X62723000Y-73675000D01*
X62723000Y-73787002D01*
X62881748Y-73787002D01*
X62723000Y-73945750D01*
X62723000Y-74436310D01*
X62819673Y-74669699D01*
X62998302Y-74848327D01*
X63231691Y-74945000D01*
X63722250Y-74945000D01*
X63881000Y-74786250D01*
X63881000Y-73787000D01*
X63861000Y-73787000D01*
X63861000Y-73533000D01*
X63881000Y-73533000D01*
X63881000Y-73513000D01*
X64135000Y-73513000D01*
X64135000Y-73533000D01*
X64155000Y-73533000D01*
X64155000Y-73787000D01*
X64135000Y-73787000D01*
X64135000Y-74786250D01*
X64293750Y-74945000D01*
X64784309Y-74945000D01*
X65017698Y-74848327D01*
X65151000Y-74715025D01*
X65151000Y-76640445D01*
X65133584Y-76728000D01*
X65151000Y-76815555D01*
X65151000Y-76815556D01*
X65202582Y-77074870D01*
X65399068Y-77368933D01*
X65432417Y-77391216D01*
X65421000Y-77418778D01*
X65421000Y-78069222D01*
X65669914Y-78670153D01*
X66129847Y-79130086D01*
X66730778Y-79379000D01*
X67381222Y-79379000D01*
X67982153Y-79130086D01*
X68442086Y-78670153D01*
X68691000Y-78069222D01*
X68691000Y-77418778D01*
X68442086Y-76817847D01*
X67982153Y-76357914D01*
X67381222Y-76109000D01*
X66929000Y-76109000D01*
X66929000Y-73239555D01*
X66946416Y-73152000D01*
X66914365Y-72990870D01*
X66877419Y-72805130D01*
X66680933Y-72511067D01*
X66606707Y-72461471D01*
X65293000Y-71147765D01*
X65293000Y-70864398D01*
X65097371Y-70392106D01*
X64936265Y-70231000D01*
X66433765Y-70231000D01*
X67889470Y-71686706D01*
X67939067Y-71760933D01*
X68233130Y-71957419D01*
X68492444Y-72009000D01*
X68492445Y-72009000D01*
X68580000Y-72026416D01*
X68667555Y-72009000D01*
X70346183Y-72009000D01*
X70758493Y-72421310D01*
X71322670Y-72655000D01*
X71933330Y-72655000D01*
X72497507Y-72421310D01*
X72666725Y-72252092D01*
X72669843Y-72267765D01*
X72810191Y-72477809D01*
X73020235Y-72618157D01*
X73268000Y-72667440D01*
X74458204Y-72667440D01*
X74803001Y-73012237D01*
X74803000Y-74814151D01*
X74657423Y-74911423D01*
X74340260Y-75386091D01*
X74228887Y-75946000D01*
X74340260Y-76505909D01*
X74657423Y-76980577D01*
X75132091Y-77297740D01*
X75550667Y-77381000D01*
X75833333Y-77381000D01*
X76251909Y-77297740D01*
X76726577Y-76980577D01*
X77043740Y-76505909D01*
X77155113Y-75946000D01*
X77043740Y-75386091D01*
X76726577Y-74911423D01*
X76581000Y-74814152D01*
X76581000Y-72731550D01*
X76598415Y-72643999D01*
X76581000Y-72556448D01*
X76581000Y-72556444D01*
X76529419Y-72297130D01*
X76332933Y-72003067D01*
X76258707Y-71953471D01*
X75715440Y-71410204D01*
X75715440Y-70220000D01*
X75666157Y-69972235D01*
X75525809Y-69762191D01*
X75315765Y-69621843D01*
X75068000Y-69572560D01*
X73268000Y-69572560D01*
X73020235Y-69621843D01*
X72810191Y-69762191D01*
X72669843Y-69972235D01*
X72666725Y-69987908D01*
X72497507Y-69818690D01*
X71933330Y-69585000D01*
X71322670Y-69585000D01*
X70758493Y-69818690D01*
X70346183Y-70231000D01*
X68948236Y-70231000D01*
X67932235Y-69215000D01*
X75577765Y-69215000D01*
X77205000Y-70842236D01*
X77205000Y-71425330D01*
X77438690Y-71989507D01*
X77870493Y-72421310D01*
X78434670Y-72655000D01*
X79045330Y-72655000D01*
X79609507Y-72421310D01*
X79778725Y-72252092D01*
X79781843Y-72267765D01*
X79922191Y-72477809D01*
X80132235Y-72618157D01*
X80380000Y-72667440D01*
X80391000Y-72667440D01*
X80391001Y-74053763D01*
X79927720Y-74517044D01*
X79897333Y-74511000D01*
X79614667Y-74511000D01*
X79196091Y-74594260D01*
X78721423Y-74911423D01*
X78404260Y-75386091D01*
X78292887Y-75946000D01*
X78404260Y-76505909D01*
X78721423Y-76980577D01*
X79196091Y-77297740D01*
X79614667Y-77381000D01*
X79897333Y-77381000D01*
X80315909Y-77297740D01*
X80790577Y-76980577D01*
X81107740Y-76505909D01*
X81219113Y-75946000D01*
X81184956Y-75774280D01*
X81846707Y-75112529D01*
X81920933Y-75062933D01*
X82117419Y-74768870D01*
X82169000Y-74509556D01*
X82169000Y-74509552D01*
X82186415Y-74422001D01*
X82169000Y-74334450D01*
X82169000Y-72667440D01*
X82180000Y-72667440D01*
X82427765Y-72618157D01*
X82550001Y-72536481D01*
X82550000Y-77811160D01*
X82410339Y-77950821D01*
X82410336Y-77950823D01*
X80605160Y-79756000D01*
X71474063Y-79756000D01*
X71373999Y-79736096D01*
X71273936Y-79756000D01*
X71273935Y-79756000D01*
X70977577Y-79814949D01*
X70641505Y-80039505D01*
X70584822Y-80124337D01*
X67012600Y-83696560D01*
X66056000Y-83696560D01*
X65808235Y-83745843D01*
X65598191Y-83886191D01*
X65457843Y-84096235D01*
X65408560Y-84344000D01*
X65408560Y-86344000D01*
X65457843Y-86591765D01*
X65598191Y-86801809D01*
X65808235Y-86942157D01*
X66056000Y-86991440D01*
X68056000Y-86991440D01*
X68303765Y-86942157D01*
X68513809Y-86801809D01*
X68654157Y-86591765D01*
X68703440Y-86344000D01*
X68703440Y-85889223D01*
X74245035Y-85889223D01*
X74272222Y-86459454D01*
X74438136Y-86860005D01*
X74684255Y-86934139D01*
X75512395Y-86106000D01*
X75871605Y-86106000D01*
X76699745Y-86934139D01*
X76945864Y-86860005D01*
X77138965Y-86322777D01*
X77118295Y-85889223D01*
X78309035Y-85889223D01*
X78336222Y-86459454D01*
X78502136Y-86860005D01*
X78748255Y-86934139D01*
X79576395Y-86106000D01*
X79935605Y-86106000D01*
X80763745Y-86934139D01*
X81009864Y-86860005D01*
X81202965Y-86322777D01*
X81175778Y-85752546D01*
X81009864Y-85351995D01*
X80763745Y-85277861D01*
X79935605Y-86106000D01*
X79576395Y-86106000D01*
X78748255Y-85277861D01*
X78502136Y-85351995D01*
X78309035Y-85889223D01*
X77118295Y-85889223D01*
X77111778Y-85752546D01*
X76945864Y-85351995D01*
X76699745Y-85277861D01*
X75871605Y-86106000D01*
X75512395Y-86106000D01*
X74684255Y-85277861D01*
X74438136Y-85351995D01*
X74245035Y-85889223D01*
X68703440Y-85889223D01*
X68703440Y-85098255D01*
X74863861Y-85098255D01*
X75692000Y-85926395D01*
X76520139Y-85098255D01*
X78927861Y-85098255D01*
X79756000Y-85926395D01*
X80584139Y-85098255D01*
X80510005Y-84852136D01*
X79972777Y-84659035D01*
X79402546Y-84686222D01*
X79001995Y-84852136D01*
X78927861Y-85098255D01*
X76520139Y-85098255D01*
X76446005Y-84852136D01*
X75908777Y-84659035D01*
X75338546Y-84686222D01*
X74937995Y-84852136D01*
X74863861Y-85098255D01*
X68703440Y-85098255D01*
X68703440Y-84879400D01*
X71794841Y-81788000D01*
X80925937Y-81788000D01*
X81026000Y-81807904D01*
X81126063Y-81788000D01*
X81126065Y-81788000D01*
X81422423Y-81729051D01*
X81758495Y-81504495D01*
X81815180Y-81419660D01*
X83847177Y-79387664D01*
X83847179Y-79387661D01*
X84213661Y-79021179D01*
X84298495Y-78964495D01*
X84523051Y-78628423D01*
X84582000Y-78332065D01*
X84582000Y-78332064D01*
X84601904Y-78232001D01*
X84582000Y-78131937D01*
X84582000Y-70204063D01*
X84601904Y-70103999D01*
X84577822Y-69982932D01*
X84523051Y-69707577D01*
X84510552Y-69688870D01*
X84436085Y-69577423D01*
X84298495Y-69371505D01*
X84213663Y-69314822D01*
X81026000Y-66127160D01*
X81026000Y-38454064D01*
X81045904Y-38354000D01*
X81023161Y-38239663D01*
X80967051Y-37957577D01*
X80742495Y-37621505D01*
X80657663Y-37564823D01*
X80378841Y-37286000D01*
X86412000Y-37286000D01*
X86412000Y-40384880D01*
G04 #@! TD*
M02*
