M48
;DRILL file {KiCad 5.0.0+dfsg1-1} date Sun Sep 23 15:10:25 2018
;FORMAT={3:3/ absolute / metric / suppress leading zeros}
FMAT,2
METRIC,TZ
T1C0.750
T2C0.800
T3C0.900
T4C1.000
%
G90
G05
M71
T1
X62738Y-72390
X64008Y-71120
X64008Y-73660
T2
X75692Y-75946
X75692Y-86106
X59182Y-70612
X59182Y-80772
X79756Y-75946
X79756Y-86106
X25400Y-68326
X28800Y-68326
X27940Y-73660
X27940Y-83820
X25400Y-48260
X25400Y-58420
X29210Y-58500
X29210Y-63500
T3
X25400Y-41910
X27940Y-41910
X71628Y-71120
X74168Y-71120
X78740Y-71120
X81280Y-71120
T4
X67056Y-77744
X67056Y-85344
X33020Y-40132
X33020Y-42672
X33020Y-45212
X33020Y-47752
X33020Y-50292
X33020Y-52832
X33020Y-55372
X33020Y-57912
X33020Y-60452
X33020Y-62992
X33020Y-65532
X33020Y-68072
X33020Y-70612
X33020Y-73152
X33020Y-75692
X33020Y-78232
X33020Y-80772
X33020Y-83312
X33020Y-85852
X55880Y-40132
X55880Y-42672
X55880Y-45212
X55880Y-47752
X55880Y-50292
X55880Y-52832
X55880Y-55372
X55880Y-57912
X55880Y-60452
X55880Y-62992
X55880Y-65532
X55880Y-68072
X55880Y-70612
X55880Y-73152
X55880Y-75692
X55880Y-78232
X55880Y-80772
X55880Y-83312
X55880Y-85852
X68834Y-40894
X71374Y-40894
X73914Y-40894
X76454Y-40894
T0
M30
