G04 #@! TF.GenerationSoftware,KiCad,Pcbnew,5.0.0+dfsg1-1*
G04 #@! TF.CreationDate,2018-09-23T15:10:03+08:00*
G04 #@! TF.ProjectId,IOT,494F542E6B696361645F706362000000,rev?*
G04 #@! TF.SameCoordinates,Original*
G04 #@! TF.FileFunction,Drawing*
%FSLAX46Y46*%
G04 Gerber Fmt 4.6, Leading zero omitted, Abs format (unit mm)*
G04 Created by KiCad (PCBNEW 5.0.0+dfsg1-1) date Sun Sep 23 15:10:03 2018*
%MOMM*%
%LPD*%
G01*
G04 APERTURE LIST*
%ADD10C,0.300000*%
G04 APERTURE END LIST*
D10*
X92583428Y-57055428D02*
X92583428Y-56341142D01*
X91869142Y-56269714D01*
X91940571Y-56341142D01*
X92012000Y-56484000D01*
X92012000Y-56841142D01*
X91940571Y-56984000D01*
X91869142Y-57055428D01*
X91726285Y-57126857D01*
X91369142Y-57126857D01*
X91226285Y-57055428D01*
X91154857Y-56984000D01*
X91083428Y-56841142D01*
X91083428Y-56484000D01*
X91154857Y-56341142D01*
X91226285Y-56269714D01*
X91083428Y-58555428D02*
X91083428Y-57698285D01*
X91083428Y-58126857D02*
X92583428Y-58126857D01*
X92369142Y-57984000D01*
X92226285Y-57841142D01*
X92154857Y-57698285D01*
X91226285Y-59198285D02*
X91154857Y-59269714D01*
X91083428Y-59198285D01*
X91154857Y-59126857D01*
X91226285Y-59198285D01*
X91083428Y-59198285D01*
X91940571Y-60126857D02*
X92012000Y-59984000D01*
X92083428Y-59912571D01*
X92226285Y-59841142D01*
X92297714Y-59841142D01*
X92440571Y-59912571D01*
X92512000Y-59984000D01*
X92583428Y-60126857D01*
X92583428Y-60412571D01*
X92512000Y-60555428D01*
X92440571Y-60626857D01*
X92297714Y-60698285D01*
X92226285Y-60698285D01*
X92083428Y-60626857D01*
X92012000Y-60555428D01*
X91940571Y-60412571D01*
X91940571Y-60126857D01*
X91869142Y-59984000D01*
X91797714Y-59912571D01*
X91654857Y-59841142D01*
X91369142Y-59841142D01*
X91226285Y-59912571D01*
X91154857Y-59984000D01*
X91083428Y-60126857D01*
X91083428Y-60412571D01*
X91154857Y-60555428D01*
X91226285Y-60626857D01*
X91369142Y-60698285D01*
X91654857Y-60698285D01*
X91797714Y-60626857D01*
X91869142Y-60555428D01*
X91940571Y-60412571D01*
X91083428Y-62126857D02*
X91083428Y-61269714D01*
X91083428Y-61698285D02*
X92583428Y-61698285D01*
X92369142Y-61555428D01*
X92226285Y-61412571D01*
X92154857Y-61269714D01*
X92583428Y-63412571D02*
X92583428Y-63126857D01*
X92512000Y-62984000D01*
X92440571Y-62912571D01*
X92226285Y-62769714D01*
X91940571Y-62698285D01*
X91369142Y-62698285D01*
X91226285Y-62769714D01*
X91154857Y-62841142D01*
X91083428Y-62984000D01*
X91083428Y-63269714D01*
X91154857Y-63412571D01*
X91226285Y-63484000D01*
X91369142Y-63555428D01*
X91726285Y-63555428D01*
X91869142Y-63484000D01*
X91940571Y-63412571D01*
X92012000Y-63269714D01*
X92012000Y-62984000D01*
X91940571Y-62841142D01*
X91869142Y-62769714D01*
X91726285Y-62698285D01*
X91083428Y-65341142D02*
X92083428Y-65341142D01*
X91940571Y-65341142D02*
X92012000Y-65412571D01*
X92083428Y-65555428D01*
X92083428Y-65769714D01*
X92012000Y-65912571D01*
X91869142Y-65984000D01*
X91083428Y-65984000D01*
X91869142Y-65984000D02*
X92012000Y-66055428D01*
X92083428Y-66198285D01*
X92083428Y-66412571D01*
X92012000Y-66555428D01*
X91869142Y-66626857D01*
X91083428Y-66626857D01*
X91083428Y-67341142D02*
X92083428Y-67341142D01*
X91940571Y-67341142D02*
X92012000Y-67412571D01*
X92083428Y-67555428D01*
X92083428Y-67769714D01*
X92012000Y-67912571D01*
X91869142Y-67984000D01*
X91083428Y-67984000D01*
X91869142Y-67984000D02*
X92012000Y-68055428D01*
X92083428Y-68198285D01*
X92083428Y-68412571D01*
X92012000Y-68555428D01*
X91869142Y-68626857D01*
X91083428Y-68626857D01*
X89662000Y-36576000D02*
X89662000Y-88392000D01*
X87630000Y-36576000D02*
X90248421Y-36576000D01*
X87630000Y-88392000D02*
X90248421Y-88392000D01*
X89662000Y-88392000D02*
X89075579Y-87265496D01*
X89662000Y-88392000D02*
X90248421Y-87265496D01*
X89662000Y-36576000D02*
X89075579Y-37702504D01*
X89662000Y-36576000D02*
X90248421Y-37702504D01*
X48856000Y-30606571D02*
X48570285Y-30606571D01*
X48427428Y-30678000D01*
X48356000Y-30749428D01*
X48213142Y-30963714D01*
X48141714Y-31249428D01*
X48141714Y-31820857D01*
X48213142Y-31963714D01*
X48284571Y-32035142D01*
X48427428Y-32106571D01*
X48713142Y-32106571D01*
X48856000Y-32035142D01*
X48927428Y-31963714D01*
X48998857Y-31820857D01*
X48998857Y-31463714D01*
X48927428Y-31320857D01*
X48856000Y-31249428D01*
X48713142Y-31178000D01*
X48427428Y-31178000D01*
X48284571Y-31249428D01*
X48213142Y-31320857D01*
X48141714Y-31463714D01*
X50356000Y-30606571D02*
X49641714Y-30606571D01*
X49570285Y-31320857D01*
X49641714Y-31249428D01*
X49784571Y-31178000D01*
X50141714Y-31178000D01*
X50284571Y-31249428D01*
X50356000Y-31320857D01*
X50427428Y-31463714D01*
X50427428Y-31820857D01*
X50356000Y-31963714D01*
X50284571Y-32035142D01*
X50141714Y-32106571D01*
X49784571Y-32106571D01*
X49641714Y-32035142D01*
X49570285Y-31963714D01*
X51070285Y-31963714D02*
X51141714Y-32035142D01*
X51070285Y-32106571D01*
X50998857Y-32035142D01*
X51070285Y-31963714D01*
X51070285Y-32106571D01*
X52498857Y-30606571D02*
X51784571Y-30606571D01*
X51713142Y-31320857D01*
X51784571Y-31249428D01*
X51927428Y-31178000D01*
X52284571Y-31178000D01*
X52427428Y-31249428D01*
X52498857Y-31320857D01*
X52570285Y-31463714D01*
X52570285Y-31820857D01*
X52498857Y-31963714D01*
X52427428Y-32035142D01*
X52284571Y-32106571D01*
X51927428Y-32106571D01*
X51784571Y-32035142D01*
X51713142Y-31963714D01*
X53070285Y-30606571D02*
X53998857Y-30606571D01*
X53498857Y-31178000D01*
X53713142Y-31178000D01*
X53856000Y-31249428D01*
X53927428Y-31320857D01*
X53998857Y-31463714D01*
X53998857Y-31820857D01*
X53927428Y-31963714D01*
X53856000Y-32035142D01*
X53713142Y-32106571D01*
X53284571Y-32106571D01*
X53141714Y-32035142D01*
X53070285Y-31963714D01*
X54570285Y-30749428D02*
X54641714Y-30678000D01*
X54784571Y-30606571D01*
X55141714Y-30606571D01*
X55284571Y-30678000D01*
X55356000Y-30749428D01*
X55427428Y-30892285D01*
X55427428Y-31035142D01*
X55356000Y-31249428D01*
X54498857Y-32106571D01*
X55427428Y-32106571D01*
X57213142Y-32106571D02*
X57213142Y-31106571D01*
X57213142Y-31249428D02*
X57284571Y-31178000D01*
X57427428Y-31106571D01*
X57641714Y-31106571D01*
X57784571Y-31178000D01*
X57856000Y-31320857D01*
X57856000Y-32106571D01*
X57856000Y-31320857D02*
X57927428Y-31178000D01*
X58070285Y-31106571D01*
X58284571Y-31106571D01*
X58427428Y-31178000D01*
X58498857Y-31320857D01*
X58498857Y-32106571D01*
X59213142Y-32106571D02*
X59213142Y-31106571D01*
X59213142Y-31249428D02*
X59284571Y-31178000D01*
X59427428Y-31106571D01*
X59641714Y-31106571D01*
X59784571Y-31178000D01*
X59856000Y-31320857D01*
X59856000Y-32106571D01*
X59856000Y-31320857D02*
X59927428Y-31178000D01*
X60070285Y-31106571D01*
X60284571Y-31106571D01*
X60427428Y-31178000D01*
X60498857Y-31320857D01*
X60498857Y-32106571D01*
X21590000Y-33528000D02*
X87122000Y-33528000D01*
X21590000Y-36068000D02*
X21590000Y-32941579D01*
X87122000Y-36068000D02*
X87122000Y-32941579D01*
X87122000Y-33528000D02*
X85995496Y-34114421D01*
X87122000Y-33528000D02*
X85995496Y-32941579D01*
X21590000Y-33528000D02*
X22716504Y-34114421D01*
X21590000Y-33528000D02*
X22716504Y-32941579D01*
M02*
