G04 #@! TF.GenerationSoftware,KiCad,Pcbnew,5.0.0+dfsg1-1*
G04 #@! TF.CreationDate,2018-09-23T15:10:03+08:00*
G04 #@! TF.ProjectId,IOT,494F542E6B696361645F706362000000,rev?*
G04 #@! TF.SameCoordinates,Original*
G04 #@! TF.FileFunction,Soldermask,Top*
G04 #@! TF.FilePolarity,Negative*
%FSLAX46Y46*%
G04 Gerber Fmt 4.6, Leading zero omitted, Abs format (unit mm)*
G04 Created by KiCad (PCBNEW 5.0.0+dfsg1-1) date Sun Sep 23 15:10:03 2018*
%MOMM*%
%LPD*%
G01*
G04 APERTURE LIST*
%ADD10R,2.200000X2.200000*%
%ADD11C,2.200000*%
%ADD12C,3.900000*%
%ADD13R,2.100000X2.100000*%
%ADD14O,2.100000X2.100000*%
%ADD15C,1.900000*%
%ADD16R,2.400000X2.400000*%
%ADD17C,2.400000*%
%ADD18O,2.000000X2.000000*%
%ADD19C,2.000000*%
%ADD20C,1.700000*%
%ADD21R,1.700000X1.700000*%
G04 APERTURE END LIST*
D10*
G04 #@! TO.C,D1*
X25400000Y-41910000D03*
D11*
X27940000Y-41910000D03*
G04 #@! TD*
G04 #@! TO.C,D2*
X78740000Y-71120000D03*
D10*
X81280000Y-71120000D03*
G04 #@! TD*
D12*
G04 #@! TO.C,U2*
X84251800Y-41402000D03*
X84277200Y-65176400D03*
X60960000Y-65201800D03*
D13*
X68834000Y-40894000D03*
D14*
X71374000Y-40894000D03*
X73914000Y-40894000D03*
X76454000Y-40894000D03*
D12*
X60960000Y-41402000D03*
G04 #@! TD*
D10*
G04 #@! TO.C,D3*
X74168000Y-71120000D03*
D11*
X71628000Y-71120000D03*
G04 #@! TD*
D15*
G04 #@! TO.C,R5*
X25400000Y-68326000D03*
X28800000Y-68326000D03*
G04 #@! TD*
D14*
G04 #@! TO.C,U1*
X55880000Y-85852000D03*
X55880000Y-83312000D03*
X55880000Y-80772000D03*
X55880000Y-78232000D03*
X55880000Y-75692000D03*
X55880000Y-73152000D03*
X55880000Y-70612000D03*
X55880000Y-68072000D03*
X55880000Y-65532000D03*
X55880000Y-62992000D03*
X55880000Y-60452000D03*
X55880000Y-57912000D03*
X55880000Y-55372000D03*
X55880000Y-52832000D03*
X55880000Y-50292000D03*
X55880000Y-47752000D03*
X55880000Y-45212000D03*
X55880000Y-42672000D03*
D13*
X55880000Y-40132000D03*
X33020000Y-40132000D03*
D14*
X33020000Y-42672000D03*
X33020000Y-45212000D03*
X33020000Y-47752000D03*
X33020000Y-50292000D03*
X33020000Y-52832000D03*
X33020000Y-55372000D03*
X33020000Y-57912000D03*
X33020000Y-60452000D03*
X33020000Y-62992000D03*
X33020000Y-65532000D03*
X33020000Y-68072000D03*
X33020000Y-70612000D03*
X33020000Y-73152000D03*
X33020000Y-75692000D03*
X33020000Y-78232000D03*
X33020000Y-80772000D03*
X33020000Y-83312000D03*
X33020000Y-85852000D03*
G04 #@! TD*
D16*
G04 #@! TO.C,BZ1*
X67056000Y-85344000D03*
D17*
X67056000Y-77744000D03*
G04 #@! TD*
D18*
G04 #@! TO.C,R4*
X75692000Y-75946000D03*
D19*
X75692000Y-86106000D03*
G04 #@! TD*
D18*
G04 #@! TO.C,R2*
X25400000Y-48260000D03*
D19*
X25400000Y-58420000D03*
G04 #@! TD*
G04 #@! TO.C,C1*
X29210000Y-63500000D03*
X29210000Y-58500000D03*
G04 #@! TD*
G04 #@! TO.C,R6*
X27940000Y-83820000D03*
D18*
X27940000Y-73660000D03*
G04 #@! TD*
D19*
G04 #@! TO.C,R3*
X79756000Y-86106000D03*
D18*
X79756000Y-75946000D03*
G04 #@! TD*
D20*
G04 #@! TO.C,Q1*
X62738000Y-72390000D03*
X64008000Y-71120000D03*
D21*
X64008000Y-73660000D03*
G04 #@! TD*
D19*
G04 #@! TO.C,R1*
X59182000Y-80772000D03*
D18*
X59182000Y-70612000D03*
G04 #@! TD*
M02*
